<?xml version="1.0" ?><svg class="nc-icon outline" xmlns="http://www.w3.org/2000/svg" xmlns:xlink="http://www.w3.org/1999/xlink" x="0px" y="0px" width="64px" height="64px" viewBox="0 0 64 64"> <g transform="translate(0, 0)"> <polyline data-color="color-2" fill="none" stroke="#9e85d0" stroke-width="2" stroke-linecap="square" stroke-miterlimit="10" points=" 38,16 62,16 62,58 2,58 2,16 26,16 " stroke-linejoin="square"></polyline> <path fill="none" stroke="#9e85d0" stroke-width="2" stroke-linecap="square" stroke-miterlimit="10" d="M38,20H26V8 c0-3.3,2.7-6,6-6h0c3.3,0,6,2.7,6,6V20z" stroke-linejoin="square"></path> <path fill="none" stroke="#9e85d0" stroke-width="2" stroke-linecap="square" stroke-miterlimit="10" d="M20,38L20,38 c-2.2,0-4-1.8-4-4v-2c0-2.2,1.8-4,4-4h0c2.2,0,4,1.8,4,4v2C24,36.2,22.2,38,20,38z" stroke-linejoin="square"></path> <line fill="none" stroke="#9e85d0" stroke-width="2" stroke-linecap="square" stroke-miterlimit="10" x1="38" y1="36" x2="54" y2="36" stroke-linejoin="square"></line> <line fill="none" stroke="#9e85d0" stroke-width="2" stroke-linecap="square" stroke-miterlimit="10" x1="38" y1="44" x2="48" y2="44" stroke-linejoin="square"></line> <path fill="none" stroke="#9e85d0" stroke-width="2" stroke-linecap="square" stroke-miterlimit="10" d="M30,48H10v0 c0-3.3,2.7-6,6-6h8C27.3,42,30,44.7,30,48L30,48z" stroke-linejoin="square"></path> <line fill="none" stroke="#9e85d0" stroke-width="2" stroke-linecap="square" stroke-miterlimit="10" x1="32" y1="12" x2="32" y2="10" stroke-linejoin="square"></line> </g> </svg>