<?xml version="1.0" ?><svg class="nc-icon outline" xmlns="http://www.w3.org/2000/svg" xmlns:xlink="http://www.w3.org/1999/xlink" x="0px" y="0px" width="64px" height="64px" viewBox="0 0 64 64"> <g transform="translate(0, 0)"> <polyline data-cap="butt" data-color="color-2" fill="none" stroke="#9e85d0" stroke-width="2" stroke-miterlimit="10" points="24,40 28,48 36,48 40,40 " stroke-linejoin="square" stroke-linecap="butt"></polyline> <line data-cap="butt" data-color="color-2" fill="none" stroke="#9e85d0" stroke-width="2" stroke-miterlimit="10" x1="24" y1="62" x2="28" y2="48" stroke-linejoin="square" stroke-linecap="butt"></line> <line data-cap="butt" data-color="color-2" fill="none" stroke="#9e85d0" stroke-width="2" stroke-miterlimit="10" x1="36" y1="48" x2="40" y2="62" stroke-linejoin="square" stroke-linecap="butt"></line> <path data-cap="butt" fill="none" stroke="#9e85d0" stroke-width="2" stroke-miterlimit="10" d="M39.7,40H40c12.2,0,22,9.8,22,22v0H2 v0c0-12.2,9.8-22,22-22h0.3" stroke-linejoin="square" stroke-linecap="butt"></path> <path data-cap="butt" fill="none" stroke="#9e85d0" stroke-width="2" stroke-miterlimit="10" d="M47.9,27.5C47.2,35.7,40.3,42,32,42 h0c-8.3,0-15.2-6.4-15.9-14.5" stroke-linejoin="square" stroke-linecap="butt"></path> <path fill="none" stroke="#9e85d0" stroke-width="2" stroke-linecap="square" stroke-miterlimit="10" d="M16,18c0-8.8,7.2-16,16-16 h0c8.8,0,16,7.2,16,16" stroke-linejoin="square"></path> <path data-color="color-2" fill="none" stroke="#9e85d0" stroke-width="2" stroke-linecap="square" stroke-miterlimit="10" d="M12.1,18 c0,0.3-0.1,0.7-0.1,1c0,6.1,4.9,11,11,11c3.7,0,7-1.9,9-4.7c2,2.8,5.3,4.7,9,4.7c6.1,0,11-4.9,11-11c0-0.3,0-0.7-0.1-1H12.1z" stroke-linejoin="square"></path> </g> </svg>