<?xml version="1.0" ?><svg class="nc-icon outline" xmlns="http://www.w3.org/2000/svg" xmlns:xlink="http://www.w3.org/1999/xlink" x="0px" y="0px" width="64px" height="64px" viewBox="0 0 64 64"><g transform="translate(0, 0)"> <line data-cap="butt" data-color="color-2" fill="none" stroke="#9e85d0" stroke-width="2" stroke-miterlimit="10" x1="46" y1="56" x2="58" y2="44" stroke-linejoin="square" stroke-linecap="butt"></line> <line data-cap="butt" data-color="color-2" fill="none" stroke="#9e85d0" stroke-width="2" stroke-miterlimit="10" x1="24" y1="10" x2="12" y2="22" stroke-linejoin="square" stroke-linecap="butt"></line> <polyline data-color="color-2" fill="none" stroke="#9e85d0" stroke-width="2" stroke-linecap="square" stroke-miterlimit="10" points=" 19,29 6,16 18,4 31,17 " stroke-linejoin="square"></polyline> <polyline data-color="color-2" fill="none" stroke="#9e85d0" stroke-width="2" stroke-linecap="square" stroke-miterlimit="10" points=" 45,31 58,44 60,58 46,56 33,43 " stroke-linejoin="square"></polyline> <rect x="21.1" y="2.7" transform="matrix(0.7071 0.7071 -0.7071 0.7071 31 -12.8406)" fill="none" stroke="#9e85d0" stroke-width="2" stroke-linecap="square" stroke-miterlimit="10" width="19.8" height="56.6" stroke-linejoin="square"></rect> <line fill="none" stroke="#9e85d0" stroke-width="2" stroke-linecap="square" stroke-miterlimit="10" x1="24" y1="24" x2="30" y2="30" stroke-linejoin="square"></line> <line fill="none" stroke="#9e85d0" stroke-width="2" stroke-linecap="square" stroke-miterlimit="10" x1="18" y1="30" x2="22" y2="34" stroke-linejoin="square"></line> <line fill="none" stroke="#9e85d0" stroke-width="2" stroke-linecap="square" stroke-miterlimit="10" x1="36" y1="12" x2="42" y2="18" stroke-linejoin="square"></line> <line fill="none" stroke="#9e85d0" stroke-width="2" stroke-linecap="square" stroke-miterlimit="10" x1="30" y1="18" x2="34" y2="22" stroke-linejoin="square"></line> <line fill="none" stroke="#9e85d0" stroke-width="2" stroke-linecap="square" stroke-miterlimit="10" x1="12" y1="36" x2="18" y2="42" stroke-linejoin="square"></line> </g></svg>