<?xml version="1.0" standalone="no"?>
<!DOCTYPE svg PUBLIC "-//W3C//DTD SVG 1.1//EN" "http://www.w3.org/Graphics/SVG/1.1/DTD/svg11.dtd" >
<svg xmlns="http://www.w3.org/2000/svg">
<metadata></metadata>
<defs>
<font id="budmojigglish" horiz-adv-x="1482" >
<font-face units-per-em="2048" ascent="1536" descent="-512" />
<missing-glyph horiz-adv-x="503" />
<glyph horiz-adv-x="0" />
<glyph unicode="&#xd;" horiz-adv-x="503" />
<glyph horiz-adv-x="503" />
<glyph unicode=" "  horiz-adv-x="503" />
<glyph unicode="&#x09;" horiz-adv-x="503" />
<glyph unicode="&#xa0;" horiz-adv-x="503" />
<glyph unicode="!" horiz-adv-x="673" d="M43 176q0 35 6 69t12 50v1075h535v-1075q23 -55 22 -119q0 -129 -78.5 -205.5t-203.5 -76.5q-61 0 -114.5 20t-93.5 57t-62.5 89.5t-22.5 115.5zM135 176q0 -92 56.5 -146.5t144.5 -54.5q92 0 147.5 54.5t55.5 146.5q0 66 -36 117t-95 74h106v921h-371v-921h119 q-59 -23 -93 -74t-34 -117zM258 176q0 35 21.5 56.5t56.5 21.5q33 0 56.5 -21.5t23.5 -56.5q2 -33 -23.5 -56.5t-56.5 -23.5q-35 0 -56.5 23.5t-21.5 56.5zM258 530q0 33 22.5 55.5t55.5 22.5t56.5 -22.5t23.5 -55.5q0 -35 -23.5 -57t-56.5 -22t-55.5 22.5t-22.5 56.5z M258 729q0 33 22.5 56.5t55.5 23.5t56.5 -23.5t23.5 -56.5t-23.5 -55.5t-56.5 -22.5t-55.5 22.5t-22.5 55.5zM258 930q0 35 22.5 56.5t55.5 21.5t56.5 -21.5t23.5 -56.5q0 -33 -23.5 -56.5t-56.5 -23.5t-55.5 23.5t-22.5 56.5zM258 1128q0 35 22.5 57.5t55.5 22.5 t56.5 -22.5t23.5 -57.5q0 -33 -23.5 -56t-56.5 -23t-55.5 23.5t-22.5 55.5z" />
<glyph unicode="&#x22;" horiz-adv-x="907" d="M33 582v788h839v-788h-839zM115 664h311v624h-311v-624zM195 811q0 33 21.5 55.5t55.5 22.5q33 0 56.5 -22.5t23.5 -55.5t-23.5 -56.5t-56.5 -23.5q-35 0 -56 23.5t-21 56.5zM195 985q0 35 21.5 56.5t55.5 21.5q33 0 56.5 -21.5t23.5 -56.5q0 -33 -23.5 -56.5 t-56.5 -23.5q-35 0 -56 23.5t-21 56.5zM195 1157q0 35 21.5 57.5t55.5 22.5q33 0 56.5 -22.5t23.5 -57.5q0 -33 -23.5 -55.5t-56.5 -22.5q-35 0 -56 22.5t-21 55.5zM479 664h312v624h-312v-624zM559 811q0 33 21.5 55.5t56.5 22.5q33 0 56.5 -22.5t23.5 -55.5t-23.5 -56.5 t-56.5 -23.5q-35 0 -56.5 23.5t-21.5 56.5zM559 985q0 35 21.5 56.5t56.5 21.5q33 0 56.5 -21.5t23.5 -56.5q0 -33 -23.5 -56.5t-56.5 -23.5q-35 0 -56.5 23.5t-21.5 56.5zM559 1157q0 35 21.5 57.5t56.5 22.5q33 0 56.5 -22.5t23.5 -57.5q0 -33 -23.5 -55.5t-56.5 -22.5 q-35 0 -56.5 22.5t-21.5 55.5z" />
<glyph unicode="#" horiz-adv-x="1423" d="M-66 258l279 789h217l121 323h846l-115 -323h207l-281 -789h-211l-127 -340h-847l124 340h-213zM53 340h211l-123 -340h293l127 340h80l-123 -340h293l127 340h211l100 274h-215l29 80h207l100 271h-207l117 323h-293l-121 -323h-80l119 323h-295l-121 -323h-217 l-98 -271h217l-29 -80h-208zM190 481q0 33 23 56.5t57 23.5q33 0 55.5 -23.5t22.5 -56.5t-22.5 -55.5t-55.5 -22.5q-35 0 -57.5 23t-22.5 55zM254 135q0 35 23.5 57.5t56.5 22.5t55.5 -22.5t22.5 -57.5q0 -31 -23.5 -54.5t-54.5 -23.5q-33 0 -56.5 22.5t-23.5 55.5zM315 309 q0 31 25 55.5t55 24.5q33 0 56.5 -23.5t23.5 -56.5t-23.5 -55.5t-56.5 -22.5t-56.5 22.5t-23.5 55.5zM315 825q0 33 23.5 56.5t56.5 23.5t56.5 -22.5t23.5 -57.5q0 -33 -23.5 -55t-56.5 -22q-35 0 -57.5 22.5t-22.5 54.5zM379 481q0 33 23.5 56.5t56.5 23.5t56.5 -23.5 t23.5 -56.5t-23.5 -55.5t-56.5 -22.5t-56.5 23t-23.5 55zM442 655q0 33 23.5 56.5t56.5 23.5t56.5 -24.5t23.5 -57.5t-24.5 -55.5t-55.5 -22.5q-33 0 -56.5 23t-23.5 57zM506 825q0 33 23.5 56.5t54.5 23.5q33 0 56.5 -22.5t23.5 -57.5q0 -33 -24 -55t-56 -22 q-33 0 -55.5 22.5t-22.5 54.5zM569 481q0 33 22.5 56.5t55.5 23.5q35 0 57.5 -23.5t22.5 -56.5t-22.5 -55.5t-57.5 -22.5q-33 0 -55.5 23t-22.5 55zM569 997q0 33 22.5 56.5t55.5 23.5t56.5 -23.5t23.5 -56.5t-23.5 -55t-56.5 -22t-55.5 22.5t-22.5 54.5zM633 1171 q0 33 23.5 56.5t56.5 23.5q31 0 54.5 -24.5t23.5 -55.5q0 -35 -22.5 -57t-55.5 -22t-56.5 22.5t-23.5 56.5zM635 135q0 35 21.5 57.5t56.5 22.5q33 0 56.5 -22.5t23.5 -57.5q0 -31 -24 -54.5t-56 -23.5q-35 0 -56.5 22.5t-21.5 55.5zM653 612l29 82h88l-27 -82h-90zM694 825 q0 33 24.5 56.5t55.5 23.5q35 0 56.5 -22.5t21.5 -57.5q0 -33 -21.5 -55t-56.5 -22q-33 0 -56.5 22.5t-23.5 54.5zM696 309q0 31 23.5 55.5t56.5 24.5t55.5 -23.5t22.5 -56.5t-22.5 -55.5t-55.5 -22.5q-35 0 -57.5 22.5t-22.5 55.5zM760 481q0 33 22.5 56.5t57.5 23.5 q33 0 55.5 -23.5t22.5 -56.5t-23 -55.5t-55 -22.5q-35 0 -57.5 23t-22.5 55zM823 655q0 33 22.5 56.5t57.5 23.5q33 0 55.5 -24.5t22.5 -57.5t-23.5 -55.5t-54.5 -22.5q-35 0 -57.5 23t-22.5 57zM885 825q0 33 23.5 56.5t56.5 23.5t56 -22.5t23 -57.5q0 -33 -23.5 -55 t-55.5 -22q-35 0 -57.5 22.5t-22.5 54.5zM948 481q0 33 23.5 56.5t56.5 23.5t56.5 -23.5t23.5 -56.5t-23.5 -55.5t-56.5 -22.5t-56.5 23t-23.5 55zM948 997q0 33 22.5 56.5t57.5 23.5q33 0 56.5 -23.5t23.5 -56.5t-23.5 -55t-56.5 -22q-35 0 -57.5 22.5t-22.5 54.5z M1014 1171q0 33 21.5 56.5t56.5 23.5q31 0 55 -24.5t24 -55.5q0 -35 -23.5 -57t-55.5 -22q-35 0 -56.5 22.5t-21.5 56.5zM1075 825q0 33 23.5 56.5t54.5 23.5q33 0 56.5 -22.5t23.5 -57.5q0 -33 -23.5 -55t-56.5 -22t-55.5 22.5t-22.5 54.5z" />
<glyph unicode="$" horiz-adv-x="1153" d="M14 338l328 123q-170 94 -238.5 202.5t-68.5 247.5q0 168 83 286t242 167v197h416v-199q63 -20 117.5 -50t97.5 -76t76 -110.5t55 -152.5l-336 -131q90 -45 152.5 -93.5t102.5 -103.5t57.5 -119.5t17.5 -144.5q0 -186 -83 -298t-257 -159v-174h-416v170 q-135 41 -218 135.5t-128 282.5zM109 303q63 -270 333 -319v-152h252v156q166 35 253 131t87 262q0 72 -16.5 130t-56 107.5t-108.5 92.5t-173 86q-66 27 -105.5 46t-62.5 35.5t-30 30t-7 25.5q0 23 20.5 42t67.5 19q90 0 96 -135q338 145 353 146q-61 244 -318 292v181 h-252v-179q-162 -33 -243.5 -134t-81.5 -255q0 -72 16.5 -129t61.5 -109t123.5 -100.5t205.5 -99.5q72 -29 109 -50.5t37 -47.5q0 -29 -30 -43.5t-65 -14.5q-111 0 -110 119zM219 907q0 33 23.5 55.5t56.5 22.5t56.5 -22.5t23.5 -55.5t-23.5 -56.5t-56.5 -23.5t-56.5 23.5 t-23.5 56.5zM303 1071q0 33 22.5 56.5t57.5 23.5q33 0 56.5 -23.5t23.5 -56.5t-23.5 -55.5t-56.5 -22.5t-56.5 22.5t-23.5 55.5zM313 229q0 33 23.5 55.5t54.5 22.5q35 0 57.5 -21.5t22.5 -56.5q0 -33 -23.5 -57.5t-58.5 -24.5q-31 0 -53.5 26t-22.5 56zM317 743 q0 35 24 57.5t56 22.5q33 0 55.5 -22.5t22.5 -57.5q0 -33 -22.5 -56t-55.5 -23t-56.5 23.5t-23.5 55.5zM485 651q0 33 21.5 55.5t56.5 22.5q33 0 56.5 -22.5t23.5 -55.5t-24.5 -56.5t-55.5 -23.5q-35 0 -56.5 23.5t-21.5 56.5zM487 1137q0 35 24 57.5t56 22.5 q35 0 57.5 -22.5t22.5 -57.5q0 -33 -22.5 -55.5t-57.5 -22.5q-31 0 -55.5 23.5t-24.5 54.5zM487 1327q0 33 24 56.5t56 23.5q35 0 57.5 -23.5t22.5 -56.5t-22.5 -55.5t-57.5 -22.5q-31 0 -55.5 22.5t-24.5 55.5zM489 -25q0 33 25 56.5t55 23.5q35 0 56.5 -22.5t21.5 -57.5 q0 -33 -20.5 -55t-55.5 -22q-33 0 -57.5 22.5t-24.5 54.5zM489 166q0 33 25 56.5t55 23.5q35 0 56.5 -23.5t21.5 -56.5q0 -35 -20.5 -56.5t-55.5 -21.5q-33 0 -57.5 21.5t-24.5 56.5zM662 557q0 33 22.5 56.5t56.5 23.5q31 0 54.5 -24.5t23.5 -55.5q0 -33 -22.5 -55.5 t-55.5 -22.5q-35 0 -57 22.5t-22 55.5zM666 1075q0 33 24.5 56.5t57.5 23.5t54 -24.5t21 -55.5q0 -35 -22.5 -57.5t-57.5 -22.5q-31 0 -54 23.5t-23 56.5zM676 231q0 33 23.5 56.5t56.5 23.5t55.5 -22.5t22.5 -57.5q0 -33 -23 -55t-55 -22q-33 0 -56.5 22.5t-23.5 54.5z M762 397q0 33 22.5 56.5t57.5 23.5q33 0 55.5 -23.5t22.5 -56.5q0 -31 -23.5 -55.5t-54.5 -24.5q-35 0 -57.5 24t-22.5 56z" />
<glyph unicode="%" horiz-adv-x="1673" d="M14 868v142q0 184 108.5 284.5t295.5 100.5q166 0 269.5 -82t125.5 -232l137 289h451l-275 -577q55 12 121 12q96 0 172 -27.5t128 -78t80 -121t28 -156.5v-141q0 -92 -29 -164t-83 -121t-129 -75.5t-167 -26.5q-162 0 -268.5 81.5t-128.5 231.5l-135 -289h-449l273 578 q-59 -12 -121 -13q-186 0 -295 99.5t-109 285.5zM96 868q0 -147 87 -225t235 -78q147 0 233 78t86 225v142q0 143 -86 223t-233 80t-234.5 -80t-87.5 -223v-142zM180 838q0 33 23.5 54t54.5 21t53.5 -21t22.5 -54q0 -35 -22.5 -55.5t-53.5 -20.5t-54.5 20.5t-23.5 55.5z M180 1051q0 35 23.5 56t54.5 21t53.5 -21t22.5 -56q0 -31 -22.5 -53.5t-53.5 -22.5t-54.5 22.5t-23.5 53.5zM334 700q0 31 22.5 53.5t55.5 22.5q31 0 53 -22.5t22 -53.5q0 -33 -22 -55t-53 -22q-33 0 -55.5 22.5t-22.5 54.5zM334 1188q0 35 22.5 56.5t55.5 21.5 q31 0 53 -21.5t22 -56.5q0 -29 -22.5 -52.5t-52.5 -23.5q-33 0 -55.5 23.5t-22.5 52.5zM385 864v146q0 61 33 61q31 0 31 -61v-146q0 -59 -31 -59q-33 0 -33 59zM395 0h269l608 1288h-271zM487 838q0 33 22.5 54t55.5 21q29 0 52.5 -21t23.5 -54q0 -35 -23.5 -55.5 t-52.5 -20.5q-33 0 -55.5 20.5t-22.5 55.5zM487 1051q0 35 22.5 56t55.5 21q29 0 52.5 -21t23.5 -56q0 -31 -23.5 -53.5t-52.5 -22.5q-33 0 -55.5 22.5t-22.5 53.5zM518 115q0 31 23.5 54.5t52.5 23.5q35 0 56.5 -23.5t21.5 -54.5q0 -33 -21.5 -54.5t-56.5 -21.5 q-31 0 -53.5 21.5t-22.5 54.5zM592 274q0 33 21.5 54.5t56.5 21.5q29 0 51 -21.5t22 -54.5t-22 -54t-51 -21q-35 0 -56.5 21.5t-21.5 53.5zM662 428q0 31 22.5 54.5t52.5 23.5q33 0 55.5 -23.5t22.5 -54.5q0 -35 -22.5 -56.5t-55.5 -21.5q-31 0 -53 21.5t-22 56.5zM733 582 q0 29 22.5 52t53.5 23q35 0 55.5 -23.5t20.5 -51.5q0 -35 -21.5 -56.5t-54.5 -21.5q-31 0 -53.5 22.5t-22.5 55.5zM805 735q0 31 20.5 53.5t55.5 22.5q33 0 55 -22.5t22 -53.5q0 -35 -22.5 -56.5t-54.5 -21.5q-35 0 -55.5 21.5t-20.5 56.5zM874 887q0 33 24 55.5t56 22.5 q29 0 52.5 -23.5t23.5 -54.5q0 -33 -24.5 -54.5t-53.5 -21.5q-33 0 -55.5 21.5t-22.5 54.5zM928 281q0 -147 88 -226.5t231 -79.5q147 0 236.5 79t89.5 227v141q0 135 -86 218t-240 83q-147 0 -233 -80t-86 -221v-141zM948 1040q0 31 21.5 54.5t54.5 23.5q31 0 53.5 -23.5 t22.5 -54.5q0 -35 -22.5 -55t-53.5 -20q-33 0 -54.5 20.5t-21.5 54.5zM1016 240q0 35 23.5 55t54.5 20t53 -21t22 -54q0 -31 -20.5 -53.5t-54.5 -22.5q-31 0 -54.5 22.5t-23.5 53.5zM1016 455q0 31 23.5 54t54.5 23t53 -24t22 -53q0 -31 -20.5 -53.5t-54.5 -22.5 q-31 0 -54.5 22.5t-23.5 53.5zM1016 1192q0 33 24.5 55.5t55.5 22.5q35 0 54 -22.5t19 -55.5q0 -31 -20.5 -53.5t-54.5 -22.5q-29 0 -53.5 22.5t-24.5 53.5zM1169 102q0 33 24 54.5t54 21.5q31 0 54.5 -22.5t23.5 -53.5q0 -33 -21.5 -55t-56.5 -22q-31 0 -54.5 22.5 t-23.5 54.5zM1169 592q0 33 24 55.5t54 22.5q31 0 54.5 -23.5t23.5 -54.5q0 -29 -21.5 -52.5t-56.5 -23.5q-31 0 -54.5 23.5t-23.5 52.5zM1217 274v148q0 61 30 61q35 0 35 -61v-141q0 -66 -35 -66q-31 0 -30 59zM1325 240q0 35 21.5 55t54.5 20q31 0 53.5 -21t22.5 -54 q0 -31 -21.5 -53.5t-54.5 -22.5t-54.5 22.5t-21.5 53.5zM1325 455q0 31 21.5 54t54.5 23q31 0 53.5 -24t22.5 -53q0 -31 -21.5 -53.5t-54.5 -22.5t-54.5 22.5t-21.5 53.5z" />
<glyph unicode="&#x26;" horiz-adv-x="1388" d="M20 375q0 250 213 407q-45 90 -45 197q0 94 35 171t96.5 131t145.5 84t182 30q94 0 176 -29t142.5 -81t95.5 -125t35 -161q0 -131 -76 -239l72 59l356 -370l-184 -146l137 -182l-416 -303l-127 159q-66 -43 -141.5 -63t-186.5 -20q-106 0 -199 35.5t-162 100t-109 152.5 t-40 193zM102 375q0 -86 34 -160t91.5 -127t135 -83t167.5 -30q121 0 200 30t144 87l125 -162l287 207l-137 180l176 140l-240 250l-151 -125l-98 112q178 125 178 305q0 70 -29 127.5t-78 98.5t-116.5 64.5t-143.5 23.5q-80 0 -149.5 -23.5t-119.5 -67.5t-79 -105.5 t-29 -137.5q0 -123 74 -221q-242 -143 -242 -383zM223 432q0 33 23.5 55.5t56.5 22.5q35 0 56.5 -22.5t21.5 -55.5t-21.5 -56.5t-56.5 -23.5q-33 0 -56.5 23.5t-23.5 56.5zM287 250q0 35 23.5 56.5t56.5 21.5t55 -22.5t22 -55.5t-21 -56.5t-56 -23.5q-33 0 -56.5 23.5 t-23.5 56.5zM336 1004q0 35 22.5 56t57.5 21q31 0 55.5 -22t24.5 -55t-25 -56.5t-57 -23.5q-33 0 -55.5 23.5t-22.5 56.5zM344 618q0 33 22.5 56.5t55.5 23.5q35 0 57.5 -23.5t22.5 -56.5q0 -35 -22.5 -56t-57.5 -21q-33 0 -55.5 21.5t-22.5 55.5zM428 834q0 35 25.5 59.5 t60.5 24.5q29 0 50.5 -30t21.5 -61q0 -29 -23.5 -50t-54.5 -21q-33 0 -56.5 22.5t-23.5 55.5zM457 156q0 33 22.5 56.5t57.5 23.5q33 0 55 -23.5t22 -56.5t-22.5 -55.5t-54.5 -22.5q-33 0 -56.5 23.5t-23.5 54.5zM461 1143q0 35 23.5 56.5t56.5 21.5q35 0 56 -22.5t21 -57.5 q0 -31 -22.5 -54.5t-54.5 -23.5q-33 0 -56.5 23.5t-23.5 56.5zM479 397q0 61 62 105l118 -150q-47 -35 -98 -35q-37 0 -59.5 22.5t-22.5 57.5zM551 670q0 33 22.5 55.5t55.5 22.5q31 0 55.5 -22.5t24.5 -55.5t-23.5 -56.5t-56.5 -23.5t-55.5 23.5t-22.5 56.5zM606 1006 q0 33 41 32q41 0 41 -32q0 -37 -51 -70q-31 43 -31 70zM662 1137q0 35 23.5 57.5t55.5 22.5q33 0 55.5 -23.5t22.5 -56.5t-21.5 -55.5t-56.5 -22.5q-33 0 -56 22.5t-23 55.5zM670 209q0 35 22.5 56.5t55.5 21.5t56 -21.5t23 -56.5q0 -33 -23.5 -56.5t-55.5 -23.5 q-33 0 -55.5 23.5t-22.5 56.5zM688 829q0 31 23.5 55.5t54.5 24.5q33 0 56.5 -23.5t23.5 -56.5t-23.5 -56t-56.5 -23t-55.5 23.5t-22.5 55.5zM692 494q0 33 22.5 56t57.5 23q33 0 56.5 -23t23.5 -56t-23.5 -56.5t-56.5 -23.5q-35 0 -57.5 23.5t-22.5 56.5zM786 997 q0 33 24 56.5t56 23.5q33 0 56.5 -23.5t23.5 -56.5t-24.5 -55t-55.5 -22q-33 0 -56.5 21.5t-23.5 55.5zM821 342q0 33 23.5 56.5t56.5 23.5q35 0 57.5 -23.5t22.5 -56.5t-23.5 -55.5t-56.5 -22.5t-56.5 21.5t-23.5 56.5zM963 168q0 33 23.5 56.5t55.5 23.5q33 0 55.5 -23.5 t22.5 -56.5t-23.5 -55.5t-54.5 -22.5q-33 0 -56 21.5t-23 56.5zM987 475q0 33 23.5 55.5t56.5 22.5t55.5 -22.5t22.5 -55.5t-22.5 -56.5t-55.5 -23.5t-56.5 23.5t-23.5 56.5z" />
<glyph unicode="'" horiz-adv-x="550" d="M37 582v788h475v-788h-475zM119 664h311v624h-311v-624zM199 811q0 33 21.5 55.5t55.5 22.5q33 0 56.5 -22.5t23.5 -55.5t-23.5 -56.5t-56.5 -23.5q-35 0 -56 23.5t-21 56.5zM199 985q0 35 21.5 56.5t55.5 21.5q33 0 56.5 -21.5t23.5 -56.5q0 -33 -23.5 -56.5 t-56.5 -23.5q-35 0 -56 23.5t-21 56.5zM199 1157q0 35 21.5 57.5t55.5 22.5q33 0 56.5 -22.5t23.5 -57.5q0 -33 -23.5 -55.5t-56.5 -22.5q-35 0 -56 22.5t-21 55.5z" />
<glyph unicode="(" horiz-adv-x="770" d="M49 612q0 207 88 433.5t289 449.5l395 -281q-141 -154 -206.5 -314.5t-65.5 -289.5q0 -131 64.5 -285.5t205.5 -314.5l-395 -282q-199 240 -287 457.5t-88 426.5zM131 612q0 -381 309 -772l262 187q-236 297 -235 583q0 285 235 588l-262 184q-309 -389 -309 -770z M217 623q0 33 22.5 56t55.5 23t56.5 -23t23.5 -56q0 -35 -23.5 -57.5t-56.5 -22.5t-55.5 22.5t-22.5 57.5zM244 428q0 33 22.5 56.5t57.5 23.5q33 0 55 -23.5t22 -56.5t-22.5 -55.5t-54.5 -22.5q-35 0 -57.5 22.5t-22.5 55.5zM244 817q0 33 22.5 56.5t57.5 23.5 q33 0 55 -23.5t22 -56.5t-22 -56.5t-55 -23.5q-35 0 -57.5 23.5t-22.5 56.5zM311 246q0 33 22.5 56.5t55.5 23.5t56.5 -23.5t23.5 -56.5t-23.5 -56.5t-56.5 -23.5t-55.5 23.5t-22.5 56.5zM311 999q0 33 22.5 56.5t55.5 23.5t56.5 -23.5t23.5 -56.5t-23.5 -56t-56.5 -23 t-55.5 23.5t-22.5 55.5zM410 76q0 35 21.5 57.5t55.5 22.5q31 0 55.5 -23.5t24.5 -56.5t-23.5 -56.5t-56.5 -23.5q-35 0 -56 23.5t-21 56.5zM410 1169q0 33 21.5 56.5t55.5 23.5q33 0 56.5 -23.5t23.5 -56.5t-24.5 -55t-55.5 -22q-35 0 -56 21.5t-21 55.5z" />
<glyph unicode=")" horiz-adv-x="770" d="M-53 1214l395 281q201 -223 289 -449.5t88 -433.5q0 -209 -88 -427t-287 -457l-395 282q141 160 205.5 314.5t64.5 285.5q0 129 -65.5 290t-206.5 314zM68 27l264 -187q307 389 307 772t-307 770l-264 -184q236 -297 235 -588q0 -293 -235 -583zM205 76q0 33 23.5 56.5 t54.5 23.5q35 0 57 -22.5t22 -57.5q0 -33 -22.5 -56.5t-56.5 -23.5q-33 0 -55.5 23.5t-22.5 56.5zM205 1169q0 33 22.5 56.5t55.5 23.5q35 0 57 -23.5t22 -56.5q0 -35 -22.5 -56t-56.5 -21q-31 0 -54.5 22.5t-23.5 54.5zM303 246q0 33 22.5 56.5t55.5 23.5t56.5 -23.5 t23.5 -56.5t-23.5 -56.5t-56.5 -23.5t-55.5 23.5t-22.5 56.5zM303 999q0 33 22.5 56.5t55.5 23.5t56.5 -23.5t23.5 -56.5t-23.5 -56t-56.5 -23t-55.5 23.5t-22.5 55.5zM369 428q0 33 23.5 56.5t56.5 23.5q35 0 57 -23.5t22 -56.5t-22.5 -55.5t-56.5 -22.5q-33 0 -56.5 22.5 t-23.5 55.5zM369 817q0 33 23.5 56.5t56.5 23.5q35 0 57 -23.5t22 -56.5t-22.5 -56.5t-56.5 -23.5q-33 0 -56.5 23.5t-23.5 56.5zM397 623q0 33 22.5 56t55.5 23t56.5 -23t23.5 -56q0 -35 -23.5 -57.5t-56.5 -22.5t-55.5 22.5t-22.5 57.5z" />
<glyph unicode="*" horiz-adv-x="1142" d="M-39 715l178 559l191 -119l-60 215h602l-57 -213l191 117l176 -557l-217 -10l168 -138l-474 -342l-86 209l-84 -209l-481 342l172 138zM72 793l327 -15l-254 -205l308 -219l118 301l123 -301l305 219l-256 205l330 15l-115 356l-280 -172l88 311h-387l86 -311l-279 172z M158 942q0 31 23.5 55.5t56.5 24.5t55 -23.5t22 -56.5t-22.5 -55.5t-54.5 -22.5q-35 0 -57.5 22.5t-22.5 55.5zM291 549q0 33 22.5 56.5t55.5 23.5t56.5 -23.5t23.5 -56.5t-24 -56.5t-56 -23.5q-33 0 -55.5 23.5t-22.5 56.5zM324 881q0 33 22.5 56.5t54.5 23.5 q35 0 57.5 -23.5t22.5 -56.5t-22.5 -56.5t-57.5 -23.5q-33 0 -55 23.5t-22 56.5zM385 686q0 33 23.5 56.5t56.5 23.5q35 0 56.5 -23.5t21.5 -56.5t-21.5 -55.5t-56.5 -22.5q-33 0 -56.5 22.5t-23.5 55.5zM489 1020q0 33 24 56.5t56 23.5q35 0 56.5 -23.5t21.5 -56.5 t-22.5 -56.5t-55.5 -23.5t-56.5 23.5t-23.5 56.5zM489 1194q0 35 24 57.5t56 22.5q33 0 55.5 -22.5t22.5 -57.5q0 -33 -22.5 -56.5t-55.5 -23.5t-56.5 23.5t-23.5 56.5zM498 838q0 35 21.5 57.5t55.5 22.5q33 0 56.5 -22.5t23.5 -57.5q0 -33 -23.5 -56.5t-56.5 -23.5 q-35 0 -56 23.5t-21 56.5zM598 692q0 33 23.5 55.5t56.5 22.5t55.5 -23.5t22.5 -54.5q0 -35 -21.5 -57.5t-56.5 -22.5q-33 0 -56.5 22.5t-23.5 57.5zM670 889q0 33 22.5 56.5t55.5 23.5t56 -23.5t23 -56.5t-24.5 -55.5t-54.5 -22.5q-33 0 -55.5 21.5t-22.5 56.5zM698 543 q0 33 22.5 56.5t55.5 23.5q35 0 57.5 -23.5t22.5 -56.5t-22.5 -55.5t-57.5 -22.5q-33 0 -55.5 22.5t-22.5 55.5zM836 948q0 33 23.5 55.5t55.5 22.5q35 0 56.5 -22.5t21.5 -55.5q0 -35 -21.5 -57.5t-56.5 -22.5q-33 0 -56 23.5t-23 56.5z" />
<glyph unicode="+" horiz-adv-x="1128" d="M16 422v434h344v342h435v-342h344v-434h-344v-344h-435v344h-344zM98 504h344v-344h271v344h344v270h-344v342h-271v-342h-344v-270zM150 643q0 33 22.5 56.5t54.5 23.5q33 0 56.5 -24.5t23.5 -55.5q0 -35 -22.5 -56.5t-57.5 -21.5q-33 0 -55 21.5t-22 56.5zM324 643 q0 33 22.5 56.5t54.5 23.5q33 0 56.5 -24.5t23.5 -55.5q0 -35 -22.5 -56.5t-57.5 -21.5q-33 0 -55 21.5t-22 56.5zM502 641q0 33 22.5 56.5t57.5 23.5q31 0 54 -24.5t23 -55.5q0 -35 -22.5 -56.5t-54.5 -21.5q-35 0 -57.5 21.5t-22.5 56.5zM504 291q0 33 22.5 56.5 t57.5 23.5q33 0 55.5 -23.5t22.5 -56.5q0 -31 -20.5 -55.5t-51.5 -24.5q-35 0 -60.5 23.5t-25.5 56.5zM504 465q0 33 22.5 55.5t57.5 22.5q33 0 55.5 -22.5t22.5 -55.5q0 -31 -23.5 -55.5t-54.5 -24.5q-35 0 -57.5 23.5t-22.5 56.5zM504 813q0 33 22.5 56.5t57.5 23.5 q33 0 55.5 -23.5t22.5 -56.5t-23.5 -55.5t-54.5 -22.5q-35 0 -57.5 21.5t-22.5 56.5zM504 987q0 33 22.5 56.5t57.5 23.5q33 0 55.5 -23.5t22.5 -56.5t-23.5 -55.5t-54.5 -22.5q-35 0 -57.5 21.5t-22.5 56.5zM672 643q0 33 23.5 56.5t56.5 23.5q31 0 54 -24.5t23 -55.5 q0 -35 -22.5 -56.5t-54.5 -21.5q-33 0 -56.5 21.5t-23.5 56.5zM846 643q0 33 23.5 56.5t56.5 23.5q31 0 54.5 -24.5t23.5 -55.5q0 -35 -23 -56.5t-55 -21.5q-33 0 -56.5 21.5t-23.5 56.5z" />
<glyph unicode="," horiz-adv-x="626" d="M-6 -168l127 727l522 -102l-194 -713zM88 -102l301 -60l152 555l-355 70zM180 -25q0 35 23.5 57.5t56.5 22.5t55.5 -22.5t22.5 -57.5q0 -33 -22.5 -55t-55.5 -22t-56.5 22.5t-23.5 54.5zM225 154q0 33 21.5 55t56.5 22q33 0 56.5 -22t23.5 -55q0 -35 -23.5 -57.5 t-56.5 -22.5q-35 0 -56.5 22.5t-21.5 57.5zM268 319q0 33 22.5 56.5t55.5 23.5q35 0 57.5 -23.5t22.5 -56.5t-22.5 -55t-57.5 -22q-33 0 -55.5 22.5t-22.5 54.5z" />
<glyph unicode="-" horiz-adv-x="839" d="M20 379v491h799v-491h-799zM102 461h635v327h-635v-327zM164 631q0 35 23.5 57.5t56.5 22.5q31 0 55.5 -23.5t24.5 -56.5t-24 -55.5t-56 -22.5q-33 0 -56.5 22.5t-23.5 55.5zM338 631q0 35 23.5 57.5t56.5 22.5t56.5 -23.5t23.5 -56.5t-22.5 -55.5t-57.5 -22.5 q-33 0 -56.5 22.5t-23.5 55.5zM512 631q0 35 23.5 57.5t56.5 22.5t55.5 -23.5t22.5 -56.5t-21.5 -55.5t-56.5 -22.5q-33 0 -56.5 22.5t-23.5 55.5z" />
<glyph unicode="." horiz-adv-x="622" d="M29 176q0 61 21.5 113.5t58 90.5t89 59.5t113.5 21.5t113.5 -21.5t89.5 -60.5t58.5 -90t21.5 -113q0 -129 -77 -205.5t-206 -76.5q-61 0 -113.5 20t-89 57t-58 89.5t-21.5 115.5zM111 176q0 -92 56 -146.5t144 -54.5q92 0 146.5 54.5t54.5 146.5q0 86 -56.5 144.5 t-144.5 58.5t-144 -57.5t-56 -145.5zM231 176q0 35 22.5 56.5t57.5 21.5q33 0 55.5 -21.5t22.5 -56.5q0 -33 -22.5 -56.5t-55.5 -23.5q-35 0 -57.5 23.5t-22.5 56.5z" />
<glyph unicode="/" horiz-adv-x="815" d="M-41 -102l391 1493h506l-381 -1493h-516zM66 -20h346l338 1329h-336zM199 150q0 35 23.5 57t56.5 22t55 -22.5t22 -56.5q0 -33 -22 -56.5t-55 -23.5q-31 0 -55.5 24.5t-24.5 55.5zM246 319q0 33 23.5 56.5t56.5 23.5q31 0 54 -24.5t23 -55.5q0 -33 -22.5 -55t-54.5 -22 q-33 0 -56.5 22.5t-23.5 54.5zM291 487q0 33 22.5 55.5t55.5 22.5t56.5 -21.5t23.5 -56.5q0 -33 -24 -56t-56 -23q-35 0 -56.5 23.5t-21.5 55.5zM336 655q0 33 22.5 56.5t55.5 23.5q35 0 57.5 -23.5t22.5 -56.5t-24 -56.5t-56 -23.5q-33 0 -55.5 24t-22.5 56zM379 823 q0 35 23.5 56.5t56.5 21.5t56.5 -21.5t23.5 -56.5q0 -33 -23.5 -56.5t-56.5 -23.5q-31 0 -55.5 24t-24.5 56zM426 993q0 33 22.5 55.5t57.5 22.5q31 0 54.5 -23.5t23.5 -54.5q0 -33 -22.5 -56.5t-55.5 -23.5q-35 0 -57.5 24t-22.5 56zM469 1159q0 33 24.5 56.5t55.5 23.5 q35 0 56.5 -22.5t21.5 -57.5q0 -33 -21.5 -55.5t-56.5 -22.5q-33 0 -56.5 22.5t-23.5 55.5z" />
<glyph unicode="0" horiz-adv-x="1134" d="M49 424v442q0 256 138.5 393.5t379.5 137.5q248 0 384 -137.5t136 -393.5v-442q0 -256 -136 -393t-384 -137q-242 0 -380 137t-138 393zM131 424q0 -217 115.5 -333t320.5 -116q209 0 324 116t115 333v442q0 217 -115 333t-324 116q-205 0 -320.5 -116t-115.5 -333v-442z M221 451q0 33 22.5 56t57.5 23q33 0 55.5 -23.5t22.5 -55.5q0 -33 -22.5 -56.5t-55.5 -23.5q-35 0 -57.5 23.5t-22.5 56.5zM221 631q0 33 22.5 56.5t57.5 23.5q33 0 55.5 -23.5t22.5 -56.5t-22.5 -55.5t-55.5 -22.5q-35 0 -57.5 22.5t-22.5 55.5zM221 811q0 35 22.5 57.5 t57.5 22.5q33 0 55.5 -22.5t22.5 -57.5q0 -33 -22.5 -55.5t-55.5 -22.5q-35 0 -57.5 22.5t-22.5 55.5zM264 279q0 35 23.5 57t56.5 22t55.5 -22.5t22.5 -56.5q0 -33 -22.5 -56.5t-55.5 -23.5t-56.5 23.5t-23.5 56.5zM264 989q0 33 23.5 56.5t56.5 23.5t55.5 -23.5 t22.5 -56.5q0 -35 -22.5 -57.5t-55.5 -22.5t-56.5 22.5t-23.5 57.5zM399 164q0 35 22.5 56.5t55.5 21.5q35 0 57.5 -21.5t22.5 -56.5q0 -31 -23.5 -55.5t-56.5 -24.5t-55.5 23.5t-22.5 56.5zM399 1104q0 33 22.5 56.5t55.5 23.5t56.5 -24.5t23.5 -55.5q0 -35 -22.5 -56.5 t-57.5 -21.5q-33 0 -55.5 21.5t-22.5 56.5zM469 422v444q0 47 26.5 80t71.5 33t71 -33t26 -80v-444q0 -49 -26 -81t-71 -32t-71.5 32t-26.5 81zM580 164q0 35 22.5 56.5t54.5 21.5q33 0 56.5 -21.5t23.5 -56.5q0 -31 -23.5 -55.5t-56.5 -24.5t-55 23.5t-22 56.5zM580 1104 q0 33 22.5 56.5t54.5 23.5q33 0 56.5 -24.5t23.5 -55.5q0 -35 -23.5 -56.5t-56.5 -21.5t-55 21.5t-22 56.5zM713 279q0 35 23.5 57t56.5 22t56 -22t23 -57q0 -33 -23.5 -56.5t-55.5 -23.5q-33 0 -56.5 23.5t-23.5 56.5zM713 989q0 33 23.5 56.5t56.5 23.5q31 0 55 -20.5 t24 -53.5q0 -31 -23 -58.5t-56 -27.5t-56.5 22.5t-23.5 57.5zM758 444q0 35 22.5 56.5t57.5 21.5q33 0 55 -21.5t22 -56.5q0 -33 -22 -56t-55 -23q-35 0 -57.5 23.5t-22.5 55.5zM758 625q0 35 22.5 57.5t57.5 22.5q33 0 55 -23t22 -57q0 -33 -22 -56.5t-55 -23.5 q-35 0 -57.5 23.5t-22.5 56.5zM758 807q0 33 22.5 56.5t57.5 23.5q33 0 55 -23.5t22 -56.5q0 -35 -22 -57.5t-55 -22.5q-35 0 -57.5 22.5t-22.5 57.5z" />
<glyph unicode="1" horiz-adv-x="747" d="M8 809v481l682 140v-1512h-534v924zM90 909l148 33v-942h370v1329l-518 -106v-314zM166 1098q0 33 22.5 56.5t57.5 23.5q33 0 56.5 -23.5t23.5 -56.5q0 -35 -23.5 -57.5t-56.5 -22.5t-56.5 23.5t-23.5 56.5zM352 176q0 33 23.5 55.5t56.5 22.5q35 0 56.5 -22.5 t21.5 -55.5t-21.5 -56.5t-56.5 -23.5q-33 0 -56.5 23.5t-23.5 56.5zM352 367q0 33 23.5 56t56.5 23q35 0 56.5 -23.5t21.5 -55.5q0 -35 -21.5 -57.5t-56.5 -22.5q-33 0 -56.5 22.5t-23.5 57.5zM352 555q0 33 23.5 56.5t56.5 23.5q35 0 56.5 -23.5t21.5 -56.5t-21.5 -55.5 t-56.5 -22.5q-33 0 -56.5 22.5t-23.5 55.5zM352 745q0 35 23.5 56.5t56.5 21.5q35 0 56.5 -21.5t21.5 -56.5q0 -33 -21.5 -56t-56.5 -23q-33 0 -56.5 23.5t-23.5 55.5zM352 936q0 33 23.5 56.5t56.5 23.5q35 0 56.5 -23.5t21.5 -56.5q0 -35 -21.5 -57.5t-56.5 -22.5 q-33 0 -56.5 22.5t-23.5 57.5zM352 1124q0 33 23.5 56.5t56.5 23.5q35 0 56.5 -23.5t21.5 -56.5t-21.5 -55t-56.5 -22q-33 0 -56.5 22.5t-23.5 54.5z" />
<glyph unicode="2" horiz-adv-x="1228" d="M-16 -18l491 739h-418q0 164 30 290t94.5 211t167 129t247.5 44q137 0 238.5 -36t169 -99.5t100.5 -153.5t33 -197q0 -94 -30 -174t-89 -160l-103 -137h287v-520h-1218v64zM88 0h1032v356h-370l202 269q102 133 103 284q0 88 -29 163t-85 128t-142 83t-203 30 q-123 0 -210 -34t-142.5 -98.5t-80 -159.5t-24.5 -218h369q0 98 19.5 134t68.5 36q41 0 59.5 -15.5t18.5 -52.5q0 -14 -10.5 -40.5t-32.5 -59.5zM266 918q0 33 23.5 55t56.5 22q35 0 56.5 -22.5t21.5 -54.5q0 -35 -21.5 -57.5t-56.5 -22.5q-33 0 -56.5 23.5t-23.5 56.5z M346 1075q0 33 22.5 56.5t55.5 23.5q35 0 57.5 -23.5t22.5 -56.5q0 -35 -22.5 -57.5t-57.5 -22.5q-31 0 -54.5 23.5t-23.5 56.5zM365 174q0 35 21.5 56.5t55.5 21.5q33 0 56.5 -22.5t23.5 -57.5q0 -31 -23.5 -54.5t-56.5 -23.5q-35 0 -56 23.5t-21 56.5zM455 322 q0 33 23.5 56t56.5 23t56 -23t23 -56q0 -35 -23.5 -57.5t-55.5 -22.5q-33 0 -56.5 22.5t-23.5 57.5zM520 1137q0 35 22.5 57.5t57.5 22.5q33 0 56.5 -22.5t23.5 -57.5q0 -33 -23.5 -55.5t-56.5 -22.5t-56.5 23.5t-23.5 54.5zM539 174q0 35 21.5 56.5t55.5 21.5 q33 0 56.5 -22.5t23.5 -57.5q0 -31 -24.5 -54.5t-55.5 -23.5q-35 0 -56 23.5t-21 56.5zM547 467q0 35 23.5 57.5t56.5 22.5q35 0 56.5 -22.5t21.5 -57.5q0 -33 -21.5 -55.5t-56.5 -22.5q-33 0 -56.5 23.5t-23.5 54.5zM641 616q0 33 22.5 55.5t57.5 22.5q33 0 55.5 -22.5 t22.5 -55.5t-23.5 -56t-56.5 -23t-55.5 23.5t-22.5 55.5zM694 1075q0 33 22.5 56.5t57.5 23.5q33 0 55.5 -23.5t22.5 -56.5q0 -35 -22.5 -57.5t-55.5 -22.5t-56.5 23.5t-23.5 56.5zM713 174q0 35 22.5 56.5t55.5 21.5t56 -22.5t23 -57.5q0 -31 -24.5 -54.5t-54.5 -23.5 q-33 0 -55.5 23.5t-22.5 56.5zM733 764q0 35 22.5 57.5t55.5 22.5q31 0 55.5 -23.5t24.5 -56.5t-23.5 -56.5t-56.5 -23.5t-55.5 23.5t-22.5 56.5zM793 928q0 33 23.5 55.5t55.5 22.5q33 0 55.5 -22.5t22.5 -55.5t-22.5 -56.5t-55.5 -23.5t-56 23.5t-23 56.5zM885 174 q0 35 23.5 56.5t56.5 21.5t56 -22.5t23 -57.5q0 -31 -23.5 -54.5t-55.5 -23.5q-33 0 -56.5 23.5t-23.5 56.5z" />
<glyph unicode="3" horiz-adv-x="1142" d="M25 539l407 53v227l-360 176q59 199 188 299.5t320 100.5q98 0 190 -33t165 -94.5t117 -147.5t44 -192q0 -135 -76 -246q53 -57 73.5 -119.5t20.5 -154.5q0 -121 -41 -216.5t-113.5 -162t-172 -101t-216.5 -34.5q-276 0 -411 168.5t-135 476.5zM106 467q0 -111 30 -201 t88.5 -154.5t145.5 -100.5t201 -36q98 0 182.5 30t147 85t97 135t34.5 183q0 92 -27.5 152.5t-99.5 117.5q53 43 81 110.5t28 139.5q0 88 -37 158.5t-98.5 120.5t-139 78t-159.5 28q-147 0 -254 -66.5t-154 -208.5l291 -141q12 41 42 69.5t77 28.5q33 0 58.5 -23.5 t25.5 -58.5t-14.5 -57t-36 -34.5t-49 -17.5t-52.5 -5v-277q29 0 57.5 -3t50 -14t35 -32.5t13.5 -58.5q0 -47 -24.5 -77t-74.5 -30q-37 0 -63.5 16.5t-44 42t-25.5 58.5t-8 65q0 16 2 21zM205 367q0 33 21.5 56t56.5 23q33 0 56 -23t23 -56q0 -35 -23.5 -57.5t-55.5 -22.5 q-35 0 -56.5 22.5t-21.5 57.5zM307 209q0 33 22.5 56.5t57.5 23.5q33 0 55.5 -23.5t22.5 -56.5q0 -35 -22.5 -56.5t-55.5 -21.5t-56.5 22.5t-23.5 55.5zM319 1075q0 31 23 55.5t53 24.5q35 0 58.5 -22.5t23.5 -57.5t-22.5 -57.5t-55.5 -22.5t-56.5 23.5t-23.5 56.5zM479 143 q0 33 24.5 55.5t55.5 22.5q35 0 56.5 -22.5t21.5 -55.5t-21.5 -56.5t-56.5 -23.5q-33 0 -56.5 24t-23.5 56zM494 1137q0 35 22.5 57.5t54.5 22.5q33 0 56.5 -22.5t23.5 -57.5q0 -33 -23.5 -55.5t-56.5 -22.5q-31 0 -54 23.5t-23 54.5zM584 637q0 33 23.5 55.5t56.5 22.5 q35 0 57 -22.5t22 -55.5q0 -35 -22.5 -57.5t-56.5 -22.5q-33 0 -56.5 22.5t-23.5 57.5zM664 188q0 33 22.5 55.5t56.5 22.5q33 0 55.5 -22.5t22.5 -55.5q0 -35 -22.5 -57t-55.5 -22q-35 0 -57 22.5t-22 56.5zM668 1075q0 33 22.5 56.5t54.5 23.5q35 0 57.5 -23.5t22.5 -56.5 q0 -35 -22.5 -57.5t-57.5 -22.5q-31 0 -54 23.5t-23 56.5zM705 764q0 35 23.5 57.5t55.5 22.5q33 0 55.5 -23.5t22.5 -56.5t-21.5 -56.5t-56.5 -23.5q-33 0 -56 23.5t-23 56.5zM721 512q0 35 21.5 57.5t56.5 22.5q33 0 56.5 -23.5t23.5 -56.5t-24 -55.5t-56 -22.5 q-35 0 -56.5 22.5t-21.5 55.5zM766 338q0 33 22.5 56.5t55.5 23.5q35 0 57.5 -23.5t22.5 -56.5q0 -35 -22.5 -56.5t-57.5 -21.5q-33 0 -55.5 21.5t-22.5 56.5zM766 928q0 33 22.5 55.5t55.5 22.5q35 0 57.5 -22.5t22.5 -55.5t-22.5 -56.5t-57.5 -23.5q-33 0 -55.5 23.5 t-22.5 56.5z" />
<glyph unicode="4" horiz-adv-x="1208" d="M25 246v409l538 715h486v-637h153v-487h-153v-328h-529v328h-495zM106 328h496v-328h365v328h153v323h-153v637h-363l-498 -659v-301zM186 479q0 33 23.5 56.5t56.5 23.5q35 0 57.5 -23.5t22.5 -56.5q0 -35 -22.5 -56.5t-57.5 -21.5q-33 0 -56.5 21.5t-23.5 56.5z M233 659q0 33 24 55.5t56 22.5q33 0 55.5 -22.5t22.5 -55.5q0 -35 -22.5 -57t-55.5 -22t-56.5 22.5t-23.5 56.5zM342 795q0 31 23.5 55t56.5 24q35 0 56.5 -23.5t21.5 -55.5q0 -35 -21.5 -57.5t-56.5 -22.5q-33 0 -56.5 22.5t-23.5 57.5zM360 479q0 33 24 56.5t56 23.5 q35 0 56.5 -23.5t21.5 -56.5q0 -35 -21.5 -56.5t-56.5 -21.5q-33 0 -56.5 21.5t-23.5 56.5zM453 930q0 33 22.5 55.5t54.5 22.5q33 0 56.5 -22.5t23.5 -55.5t-23.5 -56.5t-56.5 -23.5t-55 23.5t-22 56.5zM506 651l106 129v-129h-106zM537 479q0 33 21.5 56.5t55.5 23.5 q33 0 56.5 -23.5t23.5 -56.5q0 -35 -23.5 -56.5t-56.5 -21.5q-35 0 -56 21.5t-21 56.5zM561 1065q0 33 23.5 56.5t56.5 23.5t56.5 -24.5t23.5 -55.5q0 -33 -22.5 -56.5t-57.5 -23.5q-33 0 -56.5 23.5t-23.5 56.5zM711 131q0 35 22.5 56.5t54.5 21.5q33 0 56.5 -21.5 t23.5 -56.5q0 -33 -23.5 -56.5t-56.5 -23.5t-55 23.5t-22 56.5zM711 305q0 35 22.5 56.5t54.5 21.5q33 0 56.5 -21.5t23.5 -56.5q0 -33 -23.5 -56.5t-56.5 -23.5t-55 23.5t-22 56.5zM711 479q0 33 22.5 56.5t54.5 23.5q33 0 56.5 -23.5t23.5 -56.5q0 -35 -23.5 -56.5 t-56.5 -21.5t-55 21.5t-22 56.5zM711 653q0 33 22.5 56.5t54.5 23.5q33 0 56.5 -23.5t23.5 -56.5q0 -35 -23.5 -56.5t-56.5 -21.5t-55 21.5t-22 56.5zM711 827q0 33 22.5 56.5t54.5 23.5q33 0 56.5 -23.5t23.5 -56.5t-23.5 -56t-56.5 -23t-55 23.5t-22 55.5zM711 1001 q0 35 22.5 57.5t54.5 22.5q33 0 56.5 -22.5t23.5 -57.5q0 -33 -23.5 -56t-56.5 -23t-55 23.5t-22 55.5zM711 1176q0 35 22.5 56t54.5 21q33 0 56.5 -21t23.5 -56q0 -33 -23.5 -56.5t-56.5 -23.5t-55 23.5t-22 56.5zM885 479q0 33 22.5 56.5t55.5 23.5t56 -23.5t23 -56.5 q0 -35 -23.5 -56.5t-55.5 -21.5q-33 0 -55.5 21.5t-22.5 56.5z" />
<glyph unicode="5" horiz-adv-x="1062" d="M0 291l260 94h-227v985h989v-506h-188q98 -68 152 -180.5t54 -247.5q0 -119 -37.5 -218t-108.5 -172t-173.5 -112.5t-231.5 -39.5q-102 0 -179 25.5t-135 75.5t-100 125t-75 171zM109 242q53 -125 140 -196t240 -71q111 0 198 34t147.5 95.5t92 145.5t31.5 186 q0 90 -28.5 168t-79.5 136.5t-123 91t-160 32.5q-49 0 -125 -16v98h498v342h-825v-821h297q10 35 29.5 52.5t56.5 17.5q86 0 86 -111q0 -47 -18.5 -78t-59.5 -31q-31 0 -48.5 13.5t-23.5 29.5zM201 600q0 33 23.5 56.5t56.5 23.5t55 -23.5t22 -56.5q0 -35 -22.5 -56.5 t-54.5 -21.5q-33 0 -56.5 21.5t-23.5 56.5zM201 774q0 33 23.5 56.5t56.5 23.5t55 -23.5t22 -56.5t-22 -56.5t-55 -23.5t-56.5 23.5t-23.5 56.5zM201 948q0 33 23.5 55.5t56.5 22.5t55 -22.5t22 -55.5t-22 -56.5t-55 -23.5t-56.5 23.5t-23.5 56.5zM201 1122q0 35 23.5 56.5 t56.5 21.5t55 -21.5t22 -56.5q0 -33 -22 -56.5t-55 -23.5t-56.5 24t-23.5 56zM297 190q0 33 23.5 56.5t56.5 23.5t55.5 -23.5t22.5 -56.5t-22.5 -55t-55.5 -22t-56.5 22.5t-23.5 54.5zM354 682q0 33 22.5 56.5t55.5 23.5t56.5 -23.5t23.5 -56.5q0 -35 -22.5 -56.5 t-57.5 -21.5q-33 0 -55.5 21.5t-22.5 56.5zM375 1122q0 35 23.5 56.5t56.5 21.5q35 0 56 -21.5t21 -56.5q0 -33 -21 -56.5t-56 -23.5q-33 0 -56.5 24t-23.5 56zM465 162q0 33 21.5 56.5t56.5 23.5q33 0 56.5 -23.5t23.5 -56.5q0 -35 -24 -57.5t-56 -22.5q-35 0 -56.5 22.5 t-21.5 57.5zM528 672q0 33 21.5 56.5t56.5 23.5q31 0 55.5 -23.5t24.5 -56.5t-23.5 -55.5t-56.5 -22.5q-35 0 -56.5 22.5t-21.5 55.5zM549 1122q0 35 22.5 56.5t55.5 21.5q35 0 57.5 -21.5t22.5 -56.5q0 -33 -22.5 -56.5t-57.5 -23.5q-33 0 -55.5 24t-22.5 56zM621 248 q0 35 23.5 57.5t55.5 22.5q33 0 55.5 -22.5t22.5 -57.5q0 -33 -22.5 -56.5t-55.5 -23.5t-56 24.5t-23 55.5zM657 563q0 33 22.5 55.5t55.5 22.5t56.5 -22.5t23.5 -55.5t-24.5 -56.5t-55.5 -23.5q-33 0 -55.5 22.5t-22.5 57.5zM686 399q0 33 22.5 56.5t57.5 23.5 q33 0 55.5 -23.5t22.5 -56.5t-23.5 -56.5t-54.5 -23.5q-35 0 -57.5 24t-22.5 56zM723 1122q0 35 22.5 56.5t57.5 21.5q33 0 56.5 -21.5t23.5 -56.5q0 -33 -23.5 -56.5t-56.5 -23.5q-35 0 -57.5 24t-22.5 56z" />
<glyph unicode="6" horiz-adv-x="1118" d="M12 422q0 92 41 207.5t119 236.5l330 504h608v-51l-305 -442q141 -51 216 -173t75 -288q0 -117 -41 -213.5t-113 -165t-171 -106t-216 -37.5t-216 37.5t-172 107.5t-114 167t-41 216zM94 422q0 -100 35 -182t97.5 -140.5t146.5 -91.5t182 -33t182 32t145.5 90.5t96.5 139 t35 179.5q0 172 -91.5 282.5t-256.5 124.5l321 465h-440l-305 -467q-147 -227 -148 -399zM205 403q0 33 23.5 55.5t56.5 22.5t56.5 -23.5t23.5 -54.5q0 -35 -24 -57t-58 -22q-33 0 -55.5 22.5t-22.5 56.5zM246 567q0 35 23.5 57.5t56.5 22.5q35 0 56 -22.5t21 -57.5 q0 -33 -21.5 -55.5t-55.5 -22.5q-33 0 -56.5 24t-23.5 54zM279 244q0 33 21.5 56.5t55.5 23.5q33 0 56.5 -23.5t23.5 -56.5q0 -35 -23.5 -56.5t-56.5 -21.5q-35 0 -56 21.5t-21 56.5zM336 717q0 33 22.5 56.5t57.5 23.5q33 0 56.5 -23.5t23.5 -56.5q0 -35 -23.5 -56.5 t-56.5 -21.5q-35 0 -57.5 21.5t-22.5 56.5zM426 156q0 33 23.5 56.5t56.5 23.5q35 0 56.5 -23.5t21.5 -56.5q0 -31 -22.5 -54.5t-55.5 -23.5t-56.5 22.5t-23.5 55.5zM426 866q0 33 23.5 56.5t56.5 23.5t55.5 -23.5t22.5 -56.5t-21.5 -55.5t-56.5 -22.5q-33 0 -56.5 23 t-23.5 55zM465 416q0 43 24.5 72.5t65.5 29.5q43 0 66.5 -29.5t23.5 -72.5q0 -41 -24.5 -72t-65.5 -31t-65.5 30t-24.5 73zM500 684q0 35 23.5 57.5t56.5 22.5q35 0 56 -22.5t21 -57.5q0 -33 -21.5 -55.5t-55.5 -22.5q-31 0 -55.5 23.5t-24.5 54.5zM516 1016q0 33 21.5 56.5 t56.5 23.5q33 0 56.5 -23.5t23.5 -56.5q0 -35 -23.5 -56.5t-56.5 -21.5q-35 0 -56.5 21.5t-21.5 56.5zM594 180q0 33 22.5 56.5t57.5 23.5q33 0 56.5 -23.5t23.5 -56.5t-24.5 -55.5t-55.5 -22.5q-35 0 -57.5 22.5t-22.5 55.5zM604 1165q0 33 23.5 55.5t56.5 22.5t56.5 -22.5 t23.5 -55.5q0 -31 -23.5 -55.5t-56.5 -24.5t-56.5 24t-23.5 56zM666 614q0 33 22.5 56.5t54.5 23.5q31 0 55.5 -23.5t24.5 -56.5t-23.5 -56t-56.5 -23t-55 23.5t-22 55.5zM709 307q0 33 23.5 55.5t55.5 22.5q33 0 56.5 -22.5t23.5 -55.5q0 -35 -24.5 -57.5t-57.5 -22.5 q-31 0 -54 23.5t-23 56.5zM737 467q0 35 23.5 56.5t56.5 21.5q35 0 56.5 -21.5t21.5 -56.5q0 -33 -21.5 -56.5t-56.5 -23.5q-33 0 -56.5 23.5t-23.5 56.5z" />
<glyph unicode="7" horiz-adv-x="1118" d="M2 -49l397 913h-381v506h1127v-39l-565 -1413h-578v33zM100 946h424l-411 -946h411l523 1288h-947v-342zM178 1106q0 31 24.5 55.5t55.5 24.5q33 0 55.5 -23.5t22.5 -56.5t-22.5 -56.5t-55.5 -23.5t-56.5 23.5t-23.5 56.5zM295 145q0 33 23.5 56.5t56.5 23.5t56.5 -23.5 t23.5 -56.5t-24.5 -55t-55.5 -22q-33 0 -56.5 21.5t-23.5 55.5zM352 1106q0 31 23.5 55.5t56.5 24.5t55.5 -23.5t22.5 -56.5t-22.5 -56.5t-55.5 -23.5t-56.5 23.5t-23.5 56.5zM365 307q0 35 21.5 56.5t55.5 21.5q33 0 56.5 -22.5t23.5 -55.5t-23.5 -56.5t-56.5 -23.5 q-35 0 -56 23.5t-21 56.5zM432 467q0 35 22.5 56.5t55.5 21.5t56.5 -22.5t23.5 -55.5t-23.5 -56.5t-56.5 -23.5t-55.5 23.5t-22.5 56.5zM500 627q0 35 22.5 56.5t57.5 21.5q33 0 55 -21.5t22 -56.5q0 -33 -22 -56.5t-55 -23.5q-35 0 -57.5 23.5t-22.5 56.5zM526 1106 q0 31 23.5 55.5t54.5 24.5q35 0 57.5 -23.5t22.5 -56.5t-22.5 -56.5t-57.5 -23.5q-33 0 -55.5 23.5t-22.5 56.5zM567 786q0 35 23.5 57.5t56.5 22.5q35 0 56.5 -22.5t21.5 -57.5q0 -31 -22.5 -55t-55.5 -24t-56.5 23.5t-23.5 55.5zM637 948q0 33 22.5 55.5t55.5 22.5 q31 0 55.5 -23.5t24.5 -54.5q0 -33 -23.5 -56.5t-56.5 -23.5t-55.5 23.5t-22.5 56.5zM702 1108q0 33 24 56.5t56 23.5q33 0 56.5 -24.5t23.5 -55.5q0 -33 -22.5 -56.5t-57.5 -23.5q-33 0 -56.5 23.5t-23.5 56.5z" />
<glyph unicode="8" horiz-adv-x="1165" d="M35 403q0 168 90 281q-66 102 -66 236q0 102 39 189t108.5 150.5t165 99.5t208.5 36q111 0 207 -34t166.5 -96.5t110.5 -150.5t40 -194q0 -135 -66 -238q90 -115 90 -279q0 -242 -134 -375.5t-410 -133.5t-412.5 136t-136.5 373zM117 403q0 -199 115.5 -313.5 t351.5 -114.5t349.5 113t113.5 315q0 177 -119 275q94 88 94 242q0 88 -34 160.5t-93 123.5t-140 80t-175 29q-96 0 -176 -30t-138.5 -82t-91.5 -123.5t-33 -157.5q0 -152 95 -240q-119 -100 -119 -277zM207 412q0 33 22.5 55t55.5 22t56.5 -21t23.5 -56q0 -33 -24 -56.5 t-56 -23.5q-35 0 -56.5 23.5t-21.5 56.5zM258 569q0 35 22.5 57.5t55.5 22.5t56.5 -23.5t23.5 -56.5t-23.5 -56.5t-56.5 -23.5t-55.5 24t-22.5 56zM260 252q0 35 22.5 57.5t57.5 22.5q33 0 56.5 -22.5t23.5 -57.5q0 -33 -23.5 -55.5t-56.5 -22.5t-56.5 22.5t-23.5 55.5z M262 862q0 35 25.5 58.5t58.5 23.5q31 0 53.5 -28.5t22.5 -59.5t-25.5 -52.5t-54.5 -21.5q-35 0 -57.5 23.5t-22.5 56.5zM276 1036q0 33 24 55.5t56 22.5q31 0 54.5 -23.5t23.5 -54.5q0 -35 -23.5 -57.5t-56.5 -22.5t-55.5 22.5t-22.5 57.5zM346 719q0 33 22.5 56.5 t55.5 23.5q35 0 57.5 -23.5t22.5 -56.5q0 -35 -23.5 -57.5t-56.5 -22.5t-55.5 23.5t-22.5 56.5zM397 156q0 33 22.5 56.5t55.5 23.5t56.5 -23.5t23.5 -56.5t-23.5 -55.5t-56.5 -22.5t-55.5 23.5t-22.5 54.5zM418 1143q0 35 23.5 56.5t56.5 21.5t55 -22.5t22 -57.5 q0 -31 -23.5 -54.5t-53.5 -23.5q-33 0 -56.5 23.5t-23.5 56.5zM483 416q0 47 27 76.5t74 29.5q96 0 96 -106q0 -47 -25.5 -78t-70.5 -31q-47 0 -74 31t-27 78zM487 909q0 41 28 65.5t69 24.5q47 0 69.5 -25.5t22.5 -66.5q0 -43 -25.5 -67.5t-66.5 -24.5t-69 26.5t-28 67.5z M508 668q0 35 22.5 57.5t55.5 22.5q35 0 57.5 -22.5t22.5 -57.5q0 -33 -24 -56.5t-58 -23.5q-31 0 -53.5 24.5t-22.5 55.5zM586 1137q0 35 23.5 57.5t56.5 22.5t55 -23.5t22 -56.5t-21.5 -55.5t-55.5 -22.5q-33 0 -56.5 22.5t-23.5 55.5zM604 156q0 33 22.5 56.5t55.5 23.5 q35 0 57.5 -23.5t22.5 -56.5q0 -31 -23.5 -54.5t-56.5 -23.5t-55.5 22.5t-22.5 55.5zM670 721q0 33 23.5 56.5t56.5 23.5t56 -23.5t23 -56.5q0 -35 -23.5 -57.5t-55.5 -22.5q-33 0 -56.5 22.5t-23.5 57.5zM727 1028q0 33 23.5 56.5t56.5 23.5t55.5 -23.5t22.5 -56.5 q0 -31 -22.5 -54.5t-55.5 -23.5t-56.5 22.5t-23.5 55.5zM741 252q0 33 22.5 56.5t55.5 23.5t56.5 -22.5t23.5 -57.5q0 -33 -23.5 -55.5t-56.5 -22.5q-35 0 -56.5 22.5t-21.5 55.5zM743 569q0 33 24 56.5t54 23.5q35 0 57.5 -22.5t22.5 -57.5q0 -33 -22.5 -56.5t-57.5 -23.5 q-33 0 -55.5 24t-22.5 56zM766 866q0 35 23.5 55.5t56.5 20.5t56.5 -21.5t23.5 -56.5q0 -31 -23.5 -55.5t-56.5 -24.5t-56.5 25t-23.5 57zM797 412q0 35 21.5 56t55.5 21q33 0 56.5 -21t23.5 -56q0 -33 -23.5 -56.5t-56.5 -23.5q-35 0 -56 23.5t-21 56.5z" />
<glyph unicode="9" horiz-adv-x="1128" d="M10 -35l305 447q-137 49 -213.5 168.5t-76.5 291.5q0 113 40.5 209.5t112.5 166t172.5 108.5t216.5 39q115 0 214.5 -38t172 -107.5t113.5 -166t41 -215.5q0 -205 -158 -446l-329 -504h-611v47zM106 872q0 -174 93.5 -284.5t255.5 -122.5l-322 -465h442l306 467 q145 223 145 401q0 100 -35 182.5t-96 140.5t-145 90t-183 32q-100 0 -184 -33t-145.5 -91.5t-96.5 -139t-35 -177.5zM225 821q0 33 22.5 55.5t55.5 22.5t56.5 -22.5t23.5 -55.5t-22.5 -56.5t-57.5 -23.5q-33 0 -55.5 23.5t-22.5 56.5zM254 983q0 33 23.5 55.5t56.5 22.5 t55.5 -22.5t22.5 -55.5t-22.5 -56.5t-55.5 -23.5t-56.5 23.5t-23.5 56.5zM297 674q0 33 22.5 56.5t57.5 23.5q33 0 55.5 -23.5t22.5 -56.5q0 -35 -22.5 -56.5t-55.5 -21.5q-35 0 -57.5 21.5t-22.5 56.5zM358 123q0 35 22.5 56.5t57.5 21.5q31 0 55.5 -22.5t24.5 -55.5 t-24.5 -56.5t-57.5 -23.5q-35 0 -56.5 23.5t-21.5 56.5zM369 1108q0 33 23.5 56.5t56.5 23.5q31 0 55 -24.5t24 -55.5q0 -35 -23.5 -57.5t-55.5 -22.5q-33 0 -56.5 22.5t-23.5 57.5zM446 272q0 33 24 55.5t56 22.5q33 0 55.5 -22.5t22.5 -55.5t-22.5 -56t-55.5 -23 t-56.5 23.5t-23.5 55.5zM461 602q0 33 23.5 56.5t56.5 23.5q35 0 56 -22.5t21 -57.5q0 -33 -21 -56.5t-56 -23.5q-33 0 -56.5 23.5t-23.5 56.5zM475 872q0 41 24.5 71t65.5 30t66.5 -30t25.5 -71q0 -43 -25.5 -72.5t-66.5 -29.5t-65.5 29.5t-24.5 72.5zM539 420 q0 35 21.5 57.5t55.5 22.5q33 0 56.5 -22.5t23.5 -57.5q0 -31 -24.5 -55.5t-55.5 -24.5q-35 0 -56 23.5t-21 56.5zM539 1130q0 35 21.5 57.5t55.5 22.5q31 0 55.5 -23.5t24.5 -56.5t-23.5 -56t-56.5 -23q-35 0 -56 23.5t-21 55.5zM627 571q0 33 23.5 56.5t56.5 23.5 q31 0 54 -24.5t23 -55.5q0 -35 -23.5 -57t-55.5 -22q-33 0 -55.5 22.5t-22.5 56.5zM684 1044q0 33 24.5 56.5t57.5 23.5t55.5 -23.5t22.5 -56.5t-23.5 -56t-56.5 -23q-31 0 -55.5 23.5t-24.5 55.5zM715 719q0 35 23.5 57.5t56.5 22.5q35 0 56 -22.5t21 -57.5 q0 -33 -21 -56.5t-56 -23.5q-33 0 -56.5 23.5t-23.5 56.5zM756 887q0 33 23.5 55.5t56.5 22.5q35 0 57 -22.5t22 -55.5t-23.5 -56.5t-55.5 -23.5q-33 0 -56.5 23.5t-23.5 56.5z" />
<glyph unicode=":" horiz-adv-x="671" d="M51 299q0 61 21.5 113.5t59.5 90.5t90 59.5t114 21.5q61 0 113.5 -21.5t89 -60.5t58 -90.5t21.5 -112.5q0 -129 -76.5 -205t-205.5 -76q-125 0 -205 76t-80 205zM51 920q0 61 21.5 113t59.5 90t90 59.5t114 21.5q61 0 113.5 -21.5t89 -60.5t58 -90t21.5 -112 q0 -129 -76.5 -206t-205.5 -77q-125 0 -205 77t-80 206zM133 299q0 -92 55.5 -145.5t147.5 -53.5t146.5 53.5t54.5 145.5q0 86 -56.5 144.5t-144.5 58.5q-92 0 -147.5 -57.5t-55.5 -145.5zM133 920q0 -92 55.5 -146.5t147.5 -54.5t146.5 54t54.5 147q0 86 -56.5 144 t-144.5 58q-92 0 -147.5 -57t-55.5 -145zM256 299q0 35 22.5 57.5t57.5 22.5q33 0 55.5 -22.5t22.5 -57.5q0 -33 -22.5 -55.5t-55.5 -22.5q-35 0 -57.5 22.5t-22.5 55.5zM256 920q0 35 22.5 56t57.5 21q33 0 55.5 -21.5t22.5 -55.5q0 -33 -22.5 -56.5t-55.5 -23.5 q-35 0 -57.5 23.5t-22.5 56.5z" />
<glyph unicode=";" horiz-adv-x="663" d="M-6 -168l127 727l522 -102l-194 -713zM61 846q0 61 21.5 113.5t59.5 90t90.5 59t113.5 21.5t113.5 -21.5t89.5 -59t58.5 -90t21.5 -113.5q0 -129 -77 -205t-206 -76q-125 0 -205 76t-80 205zM88 -102l301 -60l152 555l-355 70zM143 846q0 -92 55.5 -145.5t147.5 -53.5 t146.5 53.5t54.5 145.5q0 88 -56.5 145.5t-144.5 57.5q-92 0 -147.5 -57.5t-55.5 -145.5zM180 -25q0 35 23.5 57.5t56.5 22.5t55.5 -22.5t22.5 -57.5q0 -33 -22.5 -55t-55.5 -22t-56.5 22.5t-23.5 54.5zM225 154q0 33 21.5 55t56.5 22q33 0 56.5 -22t23.5 -55 q0 -35 -23.5 -57.5t-56.5 -22.5q-35 0 -56.5 22.5t-21.5 57.5zM266 846q0 35 22.5 57.5t57.5 22.5q33 0 55.5 -22.5t22.5 -57.5q0 -33 -22.5 -55.5t-55.5 -22.5q-35 0 -57.5 22.5t-22.5 55.5zM268 319q0 33 22.5 56.5t55.5 23.5q35 0 57.5 -23.5t22.5 -56.5t-22.5 -55 t-57.5 -22q-33 0 -55.5 22.5t-22.5 54.5z" />
<glyph unicode="&#x3c;" horiz-adv-x="1243" d="M14 461v397l1215 471v-467l-514 -203l514 -200v-471zM96 516l1051 -410v297l-655 259l655 256v292l-1051 -407v-287zM133 657q0 35 22.5 57.5t57.5 22.5q33 0 56.5 -22.5t23.5 -57.5q0 -33 -23.5 -56t-56.5 -23t-56.5 24.5t-23.5 54.5zM287 575q0 33 23.5 55.5t56.5 22.5 t55 -22.5t22 -55.5q0 -35 -22 -57t-55 -22t-56.5 23.5t-23.5 55.5zM287 745q0 31 23.5 54.5t56.5 23.5t55 -22.5t22 -55.5t-22 -56t-55 -23t-56.5 23.5t-23.5 55.5zM449 510q0 33 22.5 55.5t56.5 22.5q33 0 55.5 -22.5t22.5 -55.5t-22.5 -56.5t-55.5 -23.5q-35 0 -57 23.5 t-22 56.5zM449 811q0 33 22.5 55.5t56.5 22.5q33 0 55.5 -22.5t22.5 -55.5q0 -35 -22.5 -57.5t-55.5 -22.5q-35 0 -57 22.5t-22 57.5zM610 444q0 33 23.5 55.5t56.5 22.5t55.5 -21.5t22.5 -56.5q0 -33 -22.5 -56t-55.5 -23q-35 0 -57.5 23.5t-22.5 55.5zM610 874 q0 35 22.5 56.5t57.5 21.5q33 0 55.5 -21.5t22.5 -56.5q0 -33 -22.5 -56t-55.5 -23t-56.5 24.5t-23.5 54.5zM770 381q0 31 24.5 54.5t55.5 23.5q35 0 56.5 -22.5t21.5 -55.5q0 -35 -21.5 -57.5t-56.5 -22.5q-33 0 -56.5 22.5t-23.5 57.5zM770 940q0 35 23.5 56.5t56.5 21.5 q35 0 56.5 -21.5t21.5 -56.5q0 -33 -21.5 -56.5t-56.5 -23.5q-31 0 -55.5 23.5t-24.5 56.5zM932 313q0 33 23.5 56.5t56.5 23.5q35 0 56.5 -23.5t21.5 -56.5t-21.5 -56.5t-56.5 -23.5q-33 0 -56.5 24t-23.5 56zM932 1006q0 33 23.5 56t56.5 23q35 0 56.5 -23t21.5 -56 t-21.5 -55.5t-56.5 -22.5q-33 0 -56.5 22.5t-23.5 55.5z" />
<glyph unicode="=" horiz-adv-x="1155" d="M16 182v432h1123v-432h-1123zM16 664v434h1123v-434h-1123zM98 264h959v268h-959v-268zM98 745h959v271h-959v-271zM150 401q0 33 22.5 55.5t54.5 22.5q33 0 56.5 -23.5t23.5 -54.5q0 -35 -22.5 -57t-57.5 -22q-33 0 -55 22.5t-22 56.5zM150 883q0 33 22.5 56.5 t54.5 23.5q33 0 56.5 -24.5t23.5 -55.5q0 -35 -22.5 -57.5t-57.5 -22.5q-33 0 -55 22.5t-22 57.5zM324 401q0 33 22.5 55.5t54.5 22.5q33 0 56.5 -23.5t23.5 -54.5q0 -35 -22.5 -57t-57.5 -22q-33 0 -55 22.5t-22 56.5zM324 883q0 33 22.5 56.5t54.5 23.5q33 0 56.5 -24.5 t23.5 -55.5q0 -35 -22.5 -57.5t-57.5 -22.5q-33 0 -55 22.5t-22 57.5zM498 401q0 33 22.5 55.5t57.5 22.5q31 0 55 -23.5t24 -54.5q0 -35 -23.5 -57t-55.5 -22q-35 0 -57.5 22.5t-22.5 56.5zM498 883q0 33 22.5 56.5t57.5 23.5q31 0 55 -24.5t24 -55.5q0 -35 -23.5 -57.5 t-55.5 -22.5q-35 0 -57.5 22.5t-22.5 57.5zM672 401q0 33 23.5 55.5t56.5 22.5q31 0 54 -23.5t23 -54.5q0 -35 -22 -57t-55 -22t-56.5 22.5t-23.5 56.5zM672 883q0 33 23.5 56.5t56.5 23.5q31 0 54 -25t23 -55q0 -35 -22 -57.5t-55 -22.5t-56.5 22.5t-23.5 57.5zM846 401 q0 33 23.5 55.5t56.5 22.5q31 0 54.5 -23.5t23.5 -54.5q0 -35 -22.5 -57t-55.5 -22t-56.5 22.5t-23.5 56.5zM846 883q0 33 23.5 56.5t56.5 23.5q31 0 54.5 -25t23.5 -55q0 -35 -22.5 -57.5t-55.5 -22.5t-56.5 22.5t-23.5 57.5z" />
<glyph unicode="&#x3e;" horiz-adv-x="1261" d="M20 -12v471l515 203l-515 200v467l1219 -471v-397zM102 106l1055 410v287l-1055 407v-292l656 -256l-656 -259v-297zM160 313q0 33 23.5 56.5t56.5 23.5q35 0 56 -23.5t21 -56.5t-21 -56.5t-56 -23.5q-33 0 -56.5 24t-23.5 56zM160 1006q0 33 23.5 56t56.5 23 q35 0 56 -23t21 -56t-21.5 -55.5t-55.5 -22.5q-33 0 -56.5 22.5t-23.5 55.5zM322 381q0 31 23.5 54.5t53.5 23.5q33 0 56.5 -22.5t23.5 -55.5q0 -35 -23.5 -57.5t-56.5 -22.5t-55 22.5t-22 57.5zM322 940q0 35 22.5 56.5t54.5 21.5q33 0 56.5 -21.5t23.5 -56.5 q0 -33 -23.5 -56.5t-56.5 -23.5q-31 0 -54 23.5t-23 56.5zM483 444q0 33 23.5 55.5t54.5 22.5q33 0 56.5 -21.5t23.5 -56.5q0 -33 -23.5 -56t-56.5 -23t-55.5 23.5t-22.5 55.5zM483 874q0 35 22.5 56.5t55.5 21.5t56.5 -21.5t23.5 -56.5q0 -33 -23.5 -56t-56.5 -23 q-31 0 -54.5 24.5t-23.5 54.5zM645 510q0 33 21.5 55.5t56.5 22.5q33 0 56.5 -22.5t23.5 -55.5t-23.5 -56.5t-56.5 -23.5q-35 0 -56.5 23.5t-21.5 56.5zM645 811q0 33 21.5 55.5t56.5 22.5q33 0 56.5 -22.5t23.5 -55.5q0 -35 -23.5 -57.5t-56.5 -22.5q-35 0 -56.5 22.5 t-21.5 57.5zM807 575q0 33 21.5 55.5t56.5 22.5q33 0 56.5 -22.5t23.5 -55.5q0 -35 -23.5 -57t-56.5 -22t-55.5 23.5t-22.5 55.5zM807 745q0 31 22.5 54.5t55.5 23.5t56.5 -22.5t23.5 -55.5t-23.5 -56t-56.5 -23q-35 0 -56.5 23.5t-21.5 55.5zM958 657q0 35 24 57.5t56 22.5 q33 0 56.5 -22.5t23.5 -57.5q0 -33 -23.5 -56t-56.5 -23t-56.5 24.5t-23.5 54.5z" />
<glyph unicode="?" horiz-adv-x="1005" d="M-14 973q45 131 102 214t124 129t143.5 62.5t162.5 16.5q94 0 181 -31t154 -89t105.5 -143t38.5 -192q0 -68 -14 -120t-42 -96t-69 -85t-94 -86q-29 -25 -44 -50.5t-15 -60.5v-155q14 -35 14 -94q0 -61 -20.5 -117t-57.5 -95.5t-90 -63t-116 -23.5q-74 0 -127.5 23.5 t-88 64.5t-52 93t-17.5 111q0 45 16 101v202q0 90 25.5 170t118.5 160zM78 1010l305 -133q12 35 31.5 65.5t62.5 30.5q55 0 55 -58q0 -31 -26.5 -57.5t-62 -53t-72.5 -54t-58 -58.5q-31 -47 -41 -98t-10 -105v-118h117q-63 -20 -101 -72.5t-38 -122.5q0 -80 49 -140.5 t151 -60.5q88 0 144.5 56.5t56.5 144.5q0 70 -39 122t-102 73h137v71q0 59 23.5 98.5t64.5 73.5q47 39 83 75t59.5 73t35.5 80t12 98q0 88 -32.5 157.5t-87 117t-126 73t-151.5 25.5q-74 0 -137.5 -12.5t-118.5 -45t-101 -92t-83 -153.5zM227 1077q0 33 23.5 55.5t56.5 22.5 q35 0 57.5 -22.5t22.5 -55.5q0 -35 -22.5 -57.5t-57.5 -22.5q-31 0 -55.5 23.5t-24.5 56.5zM360 176q0 35 23 56.5t57 21.5q37 0 57.5 -21.5t20.5 -56.5q0 -33 -22.5 -56.5t-55.5 -23.5q-35 0 -57.5 23.5t-22.5 56.5zM360 502q0 35 23 57.5t57 22.5q33 0 55.5 -22.5 t22.5 -57.5q0 -33 -22.5 -55.5t-55.5 -22.5t-56.5 23.5t-23.5 54.5zM401 1139q0 35 24 57.5t56 22.5q35 0 57.5 -22.5t22.5 -57.5q0 -33 -22.5 -56.5t-57.5 -23.5q-31 0 -55.5 24.5t-24.5 55.5zM455 662q0 33 22.5 55t54.5 22q33 0 56.5 -23t23.5 -54q0 -35 -22.5 -57.5 t-57.5 -22.5q-33 0 -55 22.5t-22 57.5zM571 797q0 33 22.5 56.5t57.5 23.5q31 0 55.5 -24.5t24.5 -55.5q0 -35 -23.5 -57.5t-56.5 -22.5q-35 0 -57.5 22.5t-22.5 57.5zM578 1092q0 33 22.5 56t56.5 23q33 0 55.5 -23t22.5 -56t-22.5 -55.5t-55.5 -22.5t-56 22.5t-23 55.5z M674 942q0 35 22.5 57.5t57.5 22.5q33 0 55 -22.5t22 -57.5q0 -33 -22.5 -55.5t-54.5 -22.5q-35 0 -57.5 22.5t-22.5 55.5z" />
<glyph unicode="@" horiz-adv-x="1777" d="M31 442q0 193 70.5 352.5t196.5 275.5t296 179.5t371 63.5q172 0 315 -49.5t247.5 -138.5t163 -215.5t58.5 -280.5q0 -115 -30.5 -215.5t-85 -181t-130.5 -138t-164 -84.5l115 -207q-258 -178 -541 -178q-190 0 -351 59.5t-279.5 167t-185 258t-66.5 332.5zM113 442 q0 -164 60 -299t168 -232t254 -150.5t318 -53.5q256 0 435 123l-109 193q-145 -82 -324 -82q-121 0 -221 36.5t-172.5 103t-112.5 160t-40 205.5q0 119 45 220.5t123.5 174t186 113.5t234.5 41q98 0 181.5 -26.5t145 -74.5t95 -116.5t33.5 -150.5q0 -43 -16.5 -93.5 t-43 -91.5t-60 -68.5t-68.5 -27.5h-19q31 66 44.5 118t13.5 120q0 141 -97.5 221t-263.5 80q-94 0 -171 -34t-132 -95.5t-86 -147.5t-31 -190q0 -82 28 -148.5t75 -112.5t109.5 -72t133.5 -26q51 0 100.5 13.5t84.5 50.5q63 -53 172 -53q100 0 188 43t153.5 117.5t102.5 177 t37 221.5q0 135 -52 246.5t-145.5 190.5t-222.5 122t-282 43q-182 0 -338 -57.5t-270.5 -162t-179 -250t-64.5 -319.5zM170 463q0 33 22.5 56.5t57.5 23.5q33 0 55.5 -23.5t22.5 -56.5t-23.5 -56.5t-54.5 -23.5q-35 0 -57.5 22.5t-22.5 57.5zM188 274q0 33 22.5 55.5 t57.5 22.5q33 0 55.5 -22.5t22.5 -55.5t-23.5 -56t-54.5 -23q-35 0 -57.5 23.5t-22.5 55.5zM197 645q0 35 23.5 57.5t55.5 22.5q33 0 56.5 -22.5t23.5 -57.5q0 -33 -23.5 -56.5t-56.5 -23.5t-56 23.5t-23 56.5zM262 104q0 33 23.5 56.5t56.5 23.5t56.5 -23.5t23.5 -56.5 q0 -35 -23.5 -56t-56.5 -21t-56.5 22.5t-23.5 54.5zM287 823q0 35 22.5 57.5t57.5 22.5q33 0 55 -22.5t22 -57.5q0 -33 -22.5 -55.5t-54.5 -22.5q-35 0 -57.5 23t-22.5 55zM393 -27q0 35 23.5 56.5t56.5 21.5q35 0 56.5 -21.5t21.5 -56.5q0 -33 -21.5 -56t-56.5 -23 q-33 0 -56.5 23.5t-23.5 55.5zM422 965q0 35 22.5 57t57.5 22q33 0 56.5 -22t23.5 -57q0 -33 -23.5 -55.5t-56.5 -22.5t-56.5 23.5t-23.5 54.5zM553 485q0 35 23.5 57.5t56.5 22.5t56.5 -22.5t23.5 -57.5q0 -33 -23.5 -56t-56.5 -23t-56.5 23.5t-23.5 55.5zM559 -109 q0 31 22.5 55.5t55.5 24.5t56.5 -23.5t23.5 -56.5q0 -35 -23.5 -57t-56.5 -22t-55.5 22.5t-22.5 56.5zM596 287q0 35 23.5 57.5t56.5 22.5t56.5 -22.5t23.5 -57.5q0 -33 -23.5 -55.5t-56.5 -22.5q-31 0 -55.5 23.5t-24.5 54.5zM602 1057q0 31 22.5 54.5t55.5 23.5 t56.5 -22.5t23.5 -55.5q0 -35 -23.5 -57.5t-56.5 -22.5q-35 0 -56.5 22.5t-21.5 57.5zM629 664q0 35 23.5 57t56.5 22q35 0 56 -22t21 -57q0 -33 -21.5 -55.5t-55.5 -22.5q-33 0 -56.5 22.5t-23.5 55.5zM733 -168q0 33 23.5 55.5t54.5 22.5q33 0 56.5 -21.5t23.5 -56.5 q0 -33 -23.5 -56.5t-56.5 -23.5t-55.5 23.5t-22.5 56.5zM760 434q0 39 12 78t33.5 69.5t49.5 50t60 19.5q66 0 66 -96q0 -41 -12.5 -81t-34 -72.5t-49 -53t-60.5 -20.5q-66 0 -65 106zM766 205q0 31 23.5 55.5t54.5 24.5q35 0 57.5 -23.5t22.5 -56.5q0 -35 -22.5 -57.5 t-57.5 -22.5q-33 0 -55.5 22.5t-22.5 57.5zM803 1102q0 35 23.5 56.5t56.5 21.5q35 0 56.5 -21.5t21.5 -56.5q0 -33 -21.5 -56.5t-56.5 -23.5q-33 0 -56.5 23.5t-23.5 56.5zM831 758q0 33 24 56.5t56 23.5q33 0 56.5 -23.5t23.5 -56.5t-24.5 -55.5t-55.5 -22.5 q-33 0 -56.5 21.5t-23.5 56.5zM926 -164q0 33 23.5 56.5t54.5 23.5q35 0 57 -22.5t22 -57.5q0 -33 -22.5 -55.5t-56.5 -22.5q-33 0 -55.5 22.5t-22.5 55.5zM930 297q0 33 23.5 56.5t56.5 23.5t55 -23.5t22 -56.5t-22.5 -55.5t-54.5 -22.5q-33 0 -56.5 22.5t-23.5 55.5z M997 1098q0 33 22.5 56.5t57.5 23.5q33 0 55.5 -24t22.5 -56q0 -35 -22.5 -57.5t-55.5 -22.5q-35 0 -57.5 22.5t-22.5 57.5zM1016 467q0 35 22.5 56.5t57.5 21.5q33 0 55.5 -21.5t22.5 -56.5q0 -33 -23.5 -56.5t-54.5 -23.5q-35 0 -57.5 23.5t-22.5 56.5zM1016 655 q0 33 22.5 56.5t57.5 23.5q33 0 55.5 -23.5t22.5 -56.5t-22.5 -56.5t-55.5 -23.5q-35 0 -57.5 24t-22.5 56zM1085 217q0 31 24 54.5t54 23.5q35 0 57.5 -22.5t22.5 -55.5t-22.5 -56.5t-57.5 -23.5q-33 0 -55.5 23.5t-22.5 56.5zM1120 -123q0 33 21.5 56.5t56.5 23.5 q33 0 56.5 -23.5t23.5 -56.5t-23.5 -55.5t-56.5 -22.5t-55.5 23.5t-22.5 54.5zM1186 1047q0 33 22.5 55t55.5 22t56 -22t23 -55t-22.5 -56.5t-56.5 -23.5q-33 0 -55.5 23.5t-22.5 56.5zM1264 256q0 33 23.5 56.5t55.5 23.5q35 0 56.5 -23.5t21.5 -56.5t-21.5 -55.5 t-56.5 -22.5q-31 0 -55 23.5t-24 54.5zM1339 938q0 33 23.5 55.5t56.5 22.5q35 0 56.5 -22.5t21.5 -55.5q0 -35 -21.5 -57.5t-56.5 -22.5q-33 0 -56.5 22.5t-23.5 57.5zM1397 383q0 33 22.5 56.5t55.5 23.5t56 -24.5t23 -55.5q0 -35 -22.5 -56.5t-56.5 -21.5 q-33 0 -55.5 21.5t-22.5 56.5zM1438 768q0 35 23.5 56.5t56.5 21.5q35 0 56 -21.5t21 -56.5q0 -33 -21 -56.5t-56 -23.5q-33 0 -56.5 23.5t-23.5 56.5zM1454 563q0 31 22.5 54.5t55.5 23.5t56.5 -22.5t23.5 -55.5q0 -35 -23.5 -57.5t-56.5 -22.5q-35 0 -56.5 22.5 t-21.5 57.5z" />
<glyph unicode="A" d="M-31 -51l492 1421h561l496 -1423v-29h-594l-39 135h-285l-43 -135h-588v31zM74 0h424l43 135h407l41 -135h422l-448 1288h-443zM240 145q0 33 21.5 55.5t55.5 22.5q31 0 55.5 -23.5t24.5 -54.5q0 -35 -23.5 -57t-56.5 -22q-35 0 -56 22.5t-21 56.5zM295 307 q0 35 23.5 57.5t56.5 22.5q31 0 55.5 -23.5t24.5 -56.5t-23.5 -55.5t-56.5 -22.5t-56.5 22.5t-23.5 55.5zM352 473q0 33 22.5 56.5t55.5 23.5t56.5 -24.5t23.5 -55.5q0 -33 -23.5 -56.5t-56.5 -23.5t-55.5 23.5t-22.5 56.5zM410 639q0 33 22.5 56.5t54.5 23.5 q33 0 56.5 -24.5t23.5 -55.5q0 -33 -23.5 -56.5t-56.5 -23.5t-55 23.5t-22 56.5zM467 803q0 33 22.5 56.5t55.5 23.5t56.5 -24.5t23.5 -55.5q0 -33 -23.5 -56.5t-56.5 -23.5t-55.5 23.5t-22.5 56.5zM475 301q0 33 22.5 56.5t55.5 23.5t56.5 -23.5t23.5 -56.5 q0 -35 -23.5 -57.5t-56.5 -22.5t-55.5 23.5t-22.5 56.5zM522 969q0 33 22.5 56.5t55.5 23.5t56.5 -24.5t23.5 -55.5q0 -33 -23.5 -56.5t-56.5 -23.5t-55.5 23.5t-22.5 56.5zM575 1133q0 33 23 55t57 22q31 0 54.5 -23.5t23.5 -53.5q0 -35 -22.5 -57.5t-55.5 -22.5 q-35 0 -57.5 22.5t-22.5 57.5zM633 457l108 374l111 -374h-219zM657 301q0 33 24 56.5t56 23.5q35 0 57.5 -23.5t22.5 -56.5q0 -35 -22.5 -57.5t-57.5 -22.5q-31 0 -55.5 23.5t-24.5 56.5zM750 1133q0 33 23.5 55t55.5 22q31 0 54.5 -23.5t23.5 -53.5q0 -35 -22.5 -57.5 t-55.5 -22.5t-56 22.5t-23 57.5zM797 967q0 33 22.5 56.5t54.5 23.5q33 0 56.5 -23.5t23.5 -56.5t-23.5 -56.5t-56.5 -23.5q-35 0 -56 23.5t-21 56.5zM848 301q0 33 23.5 56.5t56.5 23.5t55.5 -23.5t22.5 -56.5q0 -35 -22.5 -57.5t-55.5 -22.5t-56.5 23.5t-23.5 56.5z M852 801q0 33 23.5 56.5t56.5 23.5t56.5 -22.5t23.5 -57.5q0 -33 -23.5 -55.5t-56.5 -22.5q-35 0 -57.5 22.5t-22.5 55.5zM909 639q0 33 23.5 55.5t56.5 22.5t55.5 -22.5t22.5 -55.5q0 -35 -22.5 -57.5t-55.5 -22.5t-56.5 22.5t-23.5 57.5zM967 473q0 33 22.5 56.5 t54.5 23.5q33 0 56.5 -24.5t23.5 -55.5q0 -33 -23.5 -56.5t-56.5 -23.5t-55 23.5t-22 56.5zM1024 307q0 35 22.5 57.5t55.5 22.5q31 0 55.5 -23.5t24.5 -56.5t-23.5 -55.5t-56.5 -22.5t-55.5 22.5t-22.5 55.5zM1077 145q0 31 24.5 54.5t55.5 23.5q35 0 57.5 -22.5 t22.5 -55.5q0 -35 -22.5 -57t-57.5 -22q-33 0 -56.5 22.5t-23.5 56.5z" />
<glyph unicode="B" horiz-adv-x="1177" d="M55 -82v1452h572q111 0 201 -30.5t154.5 -89t99 -141.5t34.5 -189q0 -150 -80 -248q45 -51 71 -122t26 -153q0 -236 -133.5 -357.5t-395.5 -121.5h-549zM137 0h467q221 0 334 102.5t113 294.5q0 94 -38 166t-98 107q119 88 119 250q0 86 -29.5 154.5t-83 116.5t-128 72.5 t-166.5 24.5h-490v-1288zM240 166q0 33 22.5 56.5t54.5 23.5q33 0 56.5 -23.5t23.5 -56.5q0 -35 -23.5 -56.5t-56.5 -21.5t-55 21.5t-22 56.5zM240 356q0 33 22.5 56.5t54.5 23.5q33 0 56.5 -23.5t23.5 -56.5t-23.5 -56.5t-56.5 -23.5t-55 24t-22 56zM240 563 q0 33 22.5 55.5t54.5 22.5q33 0 56.5 -22.5t23.5 -55.5q0 -35 -23.5 -57.5t-56.5 -22.5t-55 22.5t-22 57.5zM240 752q0 33 22.5 56t54.5 23q33 0 56.5 -23t23.5 -56t-23.5 -56.5t-56.5 -23.5t-55 23.5t-22 56.5zM240 940q0 35 22.5 57.5t54.5 22.5q33 0 56.5 -22.5 t23.5 -57.5q0 -33 -23.5 -55.5t-56.5 -22.5t-55 22.5t-22 55.5zM240 1133q0 33 22.5 55t54.5 22q33 0 56.5 -22t23.5 -55q0 -35 -23.5 -57.5t-56.5 -22.5t-55 22.5t-22 57.5zM420 666q0 35 21.5 57t56.5 22q33 0 56.5 -22t23.5 -57q0 -33 -24 -56.5t-56 -23.5 q-33 0 -55.5 24.5t-22.5 55.5zM432 1135q0 35 22.5 57t55.5 22t56.5 -22t23.5 -57q0 -33 -24.5 -55.5t-55.5 -22.5q-33 0 -55.5 22.5t-22.5 55.5zM442 166q0 33 22.5 56.5t55.5 23.5q35 0 57.5 -23.5t22.5 -56.5q0 -35 -22.5 -56.5t-57.5 -21.5q-33 0 -55.5 21.5t-22.5 56.5 zM512 311v205h27q131 0 131 -102q0 -47 -30 -75t-77 -28h-51zM512 803v190q74 0 109.5 -19.5t35.5 -76.5q0 -53 -31.5 -73.5t-113.5 -20.5zM608 670q0 33 22.5 55.5t57.5 22.5q33 0 55.5 -23t22.5 -55q0 -35 -22.5 -57.5t-55.5 -22.5q-35 0 -57.5 22.5t-22.5 57.5zM621 1112 q0 35 23.5 57.5t55.5 22.5q33 0 55.5 -23.5t22.5 -56.5t-21.5 -55.5t-56.5 -22.5q-33 0 -56 22.5t-23 55.5zM645 203q0 35 21.5 57.5t56.5 22.5q33 0 56.5 -22.5t23.5 -57.5q0 -33 -23.5 -56.5t-56.5 -23.5q-35 0 -56.5 23.5t-21.5 56.5zM741 809q0 35 22.5 56.5t55.5 21.5 t56.5 -22.5t23.5 -57.5q0 -31 -23.5 -55.5t-56.5 -24.5t-55.5 24.5t-22.5 57.5zM754 541q0 33 23.5 55t53.5 22q35 0 57.5 -21t22.5 -56q0 -33 -22.5 -56.5t-57.5 -23.5q-33 0 -55 23.5t-22 56.5zM760 989q0 33 23.5 56.5t56.5 23.5t55.5 -23.5t22.5 -56.5 q0 -31 -22.5 -55.5t-55.5 -24.5t-56.5 23.5t-23.5 56.5zM776 350q0 35 21.5 56.5t56.5 21.5q33 0 56.5 -21.5t23.5 -56.5q0 -33 -23.5 -56.5t-56.5 -23.5q-35 0 -56.5 23.5t-21.5 56.5z" />
<glyph unicode="C" horiz-adv-x="1433" d="M29 643q0 166 55 303t155.5 237.5t236.5 156t300 55.5q236 0 392.5 -98.5t261.5 -284.5l-408 -361q-12 61 -39 102.5t-60.5 67t-69.5 36.5t-67 11q-92 0 -149 -63.5t-57 -161.5q0 -94 54 -158.5t152 -64.5q76 0 135.5 58.5t98.5 150.5l440 -295q-51 -96 -117.5 -177 t-150.5 -139.5t-187.5 -91t-228.5 -32.5q-164 0 -300 55t-236.5 155.5t-155.5 237.5t-55 301zM111 643q0 -145 49 -268t138 -212t211 -138.5t267 -49.5q111 0 201 26t161.5 70t125 105.5t92.5 134.5l-291 209q-31 -78 -98.5 -130t-180.5 -52q-66 0 -119 23.5t-90.5 64.5 t-58 96.5t-20.5 120.5q0 66 20.5 122t59 97t91 64.5t117.5 23.5q182 0 263 -182l278 258q-78 141 -209 214t-342 73q-145 0 -267 -49.5t-211 -138.5t-138 -211.5t-49 -270.5zM227 647q0 35 21.5 56.5t56.5 21.5q33 0 56.5 -21.5t23.5 -56.5q0 -33 -23.5 -56.5t-56.5 -23.5 q-35 0 -56.5 23.5t-21.5 56.5zM258 461q0 35 22.5 57.5t55.5 22.5t56.5 -22.5t23.5 -57.5q0 -33 -23.5 -56.5t-56.5 -23.5q-31 0 -54.5 24.5t-23.5 55.5zM258 825q0 35 22.5 57.5t55.5 22.5t56.5 -22.5t23.5 -57.5q0 -33 -23.5 -55t-56.5 -22q-31 0 -54.5 23.5t-23.5 53.5z M356 977q0 33 23.5 56.5t56.5 23.5t56.5 -23.5t23.5 -56.5t-24.5 -56.5t-55.5 -23.5q-33 0 -56.5 23.5t-23.5 56.5zM360 305q0 33 24 55.5t56 22.5q33 0 55.5 -22.5t22.5 -55.5q0 -31 -23.5 -55.5t-54.5 -24.5q-33 0 -56.5 23.5t-23.5 56.5zM508 1090q0 33 21.5 55t56.5 22 q33 0 56.5 -22t23.5 -55q0 -31 -25 -55.5t-55 -24.5q-35 0 -56.5 23.5t-21.5 56.5zM510 199q0 33 22.5 56.5t57.5 23.5q33 0 56.5 -23.5t23.5 -56.5t-24.5 -55.5t-55.5 -22.5q-35 0 -57.5 22.5t-22.5 55.5zM690 156q0 33 23.5 55t56.5 22q35 0 57.5 -22t22.5 -55 t-22.5 -56.5t-57.5 -23.5q-33 0 -56.5 23.5t-23.5 56.5zM690 1135q0 31 24.5 54t55.5 23q35 0 57.5 -22t22.5 -55q0 -35 -22.5 -57.5t-57.5 -22.5q-33 0 -56.5 22.5t-23.5 57.5zM874 1100q0 33 24 55.5t56 22.5q35 0 57.5 -22.5t22.5 -55.5q0 -31 -23.5 -55.5t-56.5 -24.5 t-56.5 23.5t-23.5 56.5zM879 193q0 33 23.5 56t55.5 23q35 0 56.5 -23.5t21.5 -55.5q0 -33 -22.5 -56.5t-55.5 -23.5t-56 23.5t-23 56.5zM1032 995q0 33 22.5 55.5t55.5 22.5t56.5 -22.5t23.5 -55.5t-23.5 -56.5t-56.5 -23.5t-55.5 24t-22.5 56zM1036 301q0 33 23.5 56.5 t56.5 23.5t56.5 -23.5t23.5 -56.5q0 -31 -24.5 -55.5t-55.5 -24.5q-33 0 -56.5 23.5t-23.5 56.5z" />
<glyph unicode="D" horiz-adv-x="1300" d="M55 -82v1456h439q160 0 300 -45t246.5 -134t168 -224t61.5 -316q0 -152 -47 -285.5t-143.5 -234t-243 -159t-342.5 -58.5h-439zM137 0h357q176 0 307 51t217 140.5t128 209t42 254.5q0 160 -55.5 280t-149.5 198.5t-221 118.5t-268 40h-357v-1292zM254 176 q0 33 23.5 55.5t56.5 22.5q35 0 56.5 -22.5t21.5 -55.5t-21.5 -56.5t-56.5 -23.5q-33 0 -56.5 23.5t-23.5 56.5zM254 367q0 33 23.5 56t56.5 23q35 0 56.5 -23.5t21.5 -55.5q0 -35 -21.5 -57.5t-56.5 -22.5q-33 0 -56.5 22.5t-23.5 57.5zM254 555q0 33 23.5 56.5t56.5 23.5 q35 0 56.5 -23.5t21.5 -56.5t-21.5 -55.5t-56.5 -22.5q-33 0 -56.5 22.5t-23.5 55.5zM254 745q0 35 23.5 56.5t56.5 21.5q35 0 56.5 -21.5t21.5 -56.5q0 -33 -21.5 -56t-56.5 -23q-33 0 -56.5 23.5t-23.5 55.5zM254 936q0 33 23.5 56.5t56.5 23.5q35 0 56.5 -23.5 t21.5 -56.5q0 -35 -21.5 -57.5t-56.5 -22.5q-33 0 -56.5 22.5t-23.5 57.5zM254 1124q0 33 23.5 56.5t56.5 23.5q35 0 56.5 -23.5t21.5 -56.5t-21.5 -55t-56.5 -22q-33 0 -56.5 22.5t-23.5 54.5zM432 156q0 33 23.5 55t56.5 22q35 0 57.5 -22t22.5 -55t-22.5 -56.5 t-57.5 -23.5q-33 0 -56.5 23.5t-23.5 56.5zM432 1135q0 31 24.5 54t55.5 23q35 0 57.5 -22t22.5 -55q0 -35 -22.5 -57.5t-57.5 -22.5q-33 0 -56.5 22.5t-23.5 57.5zM510 338v616q278 0 278 -307q0 -149 -71.5 -229t-206.5 -80zM633 201q0 33 23.5 56.5t56.5 23.5t55.5 -23.5 t22.5 -56.5t-23 -55.5t-55 -22.5q-33 0 -56.5 22.5t-23.5 55.5zM633 1085q0 33 23.5 56.5t56.5 23.5t55.5 -23.5t22.5 -56.5q0 -31 -22.5 -55t-55.5 -24t-56.5 23.5t-23.5 55.5zM776 315q0 33 23.5 55.5t56.5 22.5t56.5 -22.5t23.5 -55.5q0 -31 -24.5 -55t-55.5 -24 q-33 0 -56.5 23.5t-23.5 55.5zM776 973q0 33 23.5 55.5t56.5 22.5t56.5 -22.5t23.5 -55.5t-24.5 -56.5t-55.5 -23.5q-33 0 -56.5 23.5t-23.5 56.5zM877 465q0 35 22.5 56.5t56.5 21.5q33 0 55.5 -21.5t22.5 -56.5q0 -33 -22.5 -56.5t-55.5 -23.5q-35 0 -57 23.5t-22 56.5z M877 821q0 35 22.5 56.5t56.5 21.5q33 0 55.5 -21.5t22.5 -56.5q0 -33 -22.5 -56.5t-55.5 -23.5q-35 0 -57 23.5t-22 56.5zM909 643q0 35 23.5 57.5t56.5 22.5t55.5 -23.5t22.5 -56.5t-22.5 -55.5t-55.5 -22.5t-56.5 22.5t-23.5 55.5z" />
<glyph unicode="E" horiz-adv-x="1032" d="M55 -82v1452h936v-1452h-936zM137 0h772v338h-372v149h372v326h-372v150h372v325h-772v-1288zM254 176q0 33 23.5 55.5t56.5 22.5q35 0 56.5 -22.5t21.5 -55.5t-21.5 -56.5t-56.5 -23.5q-33 0 -56.5 23.5t-23.5 56.5zM254 367q0 33 23.5 56t56.5 23q35 0 56.5 -23.5 t21.5 -55.5q0 -35 -21.5 -57.5t-56.5 -22.5q-33 0 -56.5 22.5t-23.5 57.5zM254 555q0 33 23.5 56.5t56.5 23.5q35 0 56.5 -23.5t21.5 -56.5t-21.5 -55.5t-56.5 -22.5q-33 0 -56.5 22.5t-23.5 55.5zM254 745q0 35 23.5 56.5t56.5 21.5q35 0 56.5 -21.5t21.5 -56.5 q0 -33 -21.5 -56t-56.5 -23q-33 0 -56.5 23.5t-23.5 55.5zM254 936q0 33 23.5 56.5t56.5 23.5q35 0 56.5 -23.5t21.5 -56.5q0 -35 -21.5 -57.5t-56.5 -22.5q-33 0 -56.5 22.5t-23.5 57.5zM254 1124q0 33 23.5 56.5t56.5 23.5q35 0 56.5 -23.5t21.5 -56.5t-21.5 -55 t-56.5 -22q-33 0 -56.5 22.5t-23.5 54.5zM444 176q0 33 22.5 55.5t57.5 22.5q33 0 56.5 -22.5t23.5 -55.5t-23.5 -56.5t-56.5 -23.5q-35 0 -57.5 23.5t-22.5 56.5zM444 651q0 33 22.5 55.5t57.5 22.5q33 0 56.5 -22.5t23.5 -55.5t-23.5 -56.5t-56.5 -23.5q-35 0 -57.5 23.5 t-22.5 56.5zM444 1124q0 33 22.5 56.5t57.5 23.5q33 0 56.5 -23.5t23.5 -56.5t-23.5 -55t-56.5 -22q-35 0 -57.5 22.5t-22.5 54.5zM635 176q0 33 22.5 55.5t55.5 22.5t56.5 -22.5t23.5 -55.5t-24 -56.5t-56 -23.5q-33 0 -55.5 23.5t-22.5 56.5zM635 651q0 33 22.5 55.5 t55.5 22.5t56.5 -22.5t23.5 -55.5t-24 -56.5t-56 -23.5q-33 0 -55.5 23.5t-22.5 56.5zM635 1124q0 33 22.5 56.5t55.5 23.5t56.5 -23.5t23.5 -56.5t-24 -55t-56 -22q-33 0 -55.5 22.5t-22.5 54.5z" />
<glyph unicode="F" horiz-adv-x="1009" d="M55 -82v1452h936v-964h-373v-488h-563zM137 0h400v487h372v326h-372v150h372v325h-772v-1288zM254 176q0 33 23.5 55.5t56.5 22.5q35 0 56.5 -22.5t21.5 -55.5t-21.5 -56.5t-56.5 -23.5q-33 0 -56.5 23.5t-23.5 56.5zM254 367q0 33 23.5 56t56.5 23q35 0 56.5 -23.5 t21.5 -55.5q0 -35 -21.5 -57.5t-56.5 -22.5q-33 0 -56.5 22.5t-23.5 57.5zM254 555q0 33 23.5 56.5t56.5 23.5q35 0 56.5 -23.5t21.5 -56.5t-21.5 -55.5t-56.5 -22.5q-33 0 -56.5 22.5t-23.5 55.5zM254 745q0 35 23.5 56.5t56.5 21.5q35 0 56.5 -21.5t21.5 -56.5 q0 -33 -21.5 -56t-56.5 -23q-33 0 -56.5 23.5t-23.5 55.5zM254 936q0 33 23.5 56.5t56.5 23.5q35 0 56.5 -23.5t21.5 -56.5q0 -35 -21.5 -57.5t-56.5 -22.5q-33 0 -56.5 22.5t-23.5 57.5zM254 1124q0 33 23.5 56.5t56.5 23.5q35 0 56.5 -23.5t21.5 -56.5t-21.5 -55 t-56.5 -22q-33 0 -56.5 22.5t-23.5 54.5zM444 651q0 33 22.5 55.5t57.5 22.5q33 0 56.5 -22.5t23.5 -55.5t-23.5 -56.5t-56.5 -23.5q-35 0 -57.5 23.5t-22.5 56.5zM444 1124q0 33 22.5 56.5t57.5 23.5q33 0 56.5 -23.5t23.5 -56.5t-23.5 -55t-56.5 -22q-35 0 -57.5 22.5 t-22.5 54.5zM635 651q0 33 22.5 55.5t55.5 22.5t56.5 -22.5t23.5 -55.5t-24 -56.5t-56 -23.5q-33 0 -55.5 23.5t-22.5 56.5zM635 1124q0 33 22.5 56.5t55.5 23.5t56.5 -23.5t23.5 -56.5t-24 -55t-56 -22q-33 0 -55.5 22.5t-22.5 54.5z" />
<glyph unicode="G" horiz-adv-x="1568" d="M35 643q0 162 57.5 300t158.5 238.5t241.5 157t306.5 56.5q131 0 232.5 -27t179 -77t139 -124.5t114.5 -171.5l-194 -145h258q4 -59 9 -114.5t5 -102.5q0 -129 -37 -252t-127 -229q-104 -123 -254.5 -190.5t-330.5 -67.5q-166 0 -304.5 54t-240 153.5t-157.5 237.5 t-56 304zM117 643q0 -147 50 -270t140 -211t214 -137.5t272 -49.5q162 0 296 59.5t226 170.5q80 96 112.5 203.5t32.5 224.5q0 35 -2 68.5t-6 68.5h-696v-324h270q-85 -114 -223 -114h-2q-66 0 -119 24.5t-90 67.5t-56.5 99.5t-19.5 119.5q0 74 21.5 132.5t59.5 98t88 61 t110 21.5q113 0 174 -36.5t108 -118.5l281 217q-39 70 -87 125t-113.5 93t-154 57.5t-204.5 19.5q-147 0 -273.5 -50.5t-216.5 -140.5t-141 -213t-51 -266zM248 643q0 35 21.5 57.5t56.5 22.5q33 0 56.5 -22.5t23.5 -57.5q0 -33 -24 -55.5t-56 -22.5q-35 0 -56.5 22.5 t-21.5 55.5zM279 465q0 35 22.5 56.5t54.5 21.5q33 0 56.5 -21.5t23.5 -56.5q0 -33 -23.5 -56.5t-56.5 -23.5q-31 0 -54 24.5t-23 55.5zM279 821q0 35 22.5 56.5t54.5 21.5q33 0 56.5 -21.5t23.5 -56.5q0 -33 -23.5 -56.5t-56.5 -23.5q-31 0 -54 25t-23 55zM379 315 q0 33 23.5 55.5t56.5 22.5t56.5 -22.5t23.5 -55.5q0 -31 -25 -55t-55 -24q-33 0 -56.5 23.5t-23.5 55.5zM379 973q0 33 23.5 55.5t56.5 22.5t56.5 -22.5t23.5 -55.5t-25 -56.5t-55 -23.5q-33 0 -56.5 23.5t-23.5 56.5zM524 201q0 33 22.5 56.5t57.5 23.5q33 0 55.5 -23.5 t22.5 -56.5t-23.5 -55.5t-54.5 -22.5q-35 0 -57.5 22.5t-22.5 55.5zM528 1085q0 33 22.5 56.5t57.5 23.5q33 0 56.5 -23.5t23.5 -56.5q0 -31 -24.5 -55t-55.5 -24q-35 0 -57.5 23.5t-22.5 55.5zM705 156q0 33 23.5 55t55.5 22q35 0 56.5 -22.5t21.5 -54.5q0 -33 -21.5 -56.5 t-56.5 -23.5q-33 0 -56 23.5t-23 56.5zM707 1130q0 31 23.5 55.5t55.5 24.5q35 0 56.5 -23.5t21.5 -56.5q0 -35 -21.5 -57t-56.5 -22q-33 0 -56 22.5t-23 56.5zM834 608q0 35 23.5 57.5t55.5 22.5q31 0 54.5 -23.5t23.5 -56.5t-22.5 -55.5t-55.5 -22.5t-56 22.5t-23 55.5z M891 188q0 35 23.5 56.5t56.5 21.5t55.5 -21.5t22.5 -56.5q0 -33 -23.5 -56t-54.5 -23q-33 0 -56.5 23.5t-23.5 55.5zM895 1102q0 33 22.5 55.5t55.5 22.5q35 0 57.5 -22.5t22.5 -55.5t-23.5 -56.5t-56.5 -23.5t-55.5 23.5t-22.5 56.5zM1008 608q0 35 23.5 57.5t55.5 22.5 q31 0 54.5 -23.5t23.5 -56.5t-22.5 -55.5t-55.5 -22.5t-56 22.5t-23 55.5zM1034 291q0 35 22.5 57.5t57.5 22.5q33 0 56.5 -22.5t23.5 -57.5q0 -31 -24.5 -55.5t-55.5 -24.5q-35 0 -57.5 23.5t-22.5 56.5zM1057 999q0 33 22.5 56.5t55.5 23.5t56 -23.5t23 -56.5t-24.5 -56 t-54.5 -23q-33 0 -55.5 23.5t-22.5 55.5zM1143 436q0 33 22.5 56.5t55.5 23.5q35 0 57 -23.5t22 -56.5t-22.5 -55.5t-56.5 -22.5q-33 0 -55.5 22.5t-22.5 55.5zM1182 608q0 35 22.5 57.5t55.5 22.5t56 -23.5t23 -56.5t-22.5 -55.5t-56.5 -22.5q-33 0 -55.5 22.5t-22.5 55.5z " />
<glyph unicode="H" horiz-adv-x="1363" d="M55 -82v1452h563v-467h127v467h564v-1452h-564v485h-127v-485h-563zM137 0h400v485h290v-485h400v1288h-400v-467h-290v467h-400v-1288zM256 176q0 33 23.5 55.5t56.5 22.5t55.5 -22.5t22.5 -55.5t-22.5 -56.5t-55.5 -23.5t-56.5 23.5t-23.5 56.5zM256 367q0 33 23.5 56 t56.5 23t55.5 -23.5t22.5 -55.5q0 -35 -22.5 -57.5t-55.5 -22.5t-56.5 22.5t-23.5 57.5zM256 555q0 33 23.5 56.5t56.5 23.5t55.5 -23.5t22.5 -56.5t-22.5 -55.5t-55.5 -22.5t-56.5 22.5t-23.5 55.5zM256 745q0 35 23.5 56.5t56.5 21.5t55.5 -21.5t22.5 -56.5 q0 -33 -22.5 -56t-55.5 -23t-56.5 23.5t-23.5 55.5zM256 936q0 33 23.5 56.5t56.5 23.5t55.5 -23.5t22.5 -56.5q0 -35 -22.5 -57.5t-55.5 -22.5t-56.5 22.5t-23.5 57.5zM256 1124q0 33 23.5 56.5t56.5 23.5t55.5 -23.5t22.5 -56.5t-22.5 -55t-55.5 -22t-56.5 22.5 t-23.5 54.5zM426 657q0 33 22.5 56.5t57.5 23.5q33 0 55.5 -23.5t22.5 -56.5q0 -35 -22.5 -57t-55.5 -22q-35 0 -57.5 22.5t-22.5 56.5zM606 657q0 33 23.5 56.5t56.5 23.5t56.5 -23.5t23.5 -56.5q0 -35 -23.5 -57t-56.5 -22t-56.5 22.5t-23.5 56.5zM791 657q0 33 23.5 56.5 t55.5 23.5q35 0 56.5 -23.5t21.5 -56.5q0 -35 -21.5 -57t-56.5 -22q-33 0 -56 22.5t-23 56.5zM952 176q0 33 23.5 55.5t56.5 22.5t55.5 -22.5t22.5 -55.5t-22.5 -56.5t-55.5 -23.5t-56.5 23.5t-23.5 56.5zM952 367q0 33 23.5 56t56.5 23t55.5 -23.5t22.5 -55.5 q0 -35 -22.5 -57.5t-55.5 -22.5t-56.5 22.5t-23.5 57.5zM952 555q0 33 23.5 56.5t56.5 23.5t55.5 -23.5t22.5 -56.5t-22.5 -55.5t-55.5 -22.5t-56.5 22.5t-23.5 55.5zM952 745q0 35 23.5 56.5t56.5 21.5t55.5 -21.5t22.5 -56.5q0 -33 -22.5 -56t-55.5 -23t-56.5 23.5 t-23.5 55.5zM952 936q0 33 23.5 56.5t56.5 23.5t55.5 -23.5t22.5 -56.5q0 -35 -22.5 -57.5t-55.5 -22.5t-56.5 22.5t-23.5 57.5zM952 1124q0 33 23.5 56.5t56.5 23.5t55.5 -23.5t22.5 -56.5t-22.5 -55t-55.5 -22t-56.5 22.5t-23.5 54.5z" />
<glyph unicode="I" horiz-adv-x="677" d="M55 -82v1452h568v-1452h-568zM137 0h404v1288h-404v-1288zM254 176q0 33 23.5 55.5t56.5 22.5q35 0 56.5 -22.5t21.5 -55.5t-21.5 -56.5t-56.5 -23.5q-33 0 -56.5 23.5t-23.5 56.5zM254 367q0 33 23.5 56t56.5 23q35 0 56.5 -23.5t21.5 -55.5q0 -35 -21.5 -57.5 t-56.5 -22.5q-33 0 -56.5 22.5t-23.5 57.5zM254 555q0 33 23.5 56.5t56.5 23.5q35 0 56.5 -23.5t21.5 -56.5t-21.5 -55.5t-56.5 -22.5q-33 0 -56.5 22.5t-23.5 55.5zM254 745q0 35 23.5 56.5t56.5 21.5q35 0 56.5 -21.5t21.5 -56.5q0 -33 -21.5 -56t-56.5 -23 q-33 0 -56.5 23.5t-23.5 55.5zM254 936q0 33 23.5 56.5t56.5 23.5q35 0 56.5 -23.5t21.5 -56.5q0 -35 -21.5 -57.5t-56.5 -22.5q-33 0 -56.5 22.5t-23.5 57.5zM254 1124q0 33 23.5 56.5t56.5 23.5q35 0 56.5 -23.5t21.5 -56.5t-21.5 -55t-56.5 -22q-33 0 -56.5 22.5 t-23.5 54.5z" />
<glyph unicode="J" horiz-adv-x="911" d="M10 -59v493q66 -20 117 -26.5t113 -6.5q43 0 53 30t10 79v860h563v-878q0 -293 -140 -445.5t-402 -152.5q-86 0 -167 14t-147 33zM92 2q37 -10 95.5 -18.5t136.5 -8.5q223 0 341.5 132.5t118.5 384.5v796h-399v-778q0 -43 -4 -79t-19.5 -60.5t-44 -38t-77.5 -13.5 q-20 0 -53 2.5t-95 16.5v-336zM201 160q0 33 23.5 56.5t56.5 23.5t55 -23.5t22 -56.5t-22 -56.5t-55 -23.5t-56.5 23.5t-23.5 56.5zM389 209q0 33 23.5 55.5t56.5 22.5q35 0 57.5 -22.5t22.5 -55.5q0 -35 -22.5 -57.5t-57.5 -22.5q-33 0 -56.5 22.5t-23.5 57.5zM485 367 q0 33 22.5 56t57.5 23q33 0 56.5 -23t23.5 -56q0 -35 -23.5 -57.5t-56.5 -22.5q-35 0 -57.5 22.5t-22.5 57.5zM518 555q0 33 22.5 56.5t55.5 23.5t56.5 -23.5t23.5 -56.5t-23.5 -55.5t-56.5 -22.5t-55.5 22.5t-22.5 55.5zM518 745q0 35 22.5 56.5t55.5 21.5t56.5 -21.5 t23.5 -56.5q0 -33 -23.5 -56t-56.5 -23t-55.5 23.5t-22.5 55.5zM518 936q0 33 22.5 56.5t55.5 23.5t56.5 -23.5t23.5 -56.5q0 -35 -23.5 -57.5t-56.5 -22.5t-55.5 22.5t-22.5 57.5zM518 1124q0 33 22.5 56.5t55.5 23.5t56.5 -23.5t23.5 -56.5t-23.5 -55t-56.5 -22 t-55.5 22.5t-22.5 54.5z" />
<glyph unicode="K" horiz-adv-x="1187" d="M55 -82v1452h1174v-24l-383 -666l391 -739v-23h-1182zM137 0h400v303l133 -303h444l-360 682l348 606h-449l-116 -258v258h-400v-1288zM254 176q0 33 23.5 55.5t56.5 22.5q35 0 56.5 -22.5t21.5 -55.5t-21.5 -56.5t-56.5 -23.5q-33 0 -56.5 23.5t-23.5 56.5zM254 367 q0 33 23.5 56t56.5 23q35 0 56.5 -23.5t21.5 -55.5q0 -35 -21.5 -57.5t-56.5 -22.5q-33 0 -56.5 22.5t-23.5 57.5zM254 555q0 33 23.5 56.5t56.5 23.5q35 0 56.5 -23.5t21.5 -56.5t-21.5 -55.5t-56.5 -22.5q-33 0 -56.5 22.5t-23.5 55.5zM254 745q0 35 23.5 56.5t56.5 21.5 q35 0 56.5 -21.5t21.5 -56.5q0 -33 -21.5 -56t-56.5 -23q-33 0 -56.5 23.5t-23.5 55.5zM254 936q0 33 23.5 56.5t56.5 23.5q35 0 56.5 -23.5t21.5 -56.5q0 -35 -21.5 -57.5t-56.5 -22.5q-33 0 -56.5 22.5t-23.5 57.5zM254 1124q0 33 23.5 56.5t56.5 23.5q35 0 56.5 -23.5 t21.5 -56.5t-21.5 -55t-56.5 -22q-33 0 -56.5 22.5t-23.5 54.5zM432 657q0 33 23.5 56.5t56.5 23.5q35 0 57.5 -23.5t22.5 -56.5q0 -35 -22.5 -57t-57.5 -22q-33 0 -56.5 22.5t-23.5 56.5zM535 823q0 35 23.5 56.5t55.5 21.5q33 0 55.5 -21.5t22.5 -56.5q0 -33 -22.5 -56.5 t-55.5 -23.5t-56 24t-23 56zM547 489q0 35 22.5 56.5t57.5 21.5q33 0 55.5 -21.5t22.5 -56.5q0 -33 -22.5 -56t-55.5 -23q-35 0 -57.5 23.5t-22.5 55.5zM635 979q0 33 22.5 56.5t55.5 23.5t56.5 -23.5t23.5 -56.5t-24 -56.5t-56 -23.5q-33 0 -55.5 22.5t-22.5 57.5zM645 319 q0 33 21.5 56.5t56.5 23.5q33 0 56.5 -23.5t23.5 -56.5t-23.5 -55t-56.5 -22q-35 0 -56.5 22.5t-21.5 54.5zM735 156q0 33 23.5 55t56.5 22t56.5 -22t23.5 -55t-23.5 -56.5t-56.5 -23.5t-56.5 23.5t-23.5 56.5zM741 1143q0 35 21.5 56.5t56.5 21.5q33 0 56.5 -22.5 t23.5 -55.5t-23.5 -56.5t-56.5 -23.5q-35 0 -56.5 23.5t-21.5 56.5z" />
<glyph unicode="L" horiz-adv-x="933" d="M55 -82v1452h563v-950h306v-502h-869zM137 0h705v338h-305v950h-400v-1288zM254 176q0 33 23.5 55.5t56.5 22.5q35 0 56.5 -22.5t21.5 -55.5t-21.5 -56.5t-56.5 -23.5q-33 0 -56.5 23.5t-23.5 56.5zM254 367q0 33 23.5 56t56.5 23q35 0 56.5 -23.5t21.5 -55.5 q0 -35 -21.5 -57.5t-56.5 -22.5q-33 0 -56.5 22.5t-23.5 57.5zM254 555q0 33 23.5 56.5t56.5 23.5q35 0 56.5 -23.5t21.5 -56.5t-21.5 -55.5t-56.5 -22.5q-33 0 -56.5 22.5t-23.5 55.5zM254 745q0 35 23.5 56.5t56.5 21.5q35 0 56.5 -21.5t21.5 -56.5q0 -33 -21.5 -56 t-56.5 -23q-33 0 -56.5 23.5t-23.5 55.5zM254 936q0 33 23.5 56.5t56.5 23.5q35 0 56.5 -23.5t21.5 -56.5q0 -35 -21.5 -57.5t-56.5 -22.5q-33 0 -56.5 22.5t-23.5 57.5zM254 1124q0 33 23.5 56.5t56.5 23.5q35 0 56.5 -23.5t21.5 -56.5t-21.5 -55t-56.5 -22 q-33 0 -56.5 22.5t-23.5 54.5zM444 176q0 33 22.5 55.5t57.5 22.5q33 0 56.5 -22.5t23.5 -55.5t-23.5 -56.5t-56.5 -23.5q-35 0 -57.5 23.5t-22.5 56.5zM635 176q0 33 22.5 55.5t55.5 22.5t56.5 -22.5t23.5 -55.5t-24 -56.5t-56 -23.5q-33 0 -55.5 23.5t-22.5 56.5z" />
<glyph unicode="M" horiz-adv-x="1703" d="M51 -82v1452h586l217 -475l227 475h572v-1452h-539v389l-231 -495h-70l-223 487v-381h-539zM133 0h375v653l342 -741l346 745v-657h375v1288h-438l-281 -588l-266 588h-453v-1288zM250 176q0 33 23.5 55.5t56.5 22.5q35 0 57.5 -22.5t22.5 -55.5t-22.5 -56.5t-57.5 -23.5 q-33 0 -56.5 23.5t-23.5 56.5zM250 367q0 33 23.5 56t56.5 23q35 0 57.5 -23t22.5 -56q0 -35 -22.5 -57.5t-57.5 -22.5q-33 0 -56.5 22.5t-23.5 57.5zM250 555q0 33 23.5 56.5t56.5 23.5q35 0 57.5 -23.5t22.5 -56.5t-22.5 -55.5t-57.5 -22.5q-33 0 -56.5 22.5t-23.5 55.5z M250 745q0 35 23.5 56.5t56.5 21.5q35 0 57.5 -21.5t22.5 -56.5q0 -33 -22.5 -56t-57.5 -23q-33 0 -56.5 23.5t-23.5 55.5zM250 936q0 33 23.5 56.5t56.5 23.5q35 0 57.5 -23.5t22.5 -56.5q0 -35 -22.5 -57.5t-57.5 -22.5q-33 0 -56.5 22.5t-23.5 57.5zM250 1124 q0 33 23.5 56.5t56.5 23.5q35 0 57.5 -23.5t22.5 -56.5t-22.5 -55t-57.5 -22q-33 0 -56.5 22.5t-23.5 54.5zM430 1032q0 33 22.5 56.5t55.5 23.5q35 0 57.5 -23.5t22.5 -56.5t-22.5 -56.5t-57.5 -23.5q-33 0 -55.5 23.5t-22.5 56.5zM510 860q0 33 23.5 56.5t56.5 23.5 q35 0 57.5 -23.5t22.5 -56.5q0 -35 -22.5 -57.5t-57.5 -22.5q-33 0 -56.5 22.5t-23.5 57.5zM592 686q0 35 22.5 57.5t55.5 22.5q35 0 57.5 -22.5t22.5 -57.5q0 -31 -24 -54.5t-56 -23.5q-33 0 -55.5 22.5t-22.5 55.5zM670 516q0 31 24.5 55.5t55.5 24.5q35 0 57 -23.5 t22 -56.5t-22.5 -56.5t-56.5 -23.5q-33 0 -56.5 23.5t-23.5 56.5zM766 344q0 33 23.5 56.5t56.5 23.5q35 0 57.5 -23.5t22.5 -56.5q0 -35 -22.5 -57.5t-57.5 -22.5q-33 0 -56.5 22.5t-23.5 57.5zM874 516q0 33 24 56.5t56 23.5q31 0 55.5 -24.5t24.5 -55.5 q0 -33 -23.5 -56.5t-56.5 -23.5t-56.5 23.5t-23.5 56.5zM954 686q0 35 23.5 57.5t56.5 22.5t55.5 -22.5t22.5 -57.5q0 -33 -22.5 -55.5t-55.5 -22.5t-56.5 23.5t-23.5 54.5zM1034 860q0 33 22.5 56.5t57.5 23.5q33 0 56.5 -23.5t23.5 -56.5q0 -35 -23.5 -57.5t-56.5 -22.5 q-35 0 -57.5 22.5t-22.5 57.5zM1116 1032q0 33 22.5 56.5t57.5 23.5q33 0 55.5 -23.5t22.5 -56.5t-22.5 -56.5t-55.5 -23.5q-35 0 -57.5 23.5t-22.5 56.5zM1294 176q0 33 22.5 55.5t57.5 22.5q33 0 56.5 -22.5t23.5 -55.5t-23.5 -56.5t-56.5 -23.5q-35 0 -57.5 23.5 t-22.5 56.5zM1294 367q0 33 22.5 56t57.5 23q33 0 56.5 -23t23.5 -56q0 -35 -23.5 -57.5t-56.5 -22.5q-35 0 -57.5 22.5t-22.5 57.5zM1294 555q0 33 22.5 56.5t57.5 23.5q33 0 56.5 -23.5t23.5 -56.5t-23.5 -55.5t-56.5 -22.5q-35 0 -57.5 22.5t-22.5 55.5zM1294 745 q0 35 22.5 56.5t57.5 21.5q33 0 56.5 -21.5t23.5 -56.5q0 -33 -23.5 -56t-56.5 -23q-35 0 -57.5 23.5t-22.5 55.5zM1294 936q0 33 22.5 56.5t57.5 23.5q33 0 56.5 -23.5t23.5 -56.5q0 -35 -23.5 -57.5t-56.5 -22.5q-35 0 -57.5 22.5t-22.5 57.5zM1294 1124q0 33 22.5 56.5 t57.5 23.5q33 0 56.5 -23.5t23.5 -56.5t-23.5 -55t-56.5 -22q-35 0 -57.5 22.5t-22.5 54.5z" />
<glyph unicode="N" horiz-adv-x="1452" d="M55 -82v1452h527l260 -432v432h555v-1452h-492l-291 432v-432h-559zM137 0h395v618l416 -618h367v1288h-391v-645l-389 645h-398v-1288zM254 176q0 33 23.5 55.5t56.5 22.5q35 0 56.5 -22.5t21.5 -55.5t-21.5 -56.5t-56.5 -23.5q-33 0 -56.5 23.5t-23.5 56.5zM254 367 q0 33 23.5 56t56.5 23q35 0 56.5 -23.5t21.5 -55.5q0 -35 -21.5 -57.5t-56.5 -22.5q-33 0 -56.5 22.5t-23.5 57.5zM254 555q0 33 23.5 56.5t56.5 23.5q35 0 56.5 -23.5t21.5 -56.5t-21.5 -55.5t-56.5 -22.5q-33 0 -56.5 22.5t-23.5 55.5zM254 745q0 35 23.5 56.5t56.5 21.5 q35 0 56.5 -21.5t21.5 -56.5q0 -33 -21.5 -56t-56.5 -23q-33 0 -56.5 23.5t-23.5 55.5zM254 936q0 33 23.5 56.5t56.5 23.5q35 0 56.5 -23.5t21.5 -56.5q0 -35 -21.5 -57.5t-56.5 -22.5q-33 0 -56.5 22.5t-23.5 57.5zM254 1124q0 33 23.5 56.5t56.5 23.5q35 0 56.5 -23.5 t21.5 -56.5t-21.5 -55t-56.5 -22q-33 0 -56.5 22.5t-23.5 54.5zM418 1010q0 33 23.5 56.5t56.5 23.5t55 -24t22 -56q0 -33 -22 -56.5t-55 -23.5t-56.5 24.5t-23.5 55.5zM518 834q0 33 23.5 55t56.5 22t56.5 -22t23.5 -55t-23.5 -56.5t-56.5 -23.5t-56.5 23.5t-23.5 56.5z M637 657q0 33 22.5 56.5t55.5 23.5q31 0 55.5 -24.5t24.5 -55.5q0 -35 -23.5 -57t-56.5 -22t-55.5 22.5t-22.5 56.5zM766 465q0 31 24.5 54.5t55.5 23.5q35 0 57.5 -22.5t22.5 -55.5q0 -35 -22.5 -57.5t-57.5 -22.5q-33 0 -56.5 22.5t-23.5 57.5zM885 303q0 33 22.5 55.5 t55.5 22.5q35 0 57 -22.5t22 -55.5t-23.5 -56.5t-55.5 -23.5q-33 0 -55.5 22.5t-22.5 57.5zM1044 176q0 33 24 55.5t56 22.5q35 0 57.5 -22.5t22.5 -55.5t-22.5 -56.5t-57.5 -23.5q-33 0 -56.5 23.5t-23.5 56.5zM1044 367q0 33 24 56t56 23q35 0 57.5 -23t22.5 -56 q0 -35 -22.5 -57.5t-57.5 -22.5q-33 0 -56.5 22.5t-23.5 57.5zM1044 555q0 33 24 56.5t56 23.5q35 0 57.5 -23.5t22.5 -56.5t-22.5 -55.5t-57.5 -22.5q-33 0 -56.5 22.5t-23.5 55.5zM1044 745q0 35 24 56.5t56 21.5q35 0 57.5 -21.5t22.5 -56.5q0 -33 -22.5 -56t-57.5 -23 q-33 0 -56.5 23.5t-23.5 55.5zM1044 936q0 33 24 56.5t56 23.5q35 0 57.5 -23.5t22.5 -56.5q0 -35 -22.5 -57.5t-57.5 -22.5q-33 0 -56.5 22.5t-23.5 57.5zM1044 1124q0 33 24 56.5t56 23.5q35 0 57.5 -23.5t22.5 -56.5t-22.5 -55t-57.5 -22q-33 0 -56.5 22.5t-23.5 54.5z " />
<glyph unicode="O" horiz-adv-x="1589" d="M33 643q0 164 57 302t159.5 237.5t242 156t303.5 56.5q162 0 301 -56.5t241.5 -157t160.5 -238.5t58 -300q0 -164 -58 -301t-160.5 -236.5t-242 -155.5t-300.5 -56q-162 0 -301.5 56t-241.5 155.5t-160.5 236.5t-58.5 301zM115 643q0 -145 52 -267t143 -211t215 -139.5 t270 -50.5q143 0 268 50.5t216 139.5t143.5 211t52.5 267t-52.5 268t-144.5 212t-216 139.5t-267 50.5q-145 0 -270.5 -49.5t-216.5 -138.5t-142 -211.5t-51 -270.5zM238 643q0 35 21.5 57.5t55.5 22.5q33 0 56.5 -22.5t23.5 -57.5q0 -33 -23.5 -55.5t-56.5 -22.5 q-35 0 -56 22.5t-21 55.5zM262 461q0 35 23.5 57.5t56.5 22.5t56.5 -22.5t23.5 -57.5q0 -33 -23.5 -56.5t-56.5 -23.5q-31 0 -55.5 24.5t-24.5 55.5zM266 827q0 35 23.5 57.5t56.5 22.5t55.5 -22.5t22.5 -57.5q0 -33 -22.5 -56t-55.5 -23t-56.5 24.5t-23.5 54.5zM365 303 q0 33 22.5 55.5t54.5 22.5q33 0 56.5 -22.5t23.5 -55.5q0 -31 -23.5 -55.5t-56.5 -24.5t-55 23.5t-22 56.5zM365 983q0 33 22.5 56.5t54.5 23.5q33 0 56.5 -23.5t23.5 -56.5t-23.5 -55.5t-56.5 -22.5t-55 22.5t-22 55.5zM514 643q0 150 76 228.5t205 78.5q125 0 202.5 -79.5 t77.5 -227.5q0 -147 -77.5 -226t-202.5 -79q-129 0 -205 79t-76 226zM520 201q0 33 22.5 56.5t57.5 23.5q33 0 56.5 -23.5t23.5 -56.5t-24.5 -55.5t-55.5 -22.5q-35 0 -57.5 22.5t-22.5 55.5zM520 1085q0 33 22.5 56.5t57.5 23.5q33 0 56.5 -23.5t23.5 -56.5 q0 -31 -24.5 -55t-55.5 -24q-35 0 -57.5 23.5t-22.5 55.5zM715 156q0 33 23.5 55t56.5 22q35 0 56 -22.5t21 -54.5q0 -33 -21 -56.5t-56 -23.5q-33 0 -56.5 23.5t-23.5 56.5zM715 1135q0 31 24.5 54t55.5 23q35 0 56 -22.5t21 -54.5q0 -35 -21 -57.5t-56 -22.5 q-33 0 -56.5 22.5t-23.5 57.5zM909 201q0 33 23.5 56.5t56.5 23.5q35 0 56.5 -23.5t21.5 -56.5t-21.5 -55.5t-56.5 -22.5q-31 0 -55.5 22.5t-24.5 55.5zM909 1085q0 33 23.5 56.5t56.5 23.5q35 0 56.5 -23.5t21.5 -56.5t-21.5 -56t-56.5 -23q-31 0 -55.5 24.5t-24.5 54.5z M1067 303q0 33 22.5 55.5t55.5 22.5t56.5 -22.5t23.5 -55.5t-23.5 -56.5t-56.5 -23.5q-31 0 -54.5 24.5t-23.5 55.5zM1067 983q0 33 22.5 56.5t55.5 23.5t56.5 -23.5t23.5 -56.5t-23.5 -55.5t-56.5 -22.5q-31 0 -54.5 22.5t-23.5 55.5zM1163 827q0 35 23.5 57.5t56.5 22.5 t56.5 -22.5t23.5 -57.5q0 -31 -24.5 -55t-55.5 -24q-33 0 -56.5 23.5t-23.5 55.5zM1167 461q0 35 23.5 57.5t56.5 22.5t55.5 -22.5t22.5 -57.5q0 -31 -23.5 -55.5t-54.5 -24.5q-33 0 -56.5 23.5t-23.5 56.5zM1194 643q0 35 22.5 57.5t55.5 22.5q35 0 57.5 -22.5t22.5 -57.5 q0 -33 -22.5 -55.5t-57.5 -22.5q-33 0 -55.5 22.5t-22.5 55.5z" />
<glyph unicode="P" horiz-adv-x="1161" d="M55 -82v1452h551q123 0 223.5 -37t173 -104.5t112.5 -165.5t40 -221q0 -254 -136 -391.5t-401 -143.5v-389h-563zM137 0h400v389h57q236 0 357.5 118t121.5 335q0 104 -33.5 186t-95 140.5t-147.5 89t-191 30.5h-469v-1288zM254 176q0 33 23.5 55.5t56.5 22.5 q35 0 56.5 -22.5t21.5 -55.5t-21.5 -56.5t-56.5 -23.5q-33 0 -56.5 23.5t-23.5 56.5zM254 367q0 33 23.5 56t56.5 23q35 0 56.5 -23.5t21.5 -55.5q0 -35 -21.5 -57.5t-56.5 -22.5q-33 0 -56.5 22.5t-23.5 57.5zM254 555q0 33 23.5 56.5t56.5 23.5q35 0 56.5 -23.5 t21.5 -56.5t-21.5 -55.5t-56.5 -22.5q-33 0 -56.5 22.5t-23.5 55.5zM254 745q0 35 23.5 56.5t56.5 21.5q35 0 56.5 -21.5t21.5 -56.5q0 -33 -21.5 -56t-56.5 -23q-33 0 -56.5 23.5t-23.5 55.5zM254 936q0 33 23.5 56.5t56.5 23.5q35 0 56.5 -23.5t21.5 -56.5 q0 -35 -21.5 -57.5t-56.5 -22.5q-33 0 -56.5 22.5t-23.5 57.5zM254 1124q0 33 23.5 56.5t56.5 23.5q35 0 56.5 -23.5t21.5 -56.5t-21.5 -55t-56.5 -22q-33 0 -56.5 22.5t-23.5 54.5zM432 1130q0 33 22.5 54.5t55.5 21.5q35 0 57.5 -22.5t22.5 -55.5q0 -31 -23.5 -54 t-56.5 -23t-55.5 23.5t-22.5 55.5zM438 565q0 33 23.5 55.5t56.5 22.5t55.5 -22.5t22.5 -55.5q0 -35 -22.5 -57.5t-55.5 -22.5t-56.5 22.5t-23.5 57.5zM537 725v236q76 0 104.5 -28t28.5 -87q0 -57 -29 -88t-104 -33zM604 1118q0 33 22.5 56.5t57.5 23.5q31 0 55.5 -24.5 t24.5 -55.5q0 -35 -23.5 -57.5t-56.5 -22.5q-35 0 -57.5 22.5t-22.5 57.5zM612 582q0 33 22.5 56.5t55.5 23.5t56.5 -23.5t23.5 -56.5q0 -35 -23.5 -57.5t-56.5 -22.5q-31 0 -54.5 23.5t-23.5 56.5zM745 1014q0 33 24 55.5t56 22.5q35 0 57.5 -22.5t22.5 -55.5t-23.5 -56.5 t-56.5 -23.5t-56.5 22.5t-23.5 57.5zM766 678q0 31 23.5 55.5t54.5 24.5q35 0 57.5 -23.5t22.5 -56.5q0 -35 -22.5 -57.5t-57.5 -22.5q-33 0 -55.5 22.5t-22.5 57.5zM786 850q0 33 22.5 55.5t55.5 22.5q35 0 57.5 -23.5t22.5 -56.5q0 -31 -23.5 -55.5t-56.5 -24.5 t-55.5 24.5t-22.5 57.5z" />
<glyph unicode="Q" horiz-adv-x="1583" d="M31 643q0 164 57 302t159.5 237.5t242 156t303.5 56.5q162 0 301 -56.5t241.5 -157t160.5 -238.5t58 -300q0 -201 -92 -367l107 -108l-307 -313l-119 116q-164 -77 -345 -77h-5q-162 0 -301.5 56t-242 155.5t-160.5 236.5t-58 301zM113 643q0 -145 52 -267t143 -211 t215 -139.5t270 -50.5q199 0 362 97l105 -101l194 197l-94 96q113 168 113 379q0 145 -52.5 268t-144.5 212t-216 139.5t-267 50.5q-145 0 -270.5 -49.5t-216.5 -138.5t-142 -211.5t-51 -270.5zM248 643q0 35 21.5 57.5t56.5 22.5q33 0 56.5 -22.5t23.5 -57.5 q0 -33 -24 -55.5t-56 -22.5q-35 0 -56.5 22.5t-21.5 55.5zM279 465q0 35 22.5 56.5t54.5 21.5q33 0 56.5 -21.5t23.5 -56.5q0 -33 -23.5 -56.5t-56.5 -23.5q-31 0 -54 24.5t-23 55.5zM279 821q0 35 22.5 56.5t54.5 21.5q33 0 56.5 -21.5t23.5 -56.5q0 -33 -23.5 -56.5 t-56.5 -23.5q-31 0 -54 25t-23 55zM379 315q0 33 23.5 55.5t56.5 22.5t56.5 -22.5t23.5 -55.5q0 -31 -25 -55t-55 -24q-33 0 -56.5 23.5t-23.5 55.5zM379 973q0 33 23.5 55.5t56.5 22.5t56.5 -22.5t23.5 -55.5t-25 -56.5t-55 -23.5q-33 0 -56.5 23.5t-23.5 56.5zM512 643 q0 68 20.5 124t58.5 97t89 63.5t113 22.5q61 0 113 -22.5t89 -63.5t57.5 -97t20.5 -124q0 -18 -2 -38.5t-6 -39.5l-70 70l-202 -203l84 -82q-37 -12 -84 -12q-61 0 -112.5 22.5t-89.5 63.5t-58.5 96t-20.5 123zM524 201q0 33 22.5 56.5t57.5 23.5q33 0 55.5 -23.5 t22.5 -56.5t-23.5 -55.5t-54.5 -22.5q-35 0 -57.5 22.5t-22.5 55.5zM524 1085q0 33 22.5 56.5t57.5 23.5q33 0 55.5 -23.5t22.5 -56.5q0 -31 -23.5 -55t-54.5 -24q-35 0 -57.5 23.5t-22.5 55.5zM705 156q0 33 23.5 55t55.5 22q35 0 56.5 -22.5t21.5 -54.5q0 -33 -21.5 -56.5 t-56.5 -23.5q-33 0 -56 23.5t-23 56.5zM705 1135q0 31 24.5 54t54.5 23q35 0 56.5 -22.5t21.5 -54.5q0 -35 -21.5 -57.5t-56.5 -22.5q-33 0 -56 22.5t-23 57.5zM905 201q0 33 22.5 56.5t55.5 23.5q35 0 57.5 -23.5t22.5 -56.5t-23.5 -55.5t-56.5 -22.5t-55.5 22.5 t-22.5 55.5zM905 1085q0 33 22.5 56.5t55.5 23.5q35 0 57.5 -23.5t22.5 -56.5q0 -31 -23.5 -55t-56.5 -24t-55.5 23.5t-22.5 55.5zM918 446q0 31 23.5 54.5t55.5 23.5q33 0 56.5 -22.5t23.5 -55.5q0 -35 -23.5 -57t-56.5 -22q-35 0 -57 22.5t-22 56.5zM1049 315 q0 33 23.5 55.5t55.5 22.5q33 0 55.5 -22.5t22.5 -55.5q0 -31 -23.5 -55t-54.5 -24q-33 0 -56 23.5t-23 55.5zM1049 973q0 33 23.5 55.5t55.5 22.5q33 0 55.5 -22.5t22.5 -55.5t-23.5 -56.5t-54.5 -23.5q-33 0 -56 23.5t-23 56.5zM1149 465q0 35 23.5 56.5t56.5 21.5 t55.5 -21.5t22.5 -56.5q0 -33 -22.5 -56.5t-55.5 -23.5t-56.5 23.5t-23.5 56.5zM1149 821q0 35 23.5 56.5t56.5 21.5t55.5 -21.5t22.5 -56.5q0 -33 -22.5 -56.5t-55.5 -23.5t-56.5 23.5t-23.5 56.5zM1182 643q0 35 22.5 57.5t55.5 22.5t56 -23.5t23 -56.5t-22.5 -55.5 t-56.5 -22.5q-33 0 -55.5 22.5t-22.5 55.5zM1184 174q0 35 22.5 56.5t55.5 21.5q35 0 57 -21.5t22 -56.5q0 -31 -23.5 -55.5t-55.5 -24.5q-33 0 -55.5 23.5t-22.5 56.5z" />
<glyph unicode="R" horiz-adv-x="1290" d="M55 -82v1452h572q129 0 235.5 -36t181 -103.5t115.5 -161.5t41 -211q0 -131 -49 -231.5t-147 -157.5l317 -506v-45h-1266zM137 0h400v360l186 -360h483l-325 504q111 33 174 126t63 228q0 98 -34.5 178t-99 135.5t-156 86t-201.5 30.5h-490v-1288zM254 176 q0 33 23.5 55.5t56.5 22.5q35 0 56.5 -22.5t21.5 -55.5t-21.5 -56.5t-56.5 -23.5q-33 0 -56.5 23.5t-23.5 56.5zM254 367q0 33 23.5 56t56.5 23q35 0 56.5 -23.5t21.5 -55.5q0 -35 -21.5 -57.5t-56.5 -22.5q-33 0 -56.5 22.5t-23.5 57.5zM254 555q0 33 23.5 56.5t56.5 23.5 q35 0 56.5 -23.5t21.5 -56.5t-21.5 -55.5t-56.5 -22.5q-33 0 -56.5 22.5t-23.5 55.5zM254 745q0 35 23.5 56.5t56.5 21.5q35 0 56.5 -21.5t21.5 -56.5q0 -33 -21.5 -56t-56.5 -23q-33 0 -56.5 23.5t-23.5 55.5zM254 936q0 33 23.5 56.5t56.5 23.5q35 0 56.5 -23.5 t21.5 -56.5q0 -35 -21.5 -57.5t-56.5 -22.5q-33 0 -56.5 22.5t-23.5 57.5zM254 1124q0 33 23.5 56.5t56.5 23.5q35 0 56.5 -23.5t21.5 -56.5t-21.5 -55t-56.5 -22q-33 0 -56.5 22.5t-23.5 54.5zM426 565q0 33 22.5 55.5t57.5 22.5q33 0 55.5 -22.5t22.5 -55.5 q0 -35 -22.5 -57.5t-55.5 -22.5q-35 0 -57.5 22.5t-22.5 57.5zM446 1130q0 33 24 54.5t56 21.5q35 0 56.5 -22.5t21.5 -55.5q0 -31 -22.5 -54t-55.5 -23t-56.5 23.5t-23.5 55.5zM537 725v236h34q141 0 142 -115q0 -121 -133 -121h-43zM612 565q0 33 23.5 55.5t54.5 22.5 q33 0 56.5 -21.5t23.5 -56.5q0 -33 -23.5 -56.5t-56.5 -23.5t-55.5 23.5t-22.5 56.5zM637 1118q0 33 22.5 56.5t55.5 23.5q31 0 55.5 -24.5t24.5 -55.5q0 -35 -23.5 -57.5t-56.5 -22.5t-55.5 22.5t-22.5 57.5zM688 367q0 33 23.5 56t54.5 23q35 0 57.5 -22t22.5 -57 q0 -33 -22.5 -56.5t-57.5 -23.5q-33 0 -55.5 23.5t-22.5 56.5zM762 672q0 31 23.5 54.5t56.5 23.5t55.5 -22.5t22.5 -55.5t-22.5 -56.5t-55.5 -23.5q-35 0 -57.5 23.5t-22.5 56.5zM784 172q0 33 22.5 56.5t55.5 23.5t56.5 -22.5t23.5 -57.5q0 -33 -23.5 -56.5t-56.5 -23.5 q-35 0 -56.5 23.5t-21.5 56.5zM795 1014q0 33 22.5 55.5t54.5 22.5q33 0 56.5 -22.5t23.5 -55.5t-23.5 -56.5t-56.5 -23.5t-55 22.5t-22 57.5zM834 842q0 35 23.5 56.5t55.5 21.5q33 0 55.5 -23t22.5 -55q0 -33 -23.5 -56.5t-54.5 -23.5q-33 0 -56 23.5t-23 56.5z" />
<glyph unicode="S" horiz-adv-x="1181" d="M37 901q0 121 43 213t115.5 154.5t170 94.5t205.5 32q92 0 178.5 -22.5t158 -74t123.5 -136.5t75 -208l-297 -108q66 -27 127 -67t108.5 -95t76 -123.5t28.5 -154.5q0 -127 -46 -222.5t-124 -160t-181.5 -97t-217.5 -32.5q-96 0 -185.5 25.5t-162 82.5t-124 145.5 t-69.5 214.5l334 99q-68 25 -129.5 66.5t-107.5 98t-72.5 126t-26.5 149.5zM119 901q0 -72 29.5 -140.5t80.5 -117.5q59 -59 134 -90t155 -64q20 -10 48 -20t52.5 -22.5t42 -29t17.5 -36.5q0 -37 -25.5 -51.5t-58.5 -14.5q-47 0 -80 26t-33 75l-350 -111q12 -88 53 -150.5 t102.5 -102.5t137.5 -58.5t156 -18.5q98 0 186 28t155.5 81t106.5 134t39 188q0 82 -37 155.5t-102 130.5q-55 47 -128 77t-143 52q-23 6 -50 14.5t-52 20.5t-42 30.5t-17 47.5q0 31 22.5 48t54.5 17q55 0 77 -37.5t30 -82.5l334 127q-16 86 -57.5 144t-100.5 95t-132 52.5 t-153 15.5q-92 0 -174 -26.5t-144.5 -79t-98 -129.5t-35.5 -177zM233 907q0 33 24 55.5t56 22.5q35 0 56.5 -22.5t21.5 -55.5t-21.5 -56.5t-56.5 -23.5q-33 0 -56.5 23.5t-23.5 56.5zM311 1092q0 33 22.5 55t55.5 22t56.5 -22t23.5 -55t-23.5 -56.5t-56.5 -23.5 q-31 0 -54.5 23.5t-23.5 56.5zM313 236q0 33 22.5 56t55.5 23t56.5 -22t23.5 -57q0 -33 -24.5 -56.5t-57.5 -23.5t-54.5 24.5t-21.5 55.5zM332 743q0 35 23.5 57.5t56.5 22.5q35 0 56 -22.5t21 -57.5q0 -33 -21 -56t-56 -23q-33 0 -56.5 23.5t-23.5 55.5zM504 1151 q0 35 22.5 57.5t57.5 22.5q33 0 55.5 -22.5t22.5 -57.5q0 -33 -22.5 -56.5t-55.5 -23.5t-56.5 24.5t-23.5 55.5zM508 162q0 31 23.5 55.5t56.5 24.5t56.5 -23.5t23.5 -56.5q0 -35 -22.5 -57.5t-55.5 -22.5q-35 0 -58.5 22.5t-23.5 57.5zM514 651q0 33 23.5 55.5t56.5 22.5 t55.5 -22.5t22.5 -55.5t-23.5 -56.5t-54.5 -23.5q-33 0 -56.5 23.5t-23.5 56.5zM688 567q0 33 22.5 56.5t55.5 23.5t56.5 -24.5t23.5 -55.5q0 -33 -23.5 -55.5t-56.5 -22.5t-55.5 23t-22.5 55zM694 217q0 33 24.5 55.5t55.5 22.5q35 0 56.5 -21.5t21.5 -56.5 q0 -33 -21.5 -56.5t-54.5 -23.5t-57.5 23.5t-24.5 56.5zM694 1092q0 33 23.5 57.5t58.5 24.5q33 0 54.5 -24.5t21.5 -57.5q0 -35 -22.5 -56.5t-55.5 -21.5t-56.5 22.5t-23.5 55.5zM786 399q0 33 24 56.5t56 23.5q33 0 56.5 -23.5t23.5 -56.5q0 -31 -24.5 -55.5t-55.5 -24.5 q-33 0 -56.5 24t-23.5 56z" />
<glyph unicode="T" horiz-adv-x="1261" d="M14 870v500h1233v-500h-336v-952h-561v952h-336zM96 952h336v-952h397v952h336v336h-1069v-336zM174 1124q0 33 23.5 56.5t56.5 23.5t56.5 -23.5t23.5 -56.5t-23.5 -55t-56.5 -22t-56.5 22.5t-23.5 54.5zM365 1124q0 33 22.5 56.5t54.5 23.5q35 0 57.5 -23.5t22.5 -56.5 t-22.5 -55t-57.5 -22q-33 0 -55 22.5t-22 54.5zM555 176q0 33 22.5 55.5t57.5 22.5q33 0 55.5 -22.5t22.5 -55.5t-22.5 -56.5t-55.5 -23.5q-35 0 -57.5 23.5t-22.5 56.5zM555 367q0 33 22.5 56t57.5 23q33 0 55.5 -23.5t22.5 -55.5q0 -35 -22.5 -57.5t-55.5 -22.5 q-35 0 -57.5 22.5t-22.5 57.5zM555 555q0 33 22.5 56.5t57.5 23.5q33 0 55.5 -23.5t22.5 -56.5t-22.5 -55.5t-55.5 -22.5q-35 0 -57.5 22.5t-22.5 55.5zM555 745q0 35 22.5 56.5t57.5 21.5q33 0 55.5 -21.5t22.5 -56.5q0 -33 -22.5 -56t-55.5 -23q-35 0 -57.5 23.5 t-22.5 55.5zM555 936q0 33 22.5 56.5t57.5 23.5q33 0 55.5 -23.5t22.5 -56.5q0 -35 -22.5 -57.5t-55.5 -22.5q-35 0 -57.5 22.5t-22.5 57.5zM555 1124q0 33 22.5 56.5t57.5 23.5q33 0 55.5 -23.5t22.5 -56.5t-22.5 -55t-55.5 -22q-35 0 -57.5 22.5t-22.5 54.5zM743 1124 q0 33 24 56.5t56 23.5q33 0 56.5 -23.5t23.5 -56.5t-23.5 -55t-56.5 -22t-56.5 22.5t-23.5 54.5zM936 1124q0 33 21.5 56.5t56.5 23.5q33 0 56.5 -23.5t23.5 -56.5t-23.5 -55t-56.5 -22q-35 0 -56.5 22.5t-21.5 54.5z" />
<glyph unicode="U" horiz-adv-x="1337" d="M47 475v895h563v-860q0 -49 13.5 -70.5t44.5 -21.5q59 0 59 92v860h561v-895q0 -135 -43 -243.5t-124 -183.5t-195.5 -114.5t-257.5 -39.5q-141 0 -256 39.5t-196 114.5t-125 182.5t-44 244.5zM129 475q0 -117 38 -210t107.5 -157.5t170 -98.5t223.5 -34q125 0 224 34 t168.5 98.5t107.5 157.5t38 210v813h-397v-778q0 -92 -32 -133t-109 -41q-76 0 -108 41t-32 133v778h-399v-813zM238 555q0 33 22.5 56.5t54.5 23.5q33 0 56.5 -23.5t23.5 -56.5t-23.5 -55.5t-56.5 -22.5t-55 22.5t-22 55.5zM238 745q0 35 22.5 56.5t54.5 21.5 q33 0 56.5 -21.5t23.5 -56.5q0 -33 -23.5 -56t-56.5 -23t-55 23.5t-22 55.5zM238 936q0 33 22.5 56.5t54.5 23.5q33 0 56.5 -23.5t23.5 -56.5q0 -35 -23.5 -57.5t-56.5 -22.5t-55 22.5t-22 57.5zM238 1124q0 33 22.5 56.5t54.5 23.5q33 0 56.5 -23.5t23.5 -56.5t-23.5 -55 t-56.5 -22t-55 22.5t-22 54.5zM283 367q0 33 22.5 56t56.5 23q33 0 56.5 -23t23.5 -56q0 -35 -23.5 -57.5t-56.5 -22.5q-35 0 -57 22.5t-22 57.5zM401 211q0 35 22.5 57.5t57.5 22.5q33 0 56.5 -22.5t23.5 -57.5q0 -31 -24.5 -54.5t-55.5 -23.5q-35 0 -57.5 22.5t-22.5 55.5 zM594 164q0 33 22.5 55.5t55.5 22.5q31 0 55.5 -23.5t24.5 -54.5q0 -35 -23.5 -57.5t-56.5 -22.5t-55.5 22.5t-22.5 57.5zM770 211q0 35 23.5 57.5t56.5 22.5t55.5 -22.5t22.5 -57.5q0 -33 -22.5 -55.5t-55.5 -22.5t-56.5 22.5t-23.5 55.5zM889 367q0 33 23.5 56t56.5 23 t55.5 -23.5t22.5 -55.5q0 -35 -22.5 -57.5t-55.5 -22.5t-56.5 22.5t-23.5 57.5zM936 555q0 33 21.5 56.5t56.5 23.5q33 0 56.5 -23.5t23.5 -56.5t-23.5 -55.5t-56.5 -22.5q-35 0 -56.5 22.5t-21.5 55.5zM936 745q0 35 21.5 56.5t56.5 21.5q33 0 56.5 -21.5t23.5 -56.5 q0 -33 -23.5 -56t-56.5 -23q-35 0 -56.5 23.5t-21.5 55.5zM936 936q0 33 21.5 56.5t56.5 23.5q33 0 56.5 -23.5t23.5 -56.5q0 -35 -23.5 -57.5t-56.5 -22.5q-35 0 -56.5 22.5t-21.5 57.5zM936 1124q0 33 21.5 56.5t56.5 23.5q33 0 56.5 -23.5t23.5 -56.5t-23.5 -55 t-56.5 -22q-35 0 -56.5 22.5t-21.5 54.5z" />
<glyph unicode="V" horiz-adv-x="1323" d="M-29 1346v24h594l105 -430l106 430h576v-24l-451 -1428h-479zM74 1288l407 -1288h361l407 1288h-407l-172 -692l-170 692h-426zM248 1145q0 33 22.5 55.5t55.5 22.5q35 0 57.5 -22.5t22.5 -55.5t-23 -56.5t-57 -23.5q-33 0 -55.5 23.5t-22.5 56.5zM303 979 q0 35 22.5 57.5t57.5 22.5q33 0 56.5 -22.5t23.5 -57.5q0 -31 -24.5 -55.5t-55.5 -24.5q-35 0 -57.5 23.5t-22.5 56.5zM358 815q0 33 22.5 56.5t57.5 23.5q33 0 56.5 -23.5t23.5 -56.5t-24.5 -55.5t-55.5 -22.5q-35 0 -57.5 21.5t-22.5 56.5zM408 651q0 33 22.5 55.5 t54.5 22.5q35 0 57.5 -22.5t22.5 -55.5t-22.5 -56.5t-57.5 -23.5q-31 0 -54 23.5t-23 56.5zM461 485q0 35 22.5 57.5t57.5 22.5q33 0 55 -22.5t22 -57.5q0 -33 -22 -56t-55 -23t-56.5 24.5t-23.5 54.5zM504 322q0 37 27.5 59t62.5 22q31 0 49.5 -25.5t18.5 -55.5 q0 -35 -21.5 -57.5t-56.5 -22.5q-33 0 -56.5 22.5t-23.5 57.5zM580 156q0 33 21.5 56.5t55.5 23.5q33 0 56.5 -23.5t23.5 -56.5q0 -31 -23.5 -54.5t-56.5 -23.5q-35 0 -56 22.5t-21 55.5zM680 322q0 31 18.5 56t46.5 25q37 0 65 -22t28 -59q0 -33 -25 -56.5t-55 -23.5 q-35 0 -56.5 22.5t-21.5 57.5zM723 485q0 35 22.5 57.5t55.5 22.5q35 0 57.5 -22.5t22.5 -57.5q0 -31 -23.5 -55t-56.5 -24t-55.5 23.5t-22.5 55.5zM774 651q0 33 21.5 55.5t56.5 22.5q33 0 56.5 -22.5t23.5 -55.5t-23.5 -56.5t-56.5 -23.5t-55.5 23.5t-22.5 56.5zM823 815 q0 33 23.5 56.5t56.5 23.5q35 0 56.5 -23.5t21.5 -56.5q0 -35 -21.5 -56.5t-56.5 -21.5q-31 0 -55.5 22.5t-24.5 55.5zM879 979q0 35 23.5 57.5t55.5 22.5q35 0 56.5 -22.5t21.5 -57.5q0 -33 -21.5 -56.5t-56.5 -23.5q-33 0 -56 23.5t-23 56.5zM936 1145q0 33 21.5 55.5 t56.5 22.5q33 0 56.5 -22.5t23.5 -55.5t-23.5 -56.5t-56.5 -23.5q-35 0 -56.5 23.5t-21.5 56.5z" />
<glyph unicode="W" horiz-adv-x="2021" d="M-31 1350v20h596l107 -430l106 430h486l104 -430l107 430h575v-22l-451 -1430h-485l-100 389l-107 -389h-485zM74 1288l407 -1288h363l172 625l164 -625h360l408 1288h-408l-172 -692l-170 692h-354l-174 -692l-170 692h-426zM250 1145q0 33 21.5 55.5t56.5 22.5 q33 0 56.5 -22.5t23.5 -55.5t-24 -56.5t-56 -23.5q-35 0 -56.5 23.5t-21.5 56.5zM299 979q0 35 22.5 57.5t57.5 22.5q33 0 56.5 -22.5t23.5 -57.5q0 -31 -24.5 -55.5t-55.5 -24.5q-35 0 -57.5 23.5t-22.5 56.5zM350 815q0 33 23.5 56.5t56.5 23.5t56.5 -23.5t23.5 -56.5 t-24.5 -55.5t-55.5 -22.5q-33 0 -56.5 21.5t-23.5 56.5zM395 651q0 33 21.5 55.5t56.5 22.5q33 0 56.5 -22.5t23.5 -55.5t-23.5 -56.5t-56.5 -23.5t-55.5 23.5t-22.5 56.5zM440 481q0 35 23.5 57.5t56.5 22.5t55.5 -22.5t22.5 -57.5q0 -33 -22.5 -56.5t-55.5 -23.5t-56.5 25 t-23.5 55zM496 317q0 33 22.5 55.5t54.5 22.5q35 0 57.5 -22.5t22.5 -55.5t-22.5 -56t-57.5 -23q-33 0 -55 23.5t-22 55.5zM586 164q0 33 22.5 56.5t55.5 23.5t56 -23.5t23 -56.5q0 -31 -23.5 -54.5t-55.5 -23.5q-33 0 -55.5 22.5t-22.5 55.5zM674 317q0 33 22.5 55.5 t55.5 22.5q35 0 57 -22.5t22 -55.5t-22.5 -56t-56.5 -23q-33 0 -55.5 23.5t-22.5 55.5zM725 483q0 35 22.5 57.5t57.5 22.5q33 0 56.5 -22.5t23.5 -57.5q0 -31 -24.5 -55.5t-55.5 -24.5q-35 0 -57.5 24t-22.5 56zM774 651q0 33 22.5 55.5t55.5 22.5t56.5 -22.5t23.5 -55.5 t-23.5 -56.5t-56.5 -23.5q-31 0 -54.5 23.5t-23.5 56.5zM817 817q0 33 22.5 55.5t55.5 22.5q35 0 57.5 -22.5t22.5 -55.5t-22.5 -56.5t-57.5 -23.5q-33 0 -55.5 23.5t-22.5 56.5zM856 987q0 33 23.5 56.5t56.5 23.5q35 0 56.5 -23.5t21.5 -56.5t-21.5 -55.5t-56.5 -22.5 q-31 0 -55.5 22.5t-24.5 55.5zM940 1145q0 33 22.5 55.5t57.5 22.5q33 0 55.5 -22.5t22.5 -55.5t-22.5 -56.5t-55.5 -23.5q-35 0 -57.5 23.5t-22.5 56.5zM1024 987q0 33 21.5 56.5t56.5 23.5q33 0 56.5 -23.5t23.5 -56.5t-24.5 -55.5t-55.5 -22.5q-35 0 -56.5 22.5 t-21.5 55.5zM1063 817q0 33 22.5 55.5t57.5 22.5q33 0 55.5 -22.5t22.5 -55.5t-22.5 -56.5t-55.5 -23.5q-35 0 -57.5 23.5t-22.5 56.5zM1106 651q0 33 23.5 55.5t56.5 22.5t55.5 -22.5t22.5 -55.5t-23.5 -56.5t-54.5 -23.5q-33 0 -56.5 23.5t-23.5 56.5zM1153 483 q0 35 23.5 57.5t56.5 22.5q35 0 57.5 -22.5t22.5 -57.5q0 -33 -22.5 -56.5t-57.5 -23.5q-31 0 -55.5 24.5t-24.5 55.5zM1206 317q0 33 22.5 55.5t57.5 22.5q33 0 55.5 -22.5t22.5 -55.5t-22.5 -56t-55.5 -23q-35 0 -57.5 23t-22.5 56zM1294 164q0 33 23.5 56.5t56.5 23.5 t55.5 -23.5t22.5 -56.5t-22.5 -55.5t-55.5 -22.5t-56.5 23.5t-23.5 54.5zM1384 317q0 33 23 55.5t57 22.5q33 0 55.5 -22.5t22.5 -55.5t-22.5 -56t-55.5 -23q-35 0 -57.5 23t-22.5 56zM1440 481q0 35 22.5 57.5t55.5 22.5t56 -22.5t23 -57.5q0 -31 -23 -55.5t-56 -24.5 t-55.5 24t-22.5 56zM1485 651q0 33 23.5 55.5t56.5 22.5q35 0 56 -22.5t21 -55.5t-22.5 -56.5t-54.5 -23.5q-33 0 -56.5 23.5t-23.5 56.5zM1528 815q0 33 23.5 56.5t56.5 23.5t56.5 -23.5t23.5 -56.5q0 -35 -24 -56.5t-56 -21.5q-31 0 -55.5 22.5t-24.5 55.5zM1579 979 q0 35 23.5 57.5t56.5 22.5q35 0 57.5 -22.5t22.5 -57.5q0 -33 -22.5 -56.5t-57.5 -23.5q-31 0 -55.5 24.5t-24.5 55.5zM1630 1145q0 33 23.5 55.5t56.5 22.5q35 0 56.5 -22.5t21.5 -55.5t-21.5 -56.5t-56.5 -23.5q-33 0 -56.5 23.5t-23.5 56.5z" />
<glyph unicode="X" horiz-adv-x="1396" d="M-57 -55l426 743l-381 655v27h637l80 -170l79 170h637v-20l-389 -662l426 -747v-23h-645l-119 246l-114 -246h-637v27zM70 0h458l166 356l170 -356h465l-391 688l354 600h-456l-129 -276l-134 276h-460l350 -600zM315 168q0 33 22.5 56.5t57.5 23.5q33 0 56.5 -23.5 t23.5 -56.5q0 -35 -23.5 -56.5t-56.5 -21.5q-35 0 -57.5 21.5t-22.5 56.5zM326 1155q0 33 22.5 55.5t54.5 22.5q33 0 56.5 -22.5t23.5 -55.5q0 -35 -23.5 -57.5t-56.5 -22.5t-55 22.5t-22 57.5zM408 332q0 35 22.5 57.5t54.5 22.5q33 0 56.5 -22.5t23.5 -57.5 q0 -31 -23.5 -55.5t-56.5 -24.5t-55 23.5t-22 56.5zM420 991q0 33 22.5 55.5t55.5 22.5q35 0 57.5 -22.5t22.5 -55.5t-23 -56.5t-57 -23.5q-33 0 -55.5 23.5t-22.5 56.5zM514 502q0 33 23.5 56.5t56.5 23.5q35 0 56.5 -23.5t21.5 -56.5t-22.5 -55.5t-55.5 -22.5t-56.5 21.5 t-23.5 56.5zM530 827q0 33 22.5 56.5t57.5 23.5q33 0 56.5 -23.5t23.5 -56.5t-23.5 -56t-56.5 -23q-35 0 -57.5 23.5t-22.5 55.5zM604 664q0 35 22.5 57t55.5 22t56.5 -22t23.5 -57q0 -33 -23.5 -55.5t-56.5 -22.5t-55.5 22.5t-22.5 55.5zM713 827q0 33 22.5 56.5t55.5 23.5 q35 0 57 -23.5t22 -56.5t-22.5 -56t-56.5 -23q-33 0 -55.5 23.5t-22.5 55.5zM727 502q0 33 22.5 56.5t57.5 23.5q33 0 55.5 -23.5t22.5 -56.5q0 -35 -22.5 -56.5t-55.5 -21.5t-56.5 22.5t-23.5 55.5zM819 991q0 33 23.5 55.5t56.5 22.5t56.5 -22.5t23.5 -55.5t-23.5 -56.5 t-56.5 -23.5t-56.5 23.5t-23.5 56.5zM829 332q0 35 24 57.5t56 22.5q35 0 57.5 -22.5t22.5 -57.5q0 -33 -22.5 -56.5t-57.5 -23.5q-33 0 -56.5 23.5t-23.5 56.5zM909 1155q0 33 23.5 55.5t56.5 22.5t55.5 -23.5t22.5 -54.5q0 -35 -21.5 -57.5t-56.5 -22.5q-33 0 -56.5 22.5 t-23.5 57.5zM913 168q0 33 22.5 56.5t55.5 23.5q35 0 57.5 -23.5t22.5 -56.5q0 -35 -22.5 -56.5t-57.5 -21.5q-33 0 -55.5 21.5t-22.5 56.5z" />
<glyph unicode="Y" horiz-adv-x="1363" d="M-63 1341v29h632l113 -237l113 237h632v-31l-462 -790v-631h-566v631zM63 1288l418 -715v-573h402v573l417 715h-454l-164 -348l-164 348h-455zM293 1155q0 33 22.5 55.5t55.5 22.5q31 0 55.5 -23.5t24.5 -54.5q0 -35 -24 -57.5t-56 -22.5q-33 0 -55.5 22.5t-22.5 57.5z M387 975q0 33 22.5 56.5t55.5 23.5t56.5 -23.5t23.5 -56.5q0 -35 -23.5 -56.5t-56.5 -21.5t-55.5 21.5t-22.5 56.5zM479 797q0 33 23.5 56.5t56.5 23.5q35 0 56.5 -24t21.5 -56q0 -35 -20.5 -57.5t-55.5 -22.5q-33 0 -57.5 22.5t-24.5 57.5zM602 188q0 35 22.5 57.5 t55.5 22.5q35 0 57.5 -22.5t22.5 -57.5q0 -33 -22.5 -55t-57.5 -22q-33 0 -55.5 22.5t-22.5 54.5zM602 395q0 33 22.5 56.5t55.5 23.5q35 0 57.5 -23.5t22.5 -56.5t-22.5 -55.5t-57.5 -22.5q-33 0 -55.5 22.5t-22.5 55.5zM602 618q0 33 22.5 55.5t55.5 22.5q35 0 57.5 -22.5 t22.5 -55.5q0 -35 -22.5 -57t-57.5 -22q-33 0 -55.5 22.5t-22.5 56.5zM727 797q0 33 23.5 56.5t56.5 23.5t55.5 -24t22.5 -56q0 -35 -22.5 -57.5t-55.5 -22.5t-56.5 22.5t-23.5 57.5zM834 975q0 33 23.5 56.5t55.5 23.5q35 0 56.5 -23.5t21.5 -56.5q0 -35 -21.5 -56.5 t-56.5 -21.5q-33 0 -56 21.5t-23 56.5zM926 1155q0 33 22.5 55.5t55.5 22.5q31 0 55 -23.5t24 -54.5q0 -35 -23.5 -57.5t-55.5 -22.5q-33 0 -55.5 22.5t-22.5 57.5z" />
<glyph unicode="Z" horiz-adv-x="1282" d="M-37 -47l490 926h-418v491h1284v-33l-490 -917h396v-502h-1262v35zM80 0h1063v338h-449l508 950h-1085v-327h473zM205 1106q0 31 23.5 55.5t54.5 24.5q35 0 57 -23.5t22 -56.5t-22.5 -56.5t-56.5 -23.5q-33 0 -55.5 23.5t-22.5 56.5zM317 182q0 33 22.5 56.5t57.5 23.5 q33 0 55.5 -23.5t22.5 -56.5t-23.5 -56.5t-54.5 -23.5q-35 0 -57.5 22.5t-22.5 57.5zM395 1106q0 31 23.5 55.5t56.5 24.5t55.5 -23.5t22.5 -56.5t-22.5 -56.5t-55.5 -23.5q-35 0 -57.5 23.5t-22.5 56.5zM416 379q0 33 22.5 55.5t57.5 22.5q31 0 54 -23.5t23 -54.5 q0 -33 -22 -56.5t-55 -23.5q-35 0 -57.5 23.5t-22.5 56.5zM508 182q0 33 22.5 56.5t55.5 23.5t56.5 -23.5t23.5 -56.5t-25 -56.5t-55 -23.5q-33 0 -55.5 22.5t-22.5 57.5zM526 565q0 33 22.5 55.5t55.5 22.5t56.5 -22.5t23.5 -55.5q0 -35 -23.5 -57.5t-56.5 -22.5 t-55.5 22.5t-22.5 57.5zM584 1106q0 31 24.5 55.5t55.5 24.5q33 0 56 -23.5t23 -56.5t-23.5 -56.5t-55.5 -23.5q-33 0 -56.5 23.5t-23.5 56.5zM610 739q0 33 23.5 56.5t56.5 23.5t55.5 -23.5t22.5 -56.5t-23.5 -55t-54.5 -22q-33 0 -56.5 21.5t-23.5 55.5zM696 182 q0 33 23.5 56.5t56.5 23.5q35 0 56.5 -23.5t21.5 -56.5t-22.5 -56.5t-55.5 -23.5t-56.5 22.5t-23.5 57.5zM711 918q0 33 21.5 55t55.5 22q31 0 55.5 -23t24.5 -54q0 -35 -23.5 -57.5t-56.5 -22.5q-35 0 -56 22.5t-21 57.5zM776 1108q0 33 23.5 56.5t56.5 23.5t56.5 -24.5 t23.5 -55.5q0 -33 -22.5 -56.5t-57.5 -23.5q-33 0 -56.5 23.5t-23.5 56.5zM887 182q0 33 23.5 56.5t56.5 23.5t55 -23.5t22 -56.5t-23 -56.5t-54 -23.5q-33 0 -56.5 22.5t-23.5 57.5z" />
<glyph unicode="[" horiz-adv-x="768" d="M104 -217v1767h684v-481h-182v-807h182v-479h-684zM186 -135h521v315h-183v971h183v317h-521v-1603zM281 23q0 33 22.5 56t54.5 23q35 0 57.5 -23t22.5 -56t-22.5 -56.5t-57.5 -23.5q-33 0 -55 23.5t-22 56.5zM281 244q0 33 22.5 56.5t54.5 23.5q35 0 57.5 -23.5 t22.5 -56.5q0 -35 -22.5 -56.5t-57.5 -21.5q-33 0 -55 21.5t-22 56.5zM281 449q0 35 22.5 57t54.5 22q35 0 57.5 -22t22.5 -57q0 -33 -22.5 -55.5t-57.5 -22.5q-33 0 -55 22.5t-22 55.5zM281 662q0 33 22.5 56t54.5 23q35 0 57.5 -23t22.5 -56q0 -35 -22.5 -56.5 t-57.5 -21.5q-33 0 -55 21.5t-22 56.5zM281 870q0 33 22.5 56.5t54.5 23.5q35 0 57.5 -23.5t22.5 -56.5t-22.5 -56t-57.5 -23q-33 0 -55 23.5t-22 55.5zM281 1085q0 33 22.5 56.5t54.5 23.5q35 0 57.5 -23.5t22.5 -56.5t-22.5 -56t-57.5 -23q-33 0 -55 23.5t-22 55.5z M281 1305q0 33 22.5 55t54.5 22q35 0 57.5 -22t22.5 -55t-22.5 -56.5t-57.5 -23.5q-33 0 -55 23.5t-22 56.5zM471 23q0 33 23.5 56t56.5 23t55.5 -23.5t22.5 -55.5q0 -33 -22.5 -56.5t-55.5 -23.5t-56.5 23.5t-23.5 56.5zM471 1305q0 33 23.5 55t56.5 22t55.5 -22.5 t22.5 -54.5q0 -33 -22.5 -56.5t-55.5 -23.5t-56.5 23.5t-23.5 56.5z" />
<glyph unicode="\" horiz-adv-x="815" d="M-41 1391h504l393 -1493h-516zM66 1309l337 -1329h347l-351 1329h-333zM186 1159q0 35 22.5 57.5t57.5 22.5q31 0 55.5 -23.5t24.5 -56.5t-23.5 -55.5t-56.5 -22.5q-35 0 -57.5 22.5t-22.5 55.5zM229 993q0 31 25 54.5t55 23.5q35 0 57.5 -22.5t22.5 -55.5t-22.5 -56.5 t-57.5 -23.5q-33 0 -56.5 24t-23.5 56zM276 823q0 35 24 56.5t56 21.5q33 0 55.5 -21.5t22.5 -56.5q0 -33 -23.5 -56.5t-54.5 -23.5q-33 0 -56.5 24t-23.5 56zM322 655q0 33 21.5 56.5t55.5 23.5q33 0 56.5 -23.5t23.5 -56.5t-23.5 -56.5t-56.5 -23.5t-55 24t-22 56z M367 487q0 35 22.5 56.5t54.5 21.5q33 0 56.5 -22.5t23.5 -55.5t-22.5 -56t-57.5 -23q-33 0 -55 23.5t-22 55.5zM412 319q0 31 23.5 55.5t53.5 24.5q33 0 56.5 -23.5t23.5 -56.5t-23.5 -55t-56.5 -22t-55 22.5t-22 54.5zM457 150q0 35 23.5 57t56.5 22t55 -22.5t22 -56.5 q0 -31 -23 -55.5t-54 -24.5q-33 0 -56.5 23.5t-23.5 56.5z" />
<glyph unicode="]" horiz-adv-x="768" d="M-20 -217v479h182v807h-182v481h684v-1767h-684zM61 -135h521v1603h-521v-317h183v-971h-183v-315zM139 23q0 33 22.5 56t55.5 23t56.5 -23t23.5 -56t-23.5 -56.5t-56.5 -23.5t-55.5 23.5t-22.5 56.5zM139 1305q0 33 22.5 55t55.5 22t56.5 -22t23.5 -55t-23.5 -56.5 t-56.5 -23.5t-55.5 23.5t-22.5 56.5zM330 23q0 33 22.5 56t57.5 23q33 0 55 -23.5t22 -55.5q0 -33 -22 -56.5t-55 -23.5q-35 0 -57.5 23.5t-22.5 56.5zM330 244q0 33 22.5 56.5t57.5 23.5q33 0 55 -23.5t22 -56.5q0 -35 -22.5 -56.5t-54.5 -21.5q-35 0 -57.5 21.5 t-22.5 56.5zM330 449q0 35 22.5 57t57.5 22q33 0 55 -22t22 -57q0 -33 -22.5 -55.5t-54.5 -22.5q-35 0 -57.5 22.5t-22.5 55.5zM330 662q0 33 22.5 56t57.5 23q33 0 55 -23t22 -56q0 -35 -22.5 -56.5t-54.5 -21.5q-35 0 -57.5 21.5t-22.5 56.5zM330 870q0 33 22.5 56.5 t57.5 23.5q33 0 55 -23.5t22 -56.5t-22 -56t-55 -23q-35 0 -57.5 23.5t-22.5 55.5zM330 1085q0 33 22.5 56.5t57.5 23.5q33 0 55 -23.5t22 -56.5t-22 -56t-55 -23q-35 0 -57.5 23.5t-22.5 55.5zM330 1305q0 33 22.5 55t57.5 22q33 0 55 -22.5t22 -54.5q0 -33 -22 -56.5 t-55 -23.5q-35 0 -57.5 23.5t-22.5 56.5z" />
<glyph unicode="^" horiz-adv-x="1173" d="M-20 315l407 1055h397l410 -1051h-500l-108 293l-111 -297h-495zM98 397h318l170 455l166 -451h323l-346 887h-287zM225 524q0 33 22.5 56.5t55.5 23.5t56.5 -22.5t23.5 -57.5q0 -33 -23.5 -55.5t-56.5 -22.5q-35 0 -56.5 23t-21.5 55zM291 686q0 33 22.5 56.5t55.5 23.5 t56.5 -24.5t23.5 -55.5q0 -33 -23 -55.5t-57 -22.5q-33 0 -55.5 22.5t-22.5 55.5zM356 848q0 33 22.5 56.5t55.5 23.5t56.5 -24.5t23.5 -55.5q0 -33 -23.5 -56.5t-56.5 -23.5t-55.5 23.5t-22.5 56.5zM422 1010q0 33 22.5 56.5t55.5 23.5t56.5 -24t23.5 -56 q0 -35 -23.5 -57.5t-56.5 -22.5t-55.5 22.5t-22.5 57.5zM506 1163q0 33 21.5 55.5t56.5 22.5q33 0 56.5 -22.5t23.5 -55.5t-24 -56.5t-56 -23.5q-35 0 -56.5 23.5t-21.5 56.5zM592 1010q0 33 22.5 56.5t55.5 23.5t56.5 -24.5t23.5 -55.5q0 -35 -22.5 -57.5t-57.5 -22.5 q-33 0 -55.5 22.5t-22.5 57.5zM657 848q0 33 22.5 56.5t55.5 23.5q31 0 55.5 -24.5t24.5 -55.5q0 -33 -23.5 -56.5t-56.5 -23.5t-55.5 23.5t-22.5 56.5zM723 686q0 33 21.5 56.5t56.5 23.5q33 0 56.5 -23.5t23.5 -56.5t-23.5 -55.5t-56.5 -22.5q-35 0 -56.5 22.5t-21.5 55.5 zM786 524q0 33 24 56.5t54 23.5q35 0 57.5 -22.5t22.5 -57.5q0 -33 -22.5 -55.5t-57.5 -22.5q-33 0 -55.5 23t-22.5 55z" />
<glyph unicode="_" horiz-adv-x="1155" d="M16 31h1123v-434h-1123v434zM98 -51v-271h959v271h-959zM150 -184q0 33 22.5 56.5t54.5 23.5q33 0 56.5 -24.5t23.5 -55.5q0 -35 -22.5 -57.5t-57.5 -22.5q-33 0 -55 22.5t-22 57.5zM324 -184q0 33 22.5 56.5t54.5 23.5q33 0 56.5 -24.5t23.5 -55.5q0 -35 -22.5 -57.5 t-57.5 -22.5q-33 0 -55 22.5t-22 57.5zM498 -184q0 33 22.5 56.5t57.5 23.5q31 0 55 -24.5t24 -55.5q0 -35 -23.5 -57.5t-55.5 -22.5q-35 0 -57.5 22.5t-22.5 57.5zM672 -184q0 33 23.5 56.5t56.5 23.5q31 0 54 -25t23 -55q0 -35 -22 -57.5t-55 -22.5t-56.5 22.5t-23.5 57.5 zM846 -184q0 33 23.5 56.5t56.5 23.5q31 0 54.5 -25t23.5 -55q0 -35 -22.5 -57.5t-55.5 -22.5t-56.5 22.5t-23.5 57.5z" />
<glyph unicode="`" horiz-adv-x="626" d="M-55 1884h536l162 -616h-420zM70 1802l204 -452h263l-119 452h-348zM211 1669q0 33 22.5 55.5t57.5 22.5q33 0 56.5 -22.5t23.5 -55.5t-23.5 -56.5t-56.5 -23.5q-35 0 -57.5 23.5t-22.5 56.5zM287 1479q0 33 23.5 55t56.5 22q35 0 57 -22t22 -55q0 -35 -22.5 -57.5 t-56.5 -22.5q-33 0 -56.5 22.5t-23.5 57.5z" />
<glyph unicode="a" d="M-31 -51l492 1421h561l496 -1423v-29h-594l-39 135h-285l-43 -135h-588v31zM74 0h424l43 135h407l41 -135h422l-448 1288h-443zM240 145q0 33 21.5 55.5t55.5 22.5q31 0 55.5 -23.5t24.5 -54.5q0 -35 -23.5 -57t-56.5 -22q-35 0 -56 22.5t-21 56.5zM295 307 q0 35 23.5 57.5t56.5 22.5q31 0 55.5 -23.5t24.5 -56.5t-23.5 -55.5t-56.5 -22.5t-56.5 22.5t-23.5 55.5zM352 473q0 33 22.5 56.5t55.5 23.5t56.5 -24.5t23.5 -55.5q0 -33 -23.5 -56.5t-56.5 -23.5t-55.5 23.5t-22.5 56.5zM410 639q0 33 22.5 56.5t54.5 23.5 q33 0 56.5 -24.5t23.5 -55.5q0 -33 -23.5 -56.5t-56.5 -23.5t-55 23.5t-22 56.5zM467 803q0 33 22.5 56.5t55.5 23.5t56.5 -24.5t23.5 -55.5q0 -33 -23.5 -56.5t-56.5 -23.5t-55.5 23.5t-22.5 56.5zM475 301q0 33 22.5 56.5t55.5 23.5t56.5 -23.5t23.5 -56.5 q0 -35 -23.5 -57.5t-56.5 -22.5t-55.5 23.5t-22.5 56.5zM522 969q0 33 22.5 56.5t55.5 23.5t56.5 -24.5t23.5 -55.5q0 -33 -23.5 -56.5t-56.5 -23.5t-55.5 23.5t-22.5 56.5zM575 1133q0 33 23 55t57 22q31 0 54.5 -23.5t23.5 -53.5q0 -35 -22.5 -57.5t-55.5 -22.5 q-35 0 -57.5 22.5t-22.5 57.5zM633 457l108 374l111 -374h-219zM657 301q0 33 24 56.5t56 23.5q35 0 57.5 -23.5t22.5 -56.5q0 -35 -22.5 -57.5t-57.5 -22.5q-31 0 -55.5 23.5t-24.5 56.5zM750 1133q0 33 23.5 55t55.5 22q31 0 54.5 -23.5t23.5 -53.5q0 -35 -22.5 -57.5 t-55.5 -22.5t-56 22.5t-23 57.5zM797 967q0 33 22.5 56.5t54.5 23.5q33 0 56.5 -23.5t23.5 -56.5t-23.5 -56.5t-56.5 -23.5q-35 0 -56 23.5t-21 56.5zM848 301q0 33 23.5 56.5t56.5 23.5t55.5 -23.5t22.5 -56.5q0 -35 -22.5 -57.5t-55.5 -22.5t-56.5 23.5t-23.5 56.5z M852 801q0 33 23.5 56.5t56.5 23.5t56.5 -22.5t23.5 -57.5q0 -33 -23.5 -55.5t-56.5 -22.5q-35 0 -57.5 22.5t-22.5 55.5zM909 639q0 33 23.5 55.5t56.5 22.5t55.5 -22.5t22.5 -55.5q0 -35 -22.5 -57.5t-55.5 -22.5t-56.5 22.5t-23.5 57.5zM967 473q0 33 22.5 56.5 t54.5 23.5q33 0 56.5 -24.5t23.5 -55.5q0 -33 -23.5 -56.5t-56.5 -23.5t-55 23.5t-22 56.5zM1024 307q0 35 22.5 57.5t55.5 22.5q31 0 55.5 -23.5t24.5 -56.5t-23.5 -55.5t-56.5 -22.5t-55.5 22.5t-22.5 55.5zM1077 145q0 31 24.5 54.5t55.5 23.5q35 0 57.5 -22.5 t22.5 -55.5q0 -35 -22.5 -57t-57.5 -22q-33 0 -56.5 22.5t-23.5 56.5z" />
<glyph unicode="b" horiz-adv-x="1177" d="M55 -82v1452h572q111 0 201 -30.5t154.5 -89t99 -141.5t34.5 -189q0 -150 -80 -248q45 -51 71 -122t26 -153q0 -236 -133.5 -357.5t-395.5 -121.5h-549zM137 0h467q221 0 334 102.5t113 294.5q0 94 -38 166t-98 107q119 88 119 250q0 86 -29.5 154.5t-83 116.5t-128 72.5 t-166.5 24.5h-490v-1288zM240 166q0 33 22.5 56.5t54.5 23.5q33 0 56.5 -23.5t23.5 -56.5q0 -35 -23.5 -56.5t-56.5 -21.5t-55 21.5t-22 56.5zM240 356q0 33 22.5 56.5t54.5 23.5q33 0 56.5 -23.5t23.5 -56.5t-23.5 -56.5t-56.5 -23.5t-55 24t-22 56zM240 563 q0 33 22.5 55.5t54.5 22.5q33 0 56.5 -22.5t23.5 -55.5q0 -35 -23.5 -57.5t-56.5 -22.5t-55 22.5t-22 57.5zM240 752q0 33 22.5 56t54.5 23q33 0 56.5 -23t23.5 -56t-23.5 -56.5t-56.5 -23.5t-55 23.5t-22 56.5zM240 940q0 35 22.5 57.5t54.5 22.5q33 0 56.5 -22.5 t23.5 -57.5q0 -33 -23.5 -55.5t-56.5 -22.5t-55 22.5t-22 55.5zM240 1133q0 33 22.5 55t54.5 22q33 0 56.5 -22t23.5 -55q0 -35 -23.5 -57.5t-56.5 -22.5t-55 22.5t-22 57.5zM420 666q0 35 21.5 57t56.5 22q33 0 56.5 -22t23.5 -57q0 -33 -24 -56.5t-56 -23.5 q-33 0 -55.5 24.5t-22.5 55.5zM432 1135q0 35 22.5 57t55.5 22t56.5 -22t23.5 -57q0 -33 -24.5 -55.5t-55.5 -22.5q-33 0 -55.5 22.5t-22.5 55.5zM442 166q0 33 22.5 56.5t55.5 23.5q35 0 57.5 -23.5t22.5 -56.5q0 -35 -22.5 -56.5t-57.5 -21.5q-33 0 -55.5 21.5t-22.5 56.5 zM512 311v205h27q131 0 131 -102q0 -47 -30 -75t-77 -28h-51zM512 803v190q74 0 109.5 -19.5t35.5 -76.5q0 -53 -31.5 -73.5t-113.5 -20.5zM608 670q0 33 22.5 55.5t57.5 22.5q33 0 55.5 -23t22.5 -55q0 -35 -22.5 -57.5t-55.5 -22.5q-35 0 -57.5 22.5t-22.5 57.5zM621 1112 q0 35 23.5 57.5t55.5 22.5q33 0 55.5 -23.5t22.5 -56.5t-21.5 -55.5t-56.5 -22.5q-33 0 -56 22.5t-23 55.5zM645 203q0 35 21.5 57.5t56.5 22.5q33 0 56.5 -22.5t23.5 -57.5q0 -33 -23.5 -56.5t-56.5 -23.5q-35 0 -56.5 23.5t-21.5 56.5zM741 809q0 35 22.5 56.5t55.5 21.5 t56.5 -22.5t23.5 -57.5q0 -31 -23.5 -55.5t-56.5 -24.5t-55.5 24.5t-22.5 57.5zM754 541q0 33 23.5 55t53.5 22q35 0 57.5 -21t22.5 -56q0 -33 -22.5 -56.5t-57.5 -23.5q-33 0 -55 23.5t-22 56.5zM760 989q0 33 23.5 56.5t56.5 23.5t55.5 -23.5t22.5 -56.5 q0 -31 -22.5 -55.5t-55.5 -24.5t-56.5 23.5t-23.5 56.5zM776 350q0 35 21.5 56.5t56.5 21.5q33 0 56.5 -21.5t23.5 -56.5q0 -33 -23.5 -56.5t-56.5 -23.5q-35 0 -56.5 23.5t-21.5 56.5z" />
<glyph unicode="c" horiz-adv-x="1433" d="M29 643q0 166 55 303t155.5 237.5t236.5 156t300 55.5q236 0 392.5 -98.5t261.5 -284.5l-408 -361q-12 61 -39 102.5t-60.5 67t-69.5 36.5t-67 11q-92 0 -149 -63.5t-57 -161.5q0 -94 54 -158.5t152 -64.5q76 0 135.5 58.5t98.5 150.5l440 -295q-51 -96 -117.5 -177 t-150.5 -139.5t-187.5 -91t-228.5 -32.5q-164 0 -300 55t-236.5 155.5t-155.5 237.5t-55 301zM111 643q0 -145 49 -268t138 -212t211 -138.5t267 -49.5q111 0 201 26t161.5 70t125 105.5t92.5 134.5l-291 209q-31 -78 -98.5 -130t-180.5 -52q-66 0 -119 23.5t-90.5 64.5 t-58 96.5t-20.5 120.5q0 66 20.5 122t59 97t91 64.5t117.5 23.5q182 0 263 -182l278 258q-78 141 -209 214t-342 73q-145 0 -267 -49.5t-211 -138.5t-138 -211.5t-49 -270.5zM227 647q0 35 21.5 56.5t56.5 21.5q33 0 56.5 -21.5t23.5 -56.5q0 -33 -23.5 -56.5t-56.5 -23.5 q-35 0 -56.5 23.5t-21.5 56.5zM258 461q0 35 22.5 57.5t55.5 22.5t56.5 -22.5t23.5 -57.5q0 -33 -23.5 -56.5t-56.5 -23.5q-31 0 -54.5 24.5t-23.5 55.5zM258 825q0 35 22.5 57.5t55.5 22.5t56.5 -22.5t23.5 -57.5q0 -33 -23.5 -55t-56.5 -22q-31 0 -54.5 23.5t-23.5 53.5z M356 977q0 33 23.5 56.5t56.5 23.5t56.5 -23.5t23.5 -56.5t-24.5 -56.5t-55.5 -23.5q-33 0 -56.5 23.5t-23.5 56.5zM360 305q0 33 24 55.5t56 22.5q33 0 55.5 -22.5t22.5 -55.5q0 -31 -23.5 -55.5t-54.5 -24.5q-33 0 -56.5 23.5t-23.5 56.5zM508 1090q0 33 21.5 55t56.5 22 q33 0 56.5 -22t23.5 -55q0 -31 -25 -55.5t-55 -24.5q-35 0 -56.5 23.5t-21.5 56.5zM510 199q0 33 22.5 56.5t57.5 23.5q33 0 56.5 -23.5t23.5 -56.5t-24.5 -55.5t-55.5 -22.5q-35 0 -57.5 22.5t-22.5 55.5zM690 156q0 33 23.5 55t56.5 22q35 0 57.5 -22t22.5 -55 t-22.5 -56.5t-57.5 -23.5q-33 0 -56.5 23.5t-23.5 56.5zM690 1135q0 31 24.5 54t55.5 23q35 0 57.5 -22t22.5 -55q0 -35 -22.5 -57.5t-57.5 -22.5q-33 0 -56.5 22.5t-23.5 57.5zM874 1100q0 33 24 55.5t56 22.5q35 0 57.5 -22.5t22.5 -55.5q0 -31 -23.5 -55.5t-56.5 -24.5 t-56.5 23.5t-23.5 56.5zM879 193q0 33 23.5 56t55.5 23q35 0 56.5 -23.5t21.5 -55.5q0 -33 -22.5 -56.5t-55.5 -23.5t-56 23.5t-23 56.5zM1032 995q0 33 22.5 55.5t55.5 22.5t56.5 -22.5t23.5 -55.5t-23.5 -56.5t-56.5 -23.5t-55.5 24t-22.5 56zM1036 301q0 33 23.5 56.5 t56.5 23.5t56.5 -23.5t23.5 -56.5q0 -31 -24.5 -55.5t-55.5 -24.5q-33 0 -56.5 23.5t-23.5 56.5z" />
<glyph unicode="d" horiz-adv-x="1300" d="M55 -82v1456h439q160 0 300 -45t246.5 -134t168 -224t61.5 -316q0 -152 -47 -285.5t-143.5 -234t-243 -159t-342.5 -58.5h-439zM137 0h357q176 0 307 51t217 140.5t128 209t42 254.5q0 160 -55.5 280t-149.5 198.5t-221 118.5t-268 40h-357v-1292zM254 176 q0 33 23.5 55.5t56.5 22.5q35 0 56.5 -22.5t21.5 -55.5t-21.5 -56.5t-56.5 -23.5q-33 0 -56.5 23.5t-23.5 56.5zM254 367q0 33 23.5 56t56.5 23q35 0 56.5 -23.5t21.5 -55.5q0 -35 -21.5 -57.5t-56.5 -22.5q-33 0 -56.5 22.5t-23.5 57.5zM254 555q0 33 23.5 56.5t56.5 23.5 q35 0 56.5 -23.5t21.5 -56.5t-21.5 -55.5t-56.5 -22.5q-33 0 -56.5 22.5t-23.5 55.5zM254 745q0 35 23.5 56.5t56.5 21.5q35 0 56.5 -21.5t21.5 -56.5q0 -33 -21.5 -56t-56.5 -23q-33 0 -56.5 23.5t-23.5 55.5zM254 936q0 33 23.5 56.5t56.5 23.5q35 0 56.5 -23.5 t21.5 -56.5q0 -35 -21.5 -57.5t-56.5 -22.5q-33 0 -56.5 22.5t-23.5 57.5zM254 1124q0 33 23.5 56.5t56.5 23.5q35 0 56.5 -23.5t21.5 -56.5t-21.5 -55t-56.5 -22q-33 0 -56.5 22.5t-23.5 54.5zM432 156q0 33 23.5 55t56.5 22q35 0 57.5 -22t22.5 -55t-22.5 -56.5 t-57.5 -23.5q-33 0 -56.5 23.5t-23.5 56.5zM432 1135q0 31 24.5 54t55.5 23q35 0 57.5 -22t22.5 -55q0 -35 -22.5 -57.5t-57.5 -22.5q-33 0 -56.5 22.5t-23.5 57.5zM510 338v616q278 0 278 -307q0 -149 -71.5 -229t-206.5 -80zM633 201q0 33 23.5 56.5t56.5 23.5t55.5 -23.5 t22.5 -56.5t-23 -55.5t-55 -22.5q-33 0 -56.5 22.5t-23.5 55.5zM633 1085q0 33 23.5 56.5t56.5 23.5t55.5 -23.5t22.5 -56.5q0 -31 -22.5 -55t-55.5 -24t-56.5 23.5t-23.5 55.5zM776 315q0 33 23.5 55.5t56.5 22.5t56.5 -22.5t23.5 -55.5q0 -31 -24.5 -55t-55.5 -24 q-33 0 -56.5 23.5t-23.5 55.5zM776 973q0 33 23.5 55.5t56.5 22.5t56.5 -22.5t23.5 -55.5t-24.5 -56.5t-55.5 -23.5q-33 0 -56.5 23.5t-23.5 56.5zM877 465q0 35 22.5 56.5t56.5 21.5q33 0 55.5 -21.5t22.5 -56.5q0 -33 -22.5 -56.5t-55.5 -23.5q-35 0 -57 23.5t-22 56.5z M877 821q0 35 22.5 56.5t56.5 21.5q33 0 55.5 -21.5t22.5 -56.5q0 -33 -22.5 -56.5t-55.5 -23.5q-35 0 -57 23.5t-22 56.5zM909 643q0 35 23.5 57.5t56.5 22.5t55.5 -23.5t22.5 -56.5t-22.5 -55.5t-55.5 -22.5t-56.5 22.5t-23.5 55.5z" />
<glyph unicode="e" horiz-adv-x="1032" d="M55 -82v1452h936v-1452h-936zM137 0h772v338h-372v149h372v326h-372v150h372v325h-772v-1288zM254 176q0 33 23.5 55.5t56.5 22.5q35 0 56.5 -22.5t21.5 -55.5t-21.5 -56.5t-56.5 -23.5q-33 0 -56.5 23.5t-23.5 56.5zM254 367q0 33 23.5 56t56.5 23q35 0 56.5 -23.5 t21.5 -55.5q0 -35 -21.5 -57.5t-56.5 -22.5q-33 0 -56.5 22.5t-23.5 57.5zM254 555q0 33 23.5 56.5t56.5 23.5q35 0 56.5 -23.5t21.5 -56.5t-21.5 -55.5t-56.5 -22.5q-33 0 -56.5 22.5t-23.5 55.5zM254 745q0 35 23.5 56.5t56.5 21.5q35 0 56.5 -21.5t21.5 -56.5 q0 -33 -21.5 -56t-56.5 -23q-33 0 -56.5 23.5t-23.5 55.5zM254 936q0 33 23.5 56.5t56.5 23.5q35 0 56.5 -23.5t21.5 -56.5q0 -35 -21.5 -57.5t-56.5 -22.5q-33 0 -56.5 22.5t-23.5 57.5zM254 1124q0 33 23.5 56.5t56.5 23.5q35 0 56.5 -23.5t21.5 -56.5t-21.5 -55 t-56.5 -22q-33 0 -56.5 22.5t-23.5 54.5zM444 176q0 33 22.5 55.5t57.5 22.5q33 0 56.5 -22.5t23.5 -55.5t-23.5 -56.5t-56.5 -23.5q-35 0 -57.5 23.5t-22.5 56.5zM444 651q0 33 22.5 55.5t57.5 22.5q33 0 56.5 -22.5t23.5 -55.5t-23.5 -56.5t-56.5 -23.5q-35 0 -57.5 23.5 t-22.5 56.5zM444 1124q0 33 22.5 56.5t57.5 23.5q33 0 56.5 -23.5t23.5 -56.5t-23.5 -55t-56.5 -22q-35 0 -57.5 22.5t-22.5 54.5zM635 176q0 33 22.5 55.5t55.5 22.5t56.5 -22.5t23.5 -55.5t-24 -56.5t-56 -23.5q-33 0 -55.5 23.5t-22.5 56.5zM635 651q0 33 22.5 55.5 t55.5 22.5t56.5 -22.5t23.5 -55.5t-24 -56.5t-56 -23.5q-33 0 -55.5 23.5t-22.5 56.5zM635 1124q0 33 22.5 56.5t55.5 23.5t56.5 -23.5t23.5 -56.5t-24 -55t-56 -22q-33 0 -55.5 22.5t-22.5 54.5z" />
<glyph unicode="f" horiz-adv-x="1009" d="M55 -82v1452h936v-964h-373v-488h-563zM137 0h400v487h372v326h-372v150h372v325h-772v-1288zM254 176q0 33 23.5 55.5t56.5 22.5q35 0 56.5 -22.5t21.5 -55.5t-21.5 -56.5t-56.5 -23.5q-33 0 -56.5 23.5t-23.5 56.5zM254 367q0 33 23.5 56t56.5 23q35 0 56.5 -23.5 t21.5 -55.5q0 -35 -21.5 -57.5t-56.5 -22.5q-33 0 -56.5 22.5t-23.5 57.5zM254 555q0 33 23.5 56.5t56.5 23.5q35 0 56.5 -23.5t21.5 -56.5t-21.5 -55.5t-56.5 -22.5q-33 0 -56.5 22.5t-23.5 55.5zM254 745q0 35 23.5 56.5t56.5 21.5q35 0 56.5 -21.5t21.5 -56.5 q0 -33 -21.5 -56t-56.5 -23q-33 0 -56.5 23.5t-23.5 55.5zM254 936q0 33 23.5 56.5t56.5 23.5q35 0 56.5 -23.5t21.5 -56.5q0 -35 -21.5 -57.5t-56.5 -22.5q-33 0 -56.5 22.5t-23.5 57.5zM254 1124q0 33 23.5 56.5t56.5 23.5q35 0 56.5 -23.5t21.5 -56.5t-21.5 -55 t-56.5 -22q-33 0 -56.5 22.5t-23.5 54.5zM444 651q0 33 22.5 55.5t57.5 22.5q33 0 56.5 -22.5t23.5 -55.5t-23.5 -56.5t-56.5 -23.5q-35 0 -57.5 23.5t-22.5 56.5zM444 1124q0 33 22.5 56.5t57.5 23.5q33 0 56.5 -23.5t23.5 -56.5t-23.5 -55t-56.5 -22q-35 0 -57.5 22.5 t-22.5 54.5zM635 651q0 33 22.5 55.5t55.5 22.5t56.5 -22.5t23.5 -55.5t-24 -56.5t-56 -23.5q-33 0 -55.5 23.5t-22.5 56.5zM635 1124q0 33 22.5 56.5t55.5 23.5t56.5 -23.5t23.5 -56.5t-24 -55t-56 -22q-33 0 -55.5 22.5t-22.5 54.5z" />
<glyph unicode="g" horiz-adv-x="1568" d="M35 643q0 162 57.5 300t158.5 238.5t241.5 157t306.5 56.5q131 0 232.5 -27t179 -77t139 -124.5t114.5 -171.5l-194 -145h258q4 -59 9 -114.5t5 -102.5q0 -129 -37 -252t-127 -229q-104 -123 -254.5 -190.5t-330.5 -67.5q-166 0 -304.5 54t-240 153.5t-157.5 237.5 t-56 304zM117 643q0 -147 50 -270t140 -211t214 -137.5t272 -49.5q162 0 296 59.5t226 170.5q80 96 112.5 203.5t32.5 224.5q0 35 -2 68.5t-6 68.5h-696v-324h270q-85 -114 -223 -114h-2q-66 0 -119 24.5t-90 67.5t-56.5 99.5t-19.5 119.5q0 74 21.5 132.5t59.5 98t88 61 t110 21.5q113 0 174 -36.5t108 -118.5l281 217q-39 70 -87 125t-113.5 93t-154 57.5t-204.5 19.5q-147 0 -273.5 -50.5t-216.5 -140.5t-141 -213t-51 -266zM248 643q0 35 21.5 57.5t56.5 22.5q33 0 56.5 -22.5t23.5 -57.5q0 -33 -24 -55.5t-56 -22.5q-35 0 -56.5 22.5 t-21.5 55.5zM279 465q0 35 22.5 56.5t54.5 21.5q33 0 56.5 -21.5t23.5 -56.5q0 -33 -23.5 -56.5t-56.5 -23.5q-31 0 -54 24.5t-23 55.5zM279 821q0 35 22.5 56.5t54.5 21.5q33 0 56.5 -21.5t23.5 -56.5q0 -33 -23.5 -56.5t-56.5 -23.5q-31 0 -54 25t-23 55zM379 315 q0 33 23.5 55.5t56.5 22.5t56.5 -22.5t23.5 -55.5q0 -31 -25 -55t-55 -24q-33 0 -56.5 23.5t-23.5 55.5zM379 973q0 33 23.5 55.5t56.5 22.5t56.5 -22.5t23.5 -55.5t-25 -56.5t-55 -23.5q-33 0 -56.5 23.5t-23.5 56.5zM524 201q0 33 22.5 56.5t57.5 23.5q33 0 55.5 -23.5 t22.5 -56.5t-23.5 -55.5t-54.5 -22.5q-35 0 -57.5 22.5t-22.5 55.5zM528 1085q0 33 22.5 56.5t57.5 23.5q33 0 56.5 -23.5t23.5 -56.5q0 -31 -24.5 -55t-55.5 -24q-35 0 -57.5 23.5t-22.5 55.5zM705 156q0 33 23.5 55t55.5 22q35 0 56.5 -22.5t21.5 -54.5q0 -33 -21.5 -56.5 t-56.5 -23.5q-33 0 -56 23.5t-23 56.5zM707 1130q0 31 23.5 55.5t55.5 24.5q35 0 56.5 -23.5t21.5 -56.5q0 -35 -21.5 -57t-56.5 -22q-33 0 -56 22.5t-23 56.5zM834 608q0 35 23.5 57.5t55.5 22.5q31 0 54.5 -23.5t23.5 -56.5t-22.5 -55.5t-55.5 -22.5t-56 22.5t-23 55.5z M891 188q0 35 23.5 56.5t56.5 21.5t55.5 -21.5t22.5 -56.5q0 -33 -23.5 -56t-54.5 -23q-33 0 -56.5 23.5t-23.5 55.5zM895 1102q0 33 22.5 55.5t55.5 22.5q35 0 57.5 -22.5t22.5 -55.5t-23.5 -56.5t-56.5 -23.5t-55.5 23.5t-22.5 56.5zM1008 608q0 35 23.5 57.5t55.5 22.5 q31 0 54.5 -23.5t23.5 -56.5t-22.5 -55.5t-55.5 -22.5t-56 22.5t-23 55.5zM1034 291q0 35 22.5 57.5t57.5 22.5q33 0 56.5 -22.5t23.5 -57.5q0 -31 -24.5 -55.5t-55.5 -24.5q-35 0 -57.5 23.5t-22.5 56.5zM1057 999q0 33 22.5 56.5t55.5 23.5t56 -23.5t23 -56.5t-24.5 -56 t-54.5 -23q-33 0 -55.5 23.5t-22.5 55.5zM1143 436q0 33 22.5 56.5t55.5 23.5q35 0 57 -23.5t22 -56.5t-22.5 -55.5t-56.5 -22.5q-33 0 -55.5 22.5t-22.5 55.5zM1182 608q0 35 22.5 57.5t55.5 22.5t56 -23.5t23 -56.5t-22.5 -55.5t-56.5 -22.5q-33 0 -55.5 22.5t-22.5 55.5z " />
<glyph unicode="h" horiz-adv-x="1363" d="M55 -82v1452h563v-467h127v467h564v-1452h-564v485h-127v-485h-563zM137 0h400v485h290v-485h400v1288h-400v-467h-290v467h-400v-1288zM256 176q0 33 23.5 55.5t56.5 22.5t55.5 -22.5t22.5 -55.5t-22.5 -56.5t-55.5 -23.5t-56.5 23.5t-23.5 56.5zM256 367q0 33 23.5 56 t56.5 23t55.5 -23.5t22.5 -55.5q0 -35 -22.5 -57.5t-55.5 -22.5t-56.5 22.5t-23.5 57.5zM256 555q0 33 23.5 56.5t56.5 23.5t55.5 -23.5t22.5 -56.5t-22.5 -55.5t-55.5 -22.5t-56.5 22.5t-23.5 55.5zM256 745q0 35 23.5 56.5t56.5 21.5t55.5 -21.5t22.5 -56.5 q0 -33 -22.5 -56t-55.5 -23t-56.5 23.5t-23.5 55.5zM256 936q0 33 23.5 56.5t56.5 23.5t55.5 -23.5t22.5 -56.5q0 -35 -22.5 -57.5t-55.5 -22.5t-56.5 22.5t-23.5 57.5zM256 1124q0 33 23.5 56.5t56.5 23.5t55.5 -23.5t22.5 -56.5t-22.5 -55t-55.5 -22t-56.5 22.5 t-23.5 54.5zM426 657q0 33 22.5 56.5t57.5 23.5q33 0 55.5 -23.5t22.5 -56.5q0 -35 -22.5 -57t-55.5 -22q-35 0 -57.5 22.5t-22.5 56.5zM606 657q0 33 23.5 56.5t56.5 23.5t56.5 -23.5t23.5 -56.5q0 -35 -23.5 -57t-56.5 -22t-56.5 22.5t-23.5 56.5zM791 657q0 33 23.5 56.5 t55.5 23.5q35 0 56.5 -23.5t21.5 -56.5q0 -35 -21.5 -57t-56.5 -22q-33 0 -56 22.5t-23 56.5zM952 176q0 33 23.5 55.5t56.5 22.5t55.5 -22.5t22.5 -55.5t-22.5 -56.5t-55.5 -23.5t-56.5 23.5t-23.5 56.5zM952 367q0 33 23.5 56t56.5 23t55.5 -23.5t22.5 -55.5 q0 -35 -22.5 -57.5t-55.5 -22.5t-56.5 22.5t-23.5 57.5zM952 555q0 33 23.5 56.5t56.5 23.5t55.5 -23.5t22.5 -56.5t-22.5 -55.5t-55.5 -22.5t-56.5 22.5t-23.5 55.5zM952 745q0 35 23.5 56.5t56.5 21.5t55.5 -21.5t22.5 -56.5q0 -33 -22.5 -56t-55.5 -23t-56.5 23.5 t-23.5 55.5zM952 936q0 33 23.5 56.5t56.5 23.5t55.5 -23.5t22.5 -56.5q0 -35 -22.5 -57.5t-55.5 -22.5t-56.5 22.5t-23.5 57.5zM952 1124q0 33 23.5 56.5t56.5 23.5t55.5 -23.5t22.5 -56.5t-22.5 -55t-55.5 -22t-56.5 22.5t-23.5 54.5z" />
<glyph unicode="i" horiz-adv-x="677" d="M55 -82v1452h568v-1452h-568zM137 0h404v1288h-404v-1288zM254 176q0 33 23.5 55.5t56.5 22.5q35 0 56.5 -22.5t21.5 -55.5t-21.5 -56.5t-56.5 -23.5q-33 0 -56.5 23.5t-23.5 56.5zM254 367q0 33 23.5 56t56.5 23q35 0 56.5 -23.5t21.5 -55.5q0 -35 -21.5 -57.5 t-56.5 -22.5q-33 0 -56.5 22.5t-23.5 57.5zM254 555q0 33 23.5 56.5t56.5 23.5q35 0 56.5 -23.5t21.5 -56.5t-21.5 -55.5t-56.5 -22.5q-33 0 -56.5 22.5t-23.5 55.5zM254 745q0 35 23.5 56.5t56.5 21.5q35 0 56.5 -21.5t21.5 -56.5q0 -33 -21.5 -56t-56.5 -23 q-33 0 -56.5 23.5t-23.5 55.5zM254 936q0 33 23.5 56.5t56.5 23.5q35 0 56.5 -23.5t21.5 -56.5q0 -35 -21.5 -57.5t-56.5 -22.5q-33 0 -56.5 22.5t-23.5 57.5zM254 1124q0 33 23.5 56.5t56.5 23.5q35 0 56.5 -23.5t21.5 -56.5t-21.5 -55t-56.5 -22q-33 0 -56.5 22.5 t-23.5 54.5z" />
<glyph unicode="j" horiz-adv-x="911" d="M10 -59v493q66 -20 117 -26.5t113 -6.5q43 0 53 30t10 79v860h563v-878q0 -293 -140 -445.5t-402 -152.5q-86 0 -167 14t-147 33zM92 2q37 -10 95.5 -18.5t136.5 -8.5q223 0 341.5 132.5t118.5 384.5v796h-399v-778q0 -43 -4 -79t-19.5 -60.5t-44 -38t-77.5 -13.5 q-20 0 -53 2.5t-95 16.5v-336zM201 160q0 33 23.5 56.5t56.5 23.5t55 -23.5t22 -56.5t-22 -56.5t-55 -23.5t-56.5 23.5t-23.5 56.5zM389 209q0 33 23.5 55.5t56.5 22.5q35 0 57.5 -22.5t22.5 -55.5q0 -35 -22.5 -57.5t-57.5 -22.5q-33 0 -56.5 22.5t-23.5 57.5zM485 367 q0 33 22.5 56t57.5 23q33 0 56.5 -23t23.5 -56q0 -35 -23.5 -57.5t-56.5 -22.5q-35 0 -57.5 22.5t-22.5 57.5zM518 555q0 33 22.5 56.5t55.5 23.5t56.5 -23.5t23.5 -56.5t-23.5 -55.5t-56.5 -22.5t-55.5 22.5t-22.5 55.5zM518 745q0 35 22.5 56.5t55.5 21.5t56.5 -21.5 t23.5 -56.5q0 -33 -23.5 -56t-56.5 -23t-55.5 23.5t-22.5 55.5zM518 936q0 33 22.5 56.5t55.5 23.5t56.5 -23.5t23.5 -56.5q0 -35 -23.5 -57.5t-56.5 -22.5t-55.5 22.5t-22.5 57.5zM518 1124q0 33 22.5 56.5t55.5 23.5t56.5 -23.5t23.5 -56.5t-23.5 -55t-56.5 -22 t-55.5 22.5t-22.5 54.5z" />
<glyph unicode="k" horiz-adv-x="1187" d="M55 -82v1452h1174v-24l-383 -666l391 -739v-23h-1182zM137 0h400v303l133 -303h444l-360 682l348 606h-449l-116 -258v258h-400v-1288zM254 176q0 33 23.5 55.5t56.5 22.5q35 0 56.5 -22.5t21.5 -55.5t-21.5 -56.5t-56.5 -23.5q-33 0 -56.5 23.5t-23.5 56.5zM254 367 q0 33 23.5 56t56.5 23q35 0 56.5 -23.5t21.5 -55.5q0 -35 -21.5 -57.5t-56.5 -22.5q-33 0 -56.5 22.5t-23.5 57.5zM254 555q0 33 23.5 56.5t56.5 23.5q35 0 56.5 -23.5t21.5 -56.5t-21.5 -55.5t-56.5 -22.5q-33 0 -56.5 22.5t-23.5 55.5zM254 745q0 35 23.5 56.5t56.5 21.5 q35 0 56.5 -21.5t21.5 -56.5q0 -33 -21.5 -56t-56.5 -23q-33 0 -56.5 23.5t-23.5 55.5zM254 936q0 33 23.5 56.5t56.5 23.5q35 0 56.5 -23.5t21.5 -56.5q0 -35 -21.5 -57.5t-56.5 -22.5q-33 0 -56.5 22.5t-23.5 57.5zM254 1124q0 33 23.5 56.5t56.5 23.5q35 0 56.5 -23.5 t21.5 -56.5t-21.5 -55t-56.5 -22q-33 0 -56.5 22.5t-23.5 54.5zM432 657q0 33 23.5 56.5t56.5 23.5q35 0 57.5 -23.5t22.5 -56.5q0 -35 -22.5 -57t-57.5 -22q-33 0 -56.5 22.5t-23.5 56.5zM535 823q0 35 23.5 56.5t55.5 21.5q33 0 55.5 -21.5t22.5 -56.5q0 -33 -22.5 -56.5 t-55.5 -23.5t-56 24t-23 56zM547 489q0 35 22.5 56.5t57.5 21.5q33 0 55.5 -21.5t22.5 -56.5q0 -33 -22.5 -56t-55.5 -23q-35 0 -57.5 23.5t-22.5 55.5zM635 979q0 33 22.5 56.5t55.5 23.5t56.5 -23.5t23.5 -56.5t-24 -56.5t-56 -23.5q-33 0 -55.5 22.5t-22.5 57.5zM645 319 q0 33 21.5 56.5t56.5 23.5q33 0 56.5 -23.5t23.5 -56.5t-23.5 -55t-56.5 -22q-35 0 -56.5 22.5t-21.5 54.5zM735 156q0 33 23.5 55t56.5 22t56.5 -22t23.5 -55t-23.5 -56.5t-56.5 -23.5t-56.5 23.5t-23.5 56.5zM741 1143q0 35 21.5 56.5t56.5 21.5q33 0 56.5 -22.5 t23.5 -55.5t-23.5 -56.5t-56.5 -23.5q-35 0 -56.5 23.5t-21.5 56.5z" />
<glyph unicode="l" horiz-adv-x="933" d="M55 -82v1452h563v-950h306v-502h-869zM137 0h705v338h-305v950h-400v-1288zM254 176q0 33 23.5 55.5t56.5 22.5q35 0 56.5 -22.5t21.5 -55.5t-21.5 -56.5t-56.5 -23.5q-33 0 -56.5 23.5t-23.5 56.5zM254 367q0 33 23.5 56t56.5 23q35 0 56.5 -23.5t21.5 -55.5 q0 -35 -21.5 -57.5t-56.5 -22.5q-33 0 -56.5 22.5t-23.5 57.5zM254 555q0 33 23.5 56.5t56.5 23.5q35 0 56.5 -23.5t21.5 -56.5t-21.5 -55.5t-56.5 -22.5q-33 0 -56.5 22.5t-23.5 55.5zM254 745q0 35 23.5 56.5t56.5 21.5q35 0 56.5 -21.5t21.5 -56.5q0 -33 -21.5 -56 t-56.5 -23q-33 0 -56.5 23.5t-23.5 55.5zM254 936q0 33 23.5 56.5t56.5 23.5q35 0 56.5 -23.5t21.5 -56.5q0 -35 -21.5 -57.5t-56.5 -22.5q-33 0 -56.5 22.5t-23.5 57.5zM254 1124q0 33 23.5 56.5t56.5 23.5q35 0 56.5 -23.5t21.5 -56.5t-21.5 -55t-56.5 -22 q-33 0 -56.5 22.5t-23.5 54.5zM444 176q0 33 22.5 55.5t57.5 22.5q33 0 56.5 -22.5t23.5 -55.5t-23.5 -56.5t-56.5 -23.5q-35 0 -57.5 23.5t-22.5 56.5zM635 176q0 33 22.5 55.5t55.5 22.5t56.5 -22.5t23.5 -55.5t-24 -56.5t-56 -23.5q-33 0 -55.5 23.5t-22.5 56.5z" />
<glyph unicode="m" horiz-adv-x="1703" d="M51 -82v1452h586l217 -475l227 475h572v-1452h-539v389l-231 -495h-70l-223 487v-381h-539zM133 0h375v653l342 -741l346 745v-657h375v1288h-438l-281 -588l-266 588h-453v-1288zM250 176q0 33 23.5 55.5t56.5 22.5q35 0 57.5 -22.5t22.5 -55.5t-22.5 -56.5t-57.5 -23.5 q-33 0 -56.5 23.5t-23.5 56.5zM250 367q0 33 23.5 56t56.5 23q35 0 57.5 -23t22.5 -56q0 -35 -22.5 -57.5t-57.5 -22.5q-33 0 -56.5 22.5t-23.5 57.5zM250 555q0 33 23.5 56.5t56.5 23.5q35 0 57.5 -23.5t22.5 -56.5t-22.5 -55.5t-57.5 -22.5q-33 0 -56.5 22.5t-23.5 55.5z M250 745q0 35 23.5 56.5t56.5 21.5q35 0 57.5 -21.5t22.5 -56.5q0 -33 -22.5 -56t-57.5 -23q-33 0 -56.5 23.5t-23.5 55.5zM250 936q0 33 23.5 56.5t56.5 23.5q35 0 57.5 -23.5t22.5 -56.5q0 -35 -22.5 -57.5t-57.5 -22.5q-33 0 -56.5 22.5t-23.5 57.5zM250 1124 q0 33 23.5 56.5t56.5 23.5q35 0 57.5 -23.5t22.5 -56.5t-22.5 -55t-57.5 -22q-33 0 -56.5 22.5t-23.5 54.5zM430 1032q0 33 22.5 56.5t55.5 23.5q35 0 57.5 -23.5t22.5 -56.5t-22.5 -56.5t-57.5 -23.5q-33 0 -55.5 23.5t-22.5 56.5zM510 860q0 33 23.5 56.5t56.5 23.5 q35 0 57.5 -23.5t22.5 -56.5q0 -35 -22.5 -57.5t-57.5 -22.5q-33 0 -56.5 22.5t-23.5 57.5zM592 686q0 35 22.5 57.5t55.5 22.5q35 0 57.5 -22.5t22.5 -57.5q0 -31 -24 -54.5t-56 -23.5q-33 0 -55.5 22.5t-22.5 55.5zM670 516q0 31 24.5 55.5t55.5 24.5q35 0 57 -23.5 t22 -56.5t-22.5 -56.5t-56.5 -23.5q-33 0 -56.5 23.5t-23.5 56.5zM766 344q0 33 23.5 56.5t56.5 23.5q35 0 57.5 -23.5t22.5 -56.5q0 -35 -22.5 -57.5t-57.5 -22.5q-33 0 -56.5 22.5t-23.5 57.5zM874 516q0 33 24 56.5t56 23.5q31 0 55.5 -24.5t24.5 -55.5 q0 -33 -23.5 -56.5t-56.5 -23.5t-56.5 23.5t-23.5 56.5zM954 686q0 35 23.5 57.5t56.5 22.5t55.5 -22.5t22.5 -57.5q0 -33 -22.5 -55.5t-55.5 -22.5t-56.5 23.5t-23.5 54.5zM1034 860q0 33 22.5 56.5t57.5 23.5q33 0 56.5 -23.5t23.5 -56.5q0 -35 -23.5 -57.5t-56.5 -22.5 q-35 0 -57.5 22.5t-22.5 57.5zM1116 1032q0 33 22.5 56.5t57.5 23.5q33 0 55.5 -23.5t22.5 -56.5t-22.5 -56.5t-55.5 -23.5q-35 0 -57.5 23.5t-22.5 56.5zM1294 176q0 33 22.5 55.5t57.5 22.5q33 0 56.5 -22.5t23.5 -55.5t-23.5 -56.5t-56.5 -23.5q-35 0 -57.5 23.5 t-22.5 56.5zM1294 367q0 33 22.5 56t57.5 23q33 0 56.5 -23t23.5 -56q0 -35 -23.5 -57.5t-56.5 -22.5q-35 0 -57.5 22.5t-22.5 57.5zM1294 555q0 33 22.5 56.5t57.5 23.5q33 0 56.5 -23.5t23.5 -56.5t-23.5 -55.5t-56.5 -22.5q-35 0 -57.5 22.5t-22.5 55.5zM1294 745 q0 35 22.5 56.5t57.5 21.5q33 0 56.5 -21.5t23.5 -56.5q0 -33 -23.5 -56t-56.5 -23q-35 0 -57.5 23.5t-22.5 55.5zM1294 936q0 33 22.5 56.5t57.5 23.5q33 0 56.5 -23.5t23.5 -56.5q0 -35 -23.5 -57.5t-56.5 -22.5q-35 0 -57.5 22.5t-22.5 57.5zM1294 1124q0 33 22.5 56.5 t57.5 23.5q33 0 56.5 -23.5t23.5 -56.5t-23.5 -55t-56.5 -22q-35 0 -57.5 22.5t-22.5 54.5z" />
<glyph unicode="n" horiz-adv-x="1452" d="M55 -82v1452h527l260 -432v432h555v-1452h-492l-291 432v-432h-559zM137 0h395v618l416 -618h367v1288h-391v-645l-389 645h-398v-1288zM254 176q0 33 23.5 55.5t56.5 22.5q35 0 56.5 -22.5t21.5 -55.5t-21.5 -56.5t-56.5 -23.5q-33 0 -56.5 23.5t-23.5 56.5zM254 367 q0 33 23.5 56t56.5 23q35 0 56.5 -23.5t21.5 -55.5q0 -35 -21.5 -57.5t-56.5 -22.5q-33 0 -56.5 22.5t-23.5 57.5zM254 555q0 33 23.5 56.5t56.5 23.5q35 0 56.5 -23.5t21.5 -56.5t-21.5 -55.5t-56.5 -22.5q-33 0 -56.5 22.5t-23.5 55.5zM254 745q0 35 23.5 56.5t56.5 21.5 q35 0 56.5 -21.5t21.5 -56.5q0 -33 -21.5 -56t-56.5 -23q-33 0 -56.5 23.5t-23.5 55.5zM254 936q0 33 23.5 56.5t56.5 23.5q35 0 56.5 -23.5t21.5 -56.5q0 -35 -21.5 -57.5t-56.5 -22.5q-33 0 -56.5 22.5t-23.5 57.5zM254 1124q0 33 23.5 56.5t56.5 23.5q35 0 56.5 -23.5 t21.5 -56.5t-21.5 -55t-56.5 -22q-33 0 -56.5 22.5t-23.5 54.5zM418 1010q0 33 23.5 56.5t56.5 23.5t55 -24t22 -56q0 -33 -22 -56.5t-55 -23.5t-56.5 24.5t-23.5 55.5zM518 834q0 33 23.5 55t56.5 22t56.5 -22t23.5 -55t-23.5 -56.5t-56.5 -23.5t-56.5 23.5t-23.5 56.5z M637 657q0 33 22.5 56.5t55.5 23.5q31 0 55.5 -24.5t24.5 -55.5q0 -35 -23.5 -57t-56.5 -22t-55.5 22.5t-22.5 56.5zM766 465q0 31 24.5 54.5t55.5 23.5q35 0 57.5 -22.5t22.5 -55.5q0 -35 -22.5 -57.5t-57.5 -22.5q-33 0 -56.5 22.5t-23.5 57.5zM885 303q0 33 22.5 55.5 t55.5 22.5q35 0 57 -22.5t22 -55.5t-23.5 -56.5t-55.5 -23.5q-33 0 -55.5 22.5t-22.5 57.5zM1044 176q0 33 24 55.5t56 22.5q35 0 57.5 -22.5t22.5 -55.5t-22.5 -56.5t-57.5 -23.5q-33 0 -56.5 23.5t-23.5 56.5zM1044 367q0 33 24 56t56 23q35 0 57.5 -23t22.5 -56 q0 -35 -22.5 -57.5t-57.5 -22.5q-33 0 -56.5 22.5t-23.5 57.5zM1044 555q0 33 24 56.5t56 23.5q35 0 57.5 -23.5t22.5 -56.5t-22.5 -55.5t-57.5 -22.5q-33 0 -56.5 22.5t-23.5 55.5zM1044 745q0 35 24 56.5t56 21.5q35 0 57.5 -21.5t22.5 -56.5q0 -33 -22.5 -56t-57.5 -23 q-33 0 -56.5 23.5t-23.5 55.5zM1044 936q0 33 24 56.5t56 23.5q35 0 57.5 -23.5t22.5 -56.5q0 -35 -22.5 -57.5t-57.5 -22.5q-33 0 -56.5 22.5t-23.5 57.5zM1044 1124q0 33 24 56.5t56 23.5q35 0 57.5 -23.5t22.5 -56.5t-22.5 -55t-57.5 -22q-33 0 -56.5 22.5t-23.5 54.5z " />
<glyph unicode="o" horiz-adv-x="1589" d="M33 643q0 164 57 302t159.5 237.5t242 156t303.5 56.5q162 0 301 -56.5t241.5 -157t160.5 -238.5t58 -300q0 -164 -58 -301t-160.5 -236.5t-242 -155.5t-300.5 -56q-162 0 -301.5 56t-241.5 155.5t-160.5 236.5t-58.5 301zM115 643q0 -145 52 -267t143 -211t215 -139.5 t270 -50.5q143 0 268 50.5t216 139.5t143.5 211t52.5 267t-52.5 268t-144.5 212t-216 139.5t-267 50.5q-145 0 -270.5 -49.5t-216.5 -138.5t-142 -211.5t-51 -270.5zM238 643q0 35 21.5 57.5t55.5 22.5q33 0 56.5 -22.5t23.5 -57.5q0 -33 -23.5 -55.5t-56.5 -22.5 q-35 0 -56 22.5t-21 55.5zM262 461q0 35 23.5 57.5t56.5 22.5t56.5 -22.5t23.5 -57.5q0 -33 -23.5 -56.5t-56.5 -23.5q-31 0 -55.5 24.5t-24.5 55.5zM266 827q0 35 23.5 57.5t56.5 22.5t55.5 -22.5t22.5 -57.5q0 -33 -22.5 -56t-55.5 -23t-56.5 24.5t-23.5 54.5zM365 303 q0 33 22.5 55.5t54.5 22.5q33 0 56.5 -22.5t23.5 -55.5q0 -31 -23.5 -55.5t-56.5 -24.5t-55 23.5t-22 56.5zM365 983q0 33 22.5 56.5t54.5 23.5q33 0 56.5 -23.5t23.5 -56.5t-23.5 -55.5t-56.5 -22.5t-55 22.5t-22 55.5zM514 643q0 150 76 228.5t205 78.5q125 0 202.5 -79.5 t77.5 -227.5q0 -147 -77.5 -226t-202.5 -79q-129 0 -205 79t-76 226zM520 201q0 33 22.5 56.5t57.5 23.5q33 0 56.5 -23.5t23.5 -56.5t-24.5 -55.5t-55.5 -22.5q-35 0 -57.5 22.5t-22.5 55.5zM520 1085q0 33 22.5 56.5t57.5 23.5q33 0 56.5 -23.5t23.5 -56.5 q0 -31 -24.5 -55t-55.5 -24q-35 0 -57.5 23.5t-22.5 55.5zM715 156q0 33 23.5 55t56.5 22q35 0 56 -22.5t21 -54.5q0 -33 -21 -56.5t-56 -23.5q-33 0 -56.5 23.5t-23.5 56.5zM715 1135q0 31 24.5 54t55.5 23q35 0 56 -22.5t21 -54.5q0 -35 -21 -57.5t-56 -22.5 q-33 0 -56.5 22.5t-23.5 57.5zM909 201q0 33 23.5 56.5t56.5 23.5q35 0 56.5 -23.5t21.5 -56.5t-21.5 -55.5t-56.5 -22.5q-31 0 -55.5 22.5t-24.5 55.5zM909 1085q0 33 23.5 56.5t56.5 23.5q35 0 56.5 -23.5t21.5 -56.5t-21.5 -56t-56.5 -23q-31 0 -55.5 24.5t-24.5 54.5z M1067 303q0 33 22.5 55.5t55.5 22.5t56.5 -22.5t23.5 -55.5t-23.5 -56.5t-56.5 -23.5q-31 0 -54.5 24.5t-23.5 55.5zM1067 983q0 33 22.5 56.5t55.5 23.5t56.5 -23.5t23.5 -56.5t-23.5 -55.5t-56.5 -22.5q-31 0 -54.5 22.5t-23.5 55.5zM1163 827q0 35 23.5 57.5t56.5 22.5 t56.5 -22.5t23.5 -57.5q0 -31 -24.5 -55t-55.5 -24q-33 0 -56.5 23.5t-23.5 55.5zM1167 461q0 35 23.5 57.5t56.5 22.5t55.5 -22.5t22.5 -57.5q0 -31 -23.5 -55.5t-54.5 -24.5q-33 0 -56.5 23.5t-23.5 56.5zM1194 643q0 35 22.5 57.5t55.5 22.5q35 0 57.5 -22.5t22.5 -57.5 q0 -33 -22.5 -55.5t-57.5 -22.5q-33 0 -55.5 22.5t-22.5 55.5z" />
<glyph unicode="p" horiz-adv-x="1161" d="M55 -82v1452h551q123 0 223.5 -37t173 -104.5t112.5 -165.5t40 -221q0 -254 -136 -391.5t-401 -143.5v-389h-563zM137 0h400v389h57q236 0 357.5 118t121.5 335q0 104 -33.5 186t-95 140.5t-147.5 89t-191 30.5h-469v-1288zM254 176q0 33 23.5 55.5t56.5 22.5 q35 0 56.5 -22.5t21.5 -55.5t-21.5 -56.5t-56.5 -23.5q-33 0 -56.5 23.5t-23.5 56.5zM254 367q0 33 23.5 56t56.5 23q35 0 56.5 -23.5t21.5 -55.5q0 -35 -21.5 -57.5t-56.5 -22.5q-33 0 -56.5 22.5t-23.5 57.5zM254 555q0 33 23.5 56.5t56.5 23.5q35 0 56.5 -23.5 t21.5 -56.5t-21.5 -55.5t-56.5 -22.5q-33 0 -56.5 22.5t-23.5 55.5zM254 745q0 35 23.5 56.5t56.5 21.5q35 0 56.5 -21.5t21.5 -56.5q0 -33 -21.5 -56t-56.5 -23q-33 0 -56.5 23.5t-23.5 55.5zM254 936q0 33 23.5 56.5t56.5 23.5q35 0 56.5 -23.5t21.5 -56.5 q0 -35 -21.5 -57.5t-56.5 -22.5q-33 0 -56.5 22.5t-23.5 57.5zM254 1124q0 33 23.5 56.5t56.5 23.5q35 0 56.5 -23.5t21.5 -56.5t-21.5 -55t-56.5 -22q-33 0 -56.5 22.5t-23.5 54.5zM432 1130q0 33 22.5 54.5t55.5 21.5q35 0 57.5 -22.5t22.5 -55.5q0 -31 -23.5 -54 t-56.5 -23t-55.5 23.5t-22.5 55.5zM438 565q0 33 23.5 55.5t56.5 22.5t55.5 -22.5t22.5 -55.5q0 -35 -22.5 -57.5t-55.5 -22.5t-56.5 22.5t-23.5 57.5zM537 725v236q76 0 104.5 -28t28.5 -87q0 -57 -29 -88t-104 -33zM604 1118q0 33 22.5 56.5t57.5 23.5q31 0 55.5 -24.5 t24.5 -55.5q0 -35 -23.5 -57.5t-56.5 -22.5q-35 0 -57.5 22.5t-22.5 57.5zM612 582q0 33 22.5 56.5t55.5 23.5t56.5 -23.5t23.5 -56.5q0 -35 -23.5 -57.5t-56.5 -22.5q-31 0 -54.5 23.5t-23.5 56.5zM745 1014q0 33 24 55.5t56 22.5q35 0 57.5 -22.5t22.5 -55.5t-23.5 -56.5 t-56.5 -23.5t-56.5 22.5t-23.5 57.5zM766 678q0 31 23.5 55.5t54.5 24.5q35 0 57.5 -23.5t22.5 -56.5q0 -35 -22.5 -57.5t-57.5 -22.5q-33 0 -55.5 22.5t-22.5 57.5zM786 850q0 33 22.5 55.5t55.5 22.5q35 0 57.5 -23.5t22.5 -56.5q0 -31 -23.5 -55.5t-56.5 -24.5 t-55.5 24.5t-22.5 57.5z" />
<glyph unicode="q" horiz-adv-x="1583" d="M31 643q0 164 57 302t159.5 237.5t242 156t303.5 56.5q162 0 301 -56.5t241.5 -157t160.5 -238.5t58 -300q0 -201 -92 -367l107 -108l-307 -313l-119 116q-164 -77 -345 -77h-5q-162 0 -301.5 56t-242 155.5t-160.5 236.5t-58 301zM113 643q0 -145 52 -267t143 -211 t215 -139.5t270 -50.5q199 0 362 97l105 -101l194 197l-94 96q113 168 113 379q0 145 -52.5 268t-144.5 212t-216 139.5t-267 50.5q-145 0 -270.5 -49.5t-216.5 -138.5t-142 -211.5t-51 -270.5zM248 643q0 35 21.5 57.5t56.5 22.5q33 0 56.5 -22.5t23.5 -57.5 q0 -33 -24 -55.5t-56 -22.5q-35 0 -56.5 22.5t-21.5 55.5zM279 465q0 35 22.5 56.5t54.5 21.5q33 0 56.5 -21.5t23.5 -56.5q0 -33 -23.5 -56.5t-56.5 -23.5q-31 0 -54 24.5t-23 55.5zM279 821q0 35 22.5 56.5t54.5 21.5q33 0 56.5 -21.5t23.5 -56.5q0 -33 -23.5 -56.5 t-56.5 -23.5q-31 0 -54 25t-23 55zM379 315q0 33 23.5 55.5t56.5 22.5t56.5 -22.5t23.5 -55.5q0 -31 -25 -55t-55 -24q-33 0 -56.5 23.5t-23.5 55.5zM379 973q0 33 23.5 55.5t56.5 22.5t56.5 -22.5t23.5 -55.5t-25 -56.5t-55 -23.5q-33 0 -56.5 23.5t-23.5 56.5zM512 643 q0 68 20.5 124t58.5 97t89 63.5t113 22.5q61 0 113 -22.5t89 -63.5t57.5 -97t20.5 -124q0 -18 -2 -38.5t-6 -39.5l-70 70l-202 -203l84 -82q-37 -12 -84 -12q-61 0 -112.5 22.5t-89.5 63.5t-58.5 96t-20.5 123zM524 201q0 33 22.5 56.5t57.5 23.5q33 0 55.5 -23.5 t22.5 -56.5t-23.5 -55.5t-54.5 -22.5q-35 0 -57.5 22.5t-22.5 55.5zM524 1085q0 33 22.5 56.5t57.5 23.5q33 0 55.5 -23.5t22.5 -56.5q0 -31 -23.5 -55t-54.5 -24q-35 0 -57.5 23.5t-22.5 55.5zM705 156q0 33 23.5 55t55.5 22q35 0 56.5 -22.5t21.5 -54.5q0 -33 -21.5 -56.5 t-56.5 -23.5q-33 0 -56 23.5t-23 56.5zM705 1135q0 31 24.5 54t54.5 23q35 0 56.5 -22.5t21.5 -54.5q0 -35 -21.5 -57.5t-56.5 -22.5q-33 0 -56 22.5t-23 57.5zM905 201q0 33 22.5 56.5t55.5 23.5q35 0 57.5 -23.5t22.5 -56.5t-23.5 -55.5t-56.5 -22.5t-55.5 22.5 t-22.5 55.5zM905 1085q0 33 22.5 56.5t55.5 23.5q35 0 57.5 -23.5t22.5 -56.5q0 -31 -23.5 -55t-56.5 -24t-55.5 23.5t-22.5 55.5zM918 446q0 31 23.5 54.5t55.5 23.5q33 0 56.5 -22.5t23.5 -55.5q0 -35 -23.5 -57t-56.5 -22q-35 0 -57 22.5t-22 56.5zM1049 315 q0 33 23.5 55.5t55.5 22.5q33 0 55.5 -22.5t22.5 -55.5q0 -31 -23.5 -55t-54.5 -24q-33 0 -56 23.5t-23 55.5zM1049 973q0 33 23.5 55.5t55.5 22.5q33 0 55.5 -22.5t22.5 -55.5t-23.5 -56.5t-54.5 -23.5q-33 0 -56 23.5t-23 56.5zM1149 465q0 35 23.5 56.5t56.5 21.5 t55.5 -21.5t22.5 -56.5q0 -33 -22.5 -56.5t-55.5 -23.5t-56.5 23.5t-23.5 56.5zM1149 821q0 35 23.5 56.5t56.5 21.5t55.5 -21.5t22.5 -56.5q0 -33 -22.5 -56.5t-55.5 -23.5t-56.5 23.5t-23.5 56.5zM1182 643q0 35 22.5 57.5t55.5 22.5t56 -23.5t23 -56.5t-22.5 -55.5 t-56.5 -22.5q-33 0 -55.5 22.5t-22.5 55.5zM1184 174q0 35 22.5 56.5t55.5 21.5q35 0 57 -21.5t22 -56.5q0 -31 -23.5 -55.5t-55.5 -24.5q-33 0 -55.5 23.5t-22.5 56.5z" />
<glyph unicode="r" horiz-adv-x="1290" d="M55 -82v1452h572q129 0 235.5 -36t181 -103.5t115.5 -161.5t41 -211q0 -131 -49 -231.5t-147 -157.5l317 -506v-45h-1266zM137 0h400v360l186 -360h483l-325 504q111 33 174 126t63 228q0 98 -34.5 178t-99 135.5t-156 86t-201.5 30.5h-490v-1288zM254 176 q0 33 23.5 55.5t56.5 22.5q35 0 56.5 -22.5t21.5 -55.5t-21.5 -56.5t-56.5 -23.5q-33 0 -56.5 23.5t-23.5 56.5zM254 367q0 33 23.5 56t56.5 23q35 0 56.5 -23.5t21.5 -55.5q0 -35 -21.5 -57.5t-56.5 -22.5q-33 0 -56.5 22.5t-23.5 57.5zM254 555q0 33 23.5 56.5t56.5 23.5 q35 0 56.5 -23.5t21.5 -56.5t-21.5 -55.5t-56.5 -22.5q-33 0 -56.5 22.5t-23.5 55.5zM254 745q0 35 23.5 56.5t56.5 21.5q35 0 56.5 -21.5t21.5 -56.5q0 -33 -21.5 -56t-56.5 -23q-33 0 -56.5 23.5t-23.5 55.5zM254 936q0 33 23.5 56.5t56.5 23.5q35 0 56.5 -23.5 t21.5 -56.5q0 -35 -21.5 -57.5t-56.5 -22.5q-33 0 -56.5 22.5t-23.5 57.5zM254 1124q0 33 23.5 56.5t56.5 23.5q35 0 56.5 -23.5t21.5 -56.5t-21.5 -55t-56.5 -22q-33 0 -56.5 22.5t-23.5 54.5zM426 565q0 33 22.5 55.5t57.5 22.5q33 0 55.5 -22.5t22.5 -55.5 q0 -35 -22.5 -57.5t-55.5 -22.5q-35 0 -57.5 22.5t-22.5 57.5zM446 1130q0 33 24 54.5t56 21.5q35 0 56.5 -22.5t21.5 -55.5q0 -31 -22.5 -54t-55.5 -23t-56.5 23.5t-23.5 55.5zM537 725v236h34q141 0 142 -115q0 -121 -133 -121h-43zM612 565q0 33 23.5 55.5t54.5 22.5 q33 0 56.5 -21.5t23.5 -56.5q0 -33 -23.5 -56.5t-56.5 -23.5t-55.5 23.5t-22.5 56.5zM637 1118q0 33 22.5 56.5t55.5 23.5q31 0 55.5 -24.5t24.5 -55.5q0 -35 -23.5 -57.5t-56.5 -22.5t-55.5 22.5t-22.5 57.5zM688 367q0 33 23.5 56t54.5 23q35 0 57.5 -22t22.5 -57 q0 -33 -22.5 -56.5t-57.5 -23.5q-33 0 -55.5 23.5t-22.5 56.5zM762 672q0 31 23.5 54.5t56.5 23.5t55.5 -22.5t22.5 -55.5t-22.5 -56.5t-55.5 -23.5q-35 0 -57.5 23.5t-22.5 56.5zM784 172q0 33 22.5 56.5t55.5 23.5t56.5 -22.5t23.5 -57.5q0 -33 -23.5 -56.5t-56.5 -23.5 q-35 0 -56.5 23.5t-21.5 56.5zM795 1014q0 33 22.5 55.5t54.5 22.5q33 0 56.5 -22.5t23.5 -55.5t-23.5 -56.5t-56.5 -23.5t-55 22.5t-22 57.5zM834 842q0 35 23.5 56.5t55.5 21.5q33 0 55.5 -23t22.5 -55q0 -33 -23.5 -56.5t-54.5 -23.5q-33 0 -56 23.5t-23 56.5z" />
<glyph unicode="s" horiz-adv-x="1181" d="M37 901q0 121 43 213t115.5 154.5t170 94.5t205.5 32q92 0 178.5 -22.5t158 -74t123.5 -136.5t75 -208l-297 -108q66 -27 127 -67t108.5 -95t76 -123.5t28.5 -154.5q0 -127 -46 -222.5t-124 -160t-181.5 -97t-217.5 -32.5q-96 0 -185.5 25.5t-162 82.5t-124 145.5 t-69.5 214.5l334 99q-68 25 -129.5 66.5t-107.5 98t-72.5 126t-26.5 149.5zM119 901q0 -72 29.5 -140.5t80.5 -117.5q59 -59 134 -90t155 -64q20 -10 48 -20t52.5 -22.5t42 -29t17.5 -36.5q0 -37 -25.5 -51.5t-58.5 -14.5q-47 0 -80 26t-33 75l-350 -111q12 -88 53 -150.5 t102.5 -102.5t137.5 -58.5t156 -18.5q98 0 186 28t155.5 81t106.5 134t39 188q0 82 -37 155.5t-102 130.5q-55 47 -128 77t-143 52q-23 6 -50 14.5t-52 20.5t-42 30.5t-17 47.5q0 31 22.5 48t54.5 17q55 0 77 -37.5t30 -82.5l334 127q-16 86 -57.5 144t-100.5 95t-132 52.5 t-153 15.5q-92 0 -174 -26.5t-144.5 -79t-98 -129.5t-35.5 -177zM233 907q0 33 24 55.5t56 22.5q35 0 56.5 -22.5t21.5 -55.5t-21.5 -56.5t-56.5 -23.5q-33 0 -56.5 23.5t-23.5 56.5zM311 1092q0 33 22.5 55t55.5 22t56.5 -22t23.5 -55t-23.5 -56.5t-56.5 -23.5 q-31 0 -54.5 23.5t-23.5 56.5zM313 236q0 33 22.5 56t55.5 23t56.5 -22t23.5 -57q0 -33 -24.5 -56.5t-57.5 -23.5t-54.5 24.5t-21.5 55.5zM332 743q0 35 23.5 57.5t56.5 22.5q35 0 56 -22.5t21 -57.5q0 -33 -21 -56t-56 -23q-33 0 -56.5 23.5t-23.5 55.5zM504 1151 q0 35 22.5 57.5t57.5 22.5q33 0 55.5 -22.5t22.5 -57.5q0 -33 -22.5 -56.5t-55.5 -23.5t-56.5 24.5t-23.5 55.5zM508 162q0 31 23.5 55.5t56.5 24.5t56.5 -23.5t23.5 -56.5q0 -35 -22.5 -57.5t-55.5 -22.5q-35 0 -58.5 22.5t-23.5 57.5zM514 651q0 33 23.5 55.5t56.5 22.5 t55.5 -22.5t22.5 -55.5t-23.5 -56.5t-54.5 -23.5q-33 0 -56.5 23.5t-23.5 56.5zM688 567q0 33 22.5 56.5t55.5 23.5t56.5 -24.5t23.5 -55.5q0 -33 -23.5 -55.5t-56.5 -22.5t-55.5 23t-22.5 55zM694 217q0 33 24.5 55.5t55.5 22.5q35 0 56.5 -21.5t21.5 -56.5 q0 -33 -21.5 -56.5t-54.5 -23.5t-57.5 23.5t-24.5 56.5zM694 1092q0 33 23.5 57.5t58.5 24.5q33 0 54.5 -24.5t21.5 -57.5q0 -35 -22.5 -56.5t-55.5 -21.5t-56.5 22.5t-23.5 55.5zM786 399q0 33 24 56.5t56 23.5q33 0 56.5 -23.5t23.5 -56.5q0 -31 -24.5 -55.5t-55.5 -24.5 q-33 0 -56.5 24t-23.5 56z" />
<glyph unicode="t" horiz-adv-x="1261" d="M14 870v500h1233v-500h-336v-952h-561v952h-336zM96 952h336v-952h397v952h336v336h-1069v-336zM174 1124q0 33 23.5 56.5t56.5 23.5t56.5 -23.5t23.5 -56.5t-23.5 -55t-56.5 -22t-56.5 22.5t-23.5 54.5zM365 1124q0 33 22.5 56.5t54.5 23.5q35 0 57.5 -23.5t22.5 -56.5 t-22.5 -55t-57.5 -22q-33 0 -55 22.5t-22 54.5zM555 176q0 33 22.5 55.5t57.5 22.5q33 0 55.5 -22.5t22.5 -55.5t-22.5 -56.5t-55.5 -23.5q-35 0 -57.5 23.5t-22.5 56.5zM555 367q0 33 22.5 56t57.5 23q33 0 55.5 -23.5t22.5 -55.5q0 -35 -22.5 -57.5t-55.5 -22.5 q-35 0 -57.5 22.5t-22.5 57.5zM555 555q0 33 22.5 56.5t57.5 23.5q33 0 55.5 -23.5t22.5 -56.5t-22.5 -55.5t-55.5 -22.5q-35 0 -57.5 22.5t-22.5 55.5zM555 745q0 35 22.5 56.5t57.5 21.5q33 0 55.5 -21.5t22.5 -56.5q0 -33 -22.5 -56t-55.5 -23q-35 0 -57.5 23.5 t-22.5 55.5zM555 936q0 33 22.5 56.5t57.5 23.5q33 0 55.5 -23.5t22.5 -56.5q0 -35 -22.5 -57.5t-55.5 -22.5q-35 0 -57.5 22.5t-22.5 57.5zM555 1124q0 33 22.5 56.5t57.5 23.5q33 0 55.5 -23.5t22.5 -56.5t-22.5 -55t-55.5 -22q-35 0 -57.5 22.5t-22.5 54.5zM743 1124 q0 33 24 56.5t56 23.5q33 0 56.5 -23.5t23.5 -56.5t-23.5 -55t-56.5 -22t-56.5 22.5t-23.5 54.5zM936 1124q0 33 21.5 56.5t56.5 23.5q33 0 56.5 -23.5t23.5 -56.5t-23.5 -55t-56.5 -22q-35 0 -56.5 22.5t-21.5 54.5z" />
<glyph unicode="u" horiz-adv-x="1337" d="M47 475v895h563v-860q0 -49 13.5 -70.5t44.5 -21.5q59 0 59 92v860h561v-895q0 -135 -43 -243.5t-124 -183.5t-195.5 -114.5t-257.5 -39.5q-141 0 -256 39.5t-196 114.5t-125 182.5t-44 244.5zM129 475q0 -117 38 -210t107.5 -157.5t170 -98.5t223.5 -34q125 0 224 34 t168.5 98.5t107.5 157.5t38 210v813h-397v-778q0 -92 -32 -133t-109 -41q-76 0 -108 41t-32 133v778h-399v-813zM238 555q0 33 22.5 56.5t54.5 23.5q33 0 56.5 -23.5t23.5 -56.5t-23.5 -55.5t-56.5 -22.5t-55 22.5t-22 55.5zM238 745q0 35 22.5 56.5t54.5 21.5 q33 0 56.5 -21.5t23.5 -56.5q0 -33 -23.5 -56t-56.5 -23t-55 23.5t-22 55.5zM238 936q0 33 22.5 56.5t54.5 23.5q33 0 56.5 -23.5t23.5 -56.5q0 -35 -23.5 -57.5t-56.5 -22.5t-55 22.5t-22 57.5zM238 1124q0 33 22.5 56.5t54.5 23.5q33 0 56.5 -23.5t23.5 -56.5t-23.5 -55 t-56.5 -22t-55 22.5t-22 54.5zM283 367q0 33 22.5 56t56.5 23q33 0 56.5 -23t23.5 -56q0 -35 -23.5 -57.5t-56.5 -22.5q-35 0 -57 22.5t-22 57.5zM401 211q0 35 22.5 57.5t57.5 22.5q33 0 56.5 -22.5t23.5 -57.5q0 -31 -24.5 -54.5t-55.5 -23.5q-35 0 -57.5 22.5t-22.5 55.5 zM594 164q0 33 22.5 55.5t55.5 22.5q31 0 55.5 -23.5t24.5 -54.5q0 -35 -23.5 -57.5t-56.5 -22.5t-55.5 22.5t-22.5 57.5zM770 211q0 35 23.5 57.5t56.5 22.5t55.5 -22.5t22.5 -57.5q0 -33 -22.5 -55.5t-55.5 -22.5t-56.5 22.5t-23.5 55.5zM889 367q0 33 23.5 56t56.5 23 t55.5 -23.5t22.5 -55.5q0 -35 -22.5 -57.5t-55.5 -22.5t-56.5 22.5t-23.5 57.5zM936 555q0 33 21.5 56.5t56.5 23.5q33 0 56.5 -23.5t23.5 -56.5t-23.5 -55.5t-56.5 -22.5q-35 0 -56.5 22.5t-21.5 55.5zM936 745q0 35 21.5 56.5t56.5 21.5q33 0 56.5 -21.5t23.5 -56.5 q0 -33 -23.5 -56t-56.5 -23q-35 0 -56.5 23.5t-21.5 55.5zM936 936q0 33 21.5 56.5t56.5 23.5q33 0 56.5 -23.5t23.5 -56.5q0 -35 -23.5 -57.5t-56.5 -22.5q-35 0 -56.5 22.5t-21.5 57.5zM936 1124q0 33 21.5 56.5t56.5 23.5q33 0 56.5 -23.5t23.5 -56.5t-23.5 -55 t-56.5 -22q-35 0 -56.5 22.5t-21.5 54.5z" />
<glyph unicode="v" horiz-adv-x="1323" d="M-29 1346v24h594l105 -430l106 430h576v-24l-451 -1428h-479zM74 1288l407 -1288h361l407 1288h-407l-172 -692l-170 692h-426zM248 1145q0 33 22.5 55.5t55.5 22.5q35 0 57.5 -22.5t22.5 -55.5t-23 -56.5t-57 -23.5q-33 0 -55.5 23.5t-22.5 56.5zM303 979 q0 35 22.5 57.5t57.5 22.5q33 0 56.5 -22.5t23.5 -57.5q0 -31 -24.5 -55.5t-55.5 -24.5q-35 0 -57.5 23.5t-22.5 56.5zM358 815q0 33 22.5 56.5t57.5 23.5q33 0 56.5 -23.5t23.5 -56.5t-24.5 -55.5t-55.5 -22.5q-35 0 -57.5 21.5t-22.5 56.5zM408 651q0 33 22.5 55.5 t54.5 22.5q35 0 57.5 -22.5t22.5 -55.5t-22.5 -56.5t-57.5 -23.5q-31 0 -54 23.5t-23 56.5zM461 485q0 35 22.5 57.5t57.5 22.5q33 0 55 -22.5t22 -57.5q0 -33 -22 -56t-55 -23t-56.5 24.5t-23.5 54.5zM504 322q0 37 27.5 59t62.5 22q31 0 49.5 -25.5t18.5 -55.5 q0 -35 -21.5 -57.5t-56.5 -22.5q-33 0 -56.5 22.5t-23.5 57.5zM580 156q0 33 21.5 56.5t55.5 23.5q33 0 56.5 -23.5t23.5 -56.5q0 -31 -23.5 -54.5t-56.5 -23.5q-35 0 -56 22.5t-21 55.5zM680 322q0 31 18.5 56t46.5 25q37 0 65 -22t28 -59q0 -33 -25 -56.5t-55 -23.5 q-35 0 -56.5 22.5t-21.5 57.5zM723 485q0 35 22.5 57.5t55.5 22.5q35 0 57.5 -22.5t22.5 -57.5q0 -31 -23.5 -55t-56.5 -24t-55.5 23.5t-22.5 55.5zM774 651q0 33 21.5 55.5t56.5 22.5q33 0 56.5 -22.5t23.5 -55.5t-23.5 -56.5t-56.5 -23.5t-55.5 23.5t-22.5 56.5zM823 815 q0 33 23.5 56.5t56.5 23.5q35 0 56.5 -23.5t21.5 -56.5q0 -35 -21.5 -56.5t-56.5 -21.5q-31 0 -55.5 22.5t-24.5 55.5zM879 979q0 35 23.5 57.5t55.5 22.5q35 0 56.5 -22.5t21.5 -57.5q0 -33 -21.5 -56.5t-56.5 -23.5q-33 0 -56 23.5t-23 56.5zM936 1145q0 33 21.5 55.5 t56.5 22.5q33 0 56.5 -22.5t23.5 -55.5t-23.5 -56.5t-56.5 -23.5q-35 0 -56.5 23.5t-21.5 56.5z" />
<glyph unicode="w" horiz-adv-x="2021" d="M-31 1350v20h596l107 -430l106 430h486l104 -430l107 430h575v-22l-451 -1430h-485l-100 389l-107 -389h-485zM74 1288l407 -1288h363l172 625l164 -625h360l408 1288h-408l-172 -692l-170 692h-354l-174 -692l-170 692h-426zM250 1145q0 33 21.5 55.5t56.5 22.5 q33 0 56.5 -22.5t23.5 -55.5t-24 -56.5t-56 -23.5q-35 0 -56.5 23.5t-21.5 56.5zM299 979q0 35 22.5 57.5t57.5 22.5q33 0 56.5 -22.5t23.5 -57.5q0 -31 -24.5 -55.5t-55.5 -24.5q-35 0 -57.5 23.5t-22.5 56.5zM350 815q0 33 23.5 56.5t56.5 23.5t56.5 -23.5t23.5 -56.5 t-24.5 -55.5t-55.5 -22.5q-33 0 -56.5 21.5t-23.5 56.5zM395 651q0 33 21.5 55.5t56.5 22.5q33 0 56.5 -22.5t23.5 -55.5t-23.5 -56.5t-56.5 -23.5t-55.5 23.5t-22.5 56.5zM440 481q0 35 23.5 57.5t56.5 22.5t55.5 -22.5t22.5 -57.5q0 -33 -22.5 -56.5t-55.5 -23.5t-56.5 25 t-23.5 55zM496 317q0 33 22.5 55.5t54.5 22.5q35 0 57.5 -22.5t22.5 -55.5t-22.5 -56t-57.5 -23q-33 0 -55 23.5t-22 55.5zM586 164q0 33 22.5 56.5t55.5 23.5t56 -23.5t23 -56.5q0 -31 -23.5 -54.5t-55.5 -23.5q-33 0 -55.5 22.5t-22.5 55.5zM674 317q0 33 22.5 55.5 t55.5 22.5q35 0 57 -22.5t22 -55.5t-22.5 -56t-56.5 -23q-33 0 -55.5 23.5t-22.5 55.5zM725 483q0 35 22.5 57.5t57.5 22.5q33 0 56.5 -22.5t23.5 -57.5q0 -31 -24.5 -55.5t-55.5 -24.5q-35 0 -57.5 24t-22.5 56zM774 651q0 33 22.5 55.5t55.5 22.5t56.5 -22.5t23.5 -55.5 t-23.5 -56.5t-56.5 -23.5q-31 0 -54.5 23.5t-23.5 56.5zM817 817q0 33 22.5 55.5t55.5 22.5q35 0 57.5 -22.5t22.5 -55.5t-22.5 -56.5t-57.5 -23.5q-33 0 -55.5 23.5t-22.5 56.5zM856 987q0 33 23.5 56.5t56.5 23.5q35 0 56.5 -23.5t21.5 -56.5t-21.5 -55.5t-56.5 -22.5 q-31 0 -55.5 22.5t-24.5 55.5zM940 1145q0 33 22.5 55.5t57.5 22.5q33 0 55.5 -22.5t22.5 -55.5t-22.5 -56.5t-55.5 -23.5q-35 0 -57.5 23.5t-22.5 56.5zM1024 987q0 33 21.5 56.5t56.5 23.5q33 0 56.5 -23.5t23.5 -56.5t-24.5 -55.5t-55.5 -22.5q-35 0 -56.5 22.5 t-21.5 55.5zM1063 817q0 33 22.5 55.5t57.5 22.5q33 0 55.5 -22.5t22.5 -55.5t-22.5 -56.5t-55.5 -23.5q-35 0 -57.5 23.5t-22.5 56.5zM1106 651q0 33 23.5 55.5t56.5 22.5t55.5 -22.5t22.5 -55.5t-23.5 -56.5t-54.5 -23.5q-33 0 -56.5 23.5t-23.5 56.5zM1153 483 q0 35 23.5 57.5t56.5 22.5q35 0 57.5 -22.5t22.5 -57.5q0 -33 -22.5 -56.5t-57.5 -23.5q-31 0 -55.5 24.5t-24.5 55.5zM1206 317q0 33 22.5 55.5t57.5 22.5q33 0 55.5 -22.5t22.5 -55.5t-22.5 -56t-55.5 -23q-35 0 -57.5 23t-22.5 56zM1294 164q0 33 23.5 56.5t56.5 23.5 t55.5 -23.5t22.5 -56.5t-22.5 -55.5t-55.5 -22.5t-56.5 23.5t-23.5 54.5zM1384 317q0 33 23 55.5t57 22.5q33 0 55.5 -22.5t22.5 -55.5t-22.5 -56t-55.5 -23q-35 0 -57.5 23t-22.5 56zM1440 481q0 35 22.5 57.5t55.5 22.5t56 -22.5t23 -57.5q0 -31 -23 -55.5t-56 -24.5 t-55.5 24t-22.5 56zM1485 651q0 33 23.5 55.5t56.5 22.5q35 0 56 -22.5t21 -55.5t-22.5 -56.5t-54.5 -23.5q-33 0 -56.5 23.5t-23.5 56.5zM1528 815q0 33 23.5 56.5t56.5 23.5t56.5 -23.5t23.5 -56.5q0 -35 -24 -56.5t-56 -21.5q-31 0 -55.5 22.5t-24.5 55.5zM1579 979 q0 35 23.5 57.5t56.5 22.5q35 0 57.5 -22.5t22.5 -57.5q0 -33 -22.5 -56.5t-57.5 -23.5q-31 0 -55.5 24.5t-24.5 55.5zM1630 1145q0 33 23.5 55.5t56.5 22.5q35 0 56.5 -22.5t21.5 -55.5t-21.5 -56.5t-56.5 -23.5q-33 0 -56.5 23.5t-23.5 56.5z" />
<glyph unicode="x" horiz-adv-x="1396" d="M-57 -55l426 743l-381 655v27h637l80 -170l79 170h637v-20l-389 -662l426 -747v-23h-645l-119 246l-114 -246h-637v27zM70 0h458l166 356l170 -356h465l-391 688l354 600h-456l-129 -276l-134 276h-460l350 -600zM315 168q0 33 22.5 56.5t57.5 23.5q33 0 56.5 -23.5 t23.5 -56.5q0 -35 -23.5 -56.5t-56.5 -21.5q-35 0 -57.5 21.5t-22.5 56.5zM326 1155q0 33 22.5 55.5t54.5 22.5q33 0 56.5 -22.5t23.5 -55.5q0 -35 -23.5 -57.5t-56.5 -22.5t-55 22.5t-22 57.5zM408 332q0 35 22.5 57.5t54.5 22.5q33 0 56.5 -22.5t23.5 -57.5 q0 -31 -23.5 -55.5t-56.5 -24.5t-55 23.5t-22 56.5zM420 991q0 33 22.5 55.5t55.5 22.5q35 0 57.5 -22.5t22.5 -55.5t-23 -56.5t-57 -23.5q-33 0 -55.5 23.5t-22.5 56.5zM514 502q0 33 23.5 56.5t56.5 23.5q35 0 56.5 -23.5t21.5 -56.5t-22.5 -55.5t-55.5 -22.5t-56.5 21.5 t-23.5 56.5zM530 827q0 33 22.5 56.5t57.5 23.5q33 0 56.5 -23.5t23.5 -56.5t-23.5 -56t-56.5 -23q-35 0 -57.5 23.5t-22.5 55.5zM604 664q0 35 22.5 57t55.5 22t56.5 -22t23.5 -57q0 -33 -23.5 -55.5t-56.5 -22.5t-55.5 22.5t-22.5 55.5zM713 827q0 33 22.5 56.5t55.5 23.5 q35 0 57 -23.5t22 -56.5t-22.5 -56t-56.5 -23q-33 0 -55.5 23.5t-22.5 55.5zM727 502q0 33 22.5 56.5t57.5 23.5q33 0 55.5 -23.5t22.5 -56.5q0 -35 -22.5 -56.5t-55.5 -21.5t-56.5 22.5t-23.5 55.5zM819 991q0 33 23.5 55.5t56.5 22.5t56.5 -22.5t23.5 -55.5t-23.5 -56.5 t-56.5 -23.5t-56.5 23.5t-23.5 56.5zM829 332q0 35 24 57.5t56 22.5q35 0 57.5 -22.5t22.5 -57.5q0 -33 -22.5 -56.5t-57.5 -23.5q-33 0 -56.5 23.5t-23.5 56.5zM909 1155q0 33 23.5 55.5t56.5 22.5t55.5 -23.5t22.5 -54.5q0 -35 -21.5 -57.5t-56.5 -22.5q-33 0 -56.5 22.5 t-23.5 57.5zM913 168q0 33 22.5 56.5t55.5 23.5q35 0 57.5 -23.5t22.5 -56.5q0 -35 -22.5 -56.5t-57.5 -21.5q-33 0 -55.5 21.5t-22.5 56.5z" />
<glyph unicode="y" horiz-adv-x="1363" d="M-63 1341v29h632l113 -237l113 237h632v-31l-462 -790v-631h-566v631zM63 1288l418 -715v-573h402v573l417 715h-454l-164 -348l-164 348h-455zM293 1155q0 33 22.5 55.5t55.5 22.5q31 0 55.5 -23.5t24.5 -54.5q0 -35 -24 -57.5t-56 -22.5q-33 0 -55.5 22.5t-22.5 57.5z M387 975q0 33 22.5 56.5t55.5 23.5t56.5 -23.5t23.5 -56.5q0 -35 -23.5 -56.5t-56.5 -21.5t-55.5 21.5t-22.5 56.5zM479 797q0 33 23.5 56.5t56.5 23.5q35 0 56.5 -24t21.5 -56q0 -35 -20.5 -57.5t-55.5 -22.5q-33 0 -57.5 22.5t-24.5 57.5zM602 188q0 35 22.5 57.5 t55.5 22.5q35 0 57.5 -22.5t22.5 -57.5q0 -33 -22.5 -55t-57.5 -22q-33 0 -55.5 22.5t-22.5 54.5zM602 395q0 33 22.5 56.5t55.5 23.5q35 0 57.5 -23.5t22.5 -56.5t-22.5 -55.5t-57.5 -22.5q-33 0 -55.5 22.5t-22.5 55.5zM602 618q0 33 22.5 55.5t55.5 22.5q35 0 57.5 -22.5 t22.5 -55.5q0 -35 -22.5 -57t-57.5 -22q-33 0 -55.5 22.5t-22.5 56.5zM727 797q0 33 23.5 56.5t56.5 23.5t55.5 -24t22.5 -56q0 -35 -22.5 -57.5t-55.5 -22.5t-56.5 22.5t-23.5 57.5zM834 975q0 33 23.5 56.5t55.5 23.5q35 0 56.5 -23.5t21.5 -56.5q0 -35 -21.5 -56.5 t-56.5 -21.5q-33 0 -56 21.5t-23 56.5zM926 1155q0 33 22.5 55.5t55.5 22.5q31 0 55 -23.5t24 -54.5q0 -35 -23.5 -57.5t-55.5 -22.5q-33 0 -55.5 22.5t-22.5 57.5z" />
<glyph unicode="z" horiz-adv-x="1282" d="M-37 -47l490 926h-418v491h1284v-33l-490 -917h396v-502h-1262v35zM80 0h1063v338h-449l508 950h-1085v-327h473zM205 1106q0 31 23.5 55.5t54.5 24.5q35 0 57 -23.5t22 -56.5t-22.5 -56.5t-56.5 -23.5q-33 0 -55.5 23.5t-22.5 56.5zM317 182q0 33 22.5 56.5t57.5 23.5 q33 0 55.5 -23.5t22.5 -56.5t-23.5 -56.5t-54.5 -23.5q-35 0 -57.5 22.5t-22.5 57.5zM395 1106q0 31 23.5 55.5t56.5 24.5t55.5 -23.5t22.5 -56.5t-22.5 -56.5t-55.5 -23.5q-35 0 -57.5 23.5t-22.5 56.5zM416 379q0 33 22.5 55.5t57.5 22.5q31 0 54 -23.5t23 -54.5 q0 -33 -22 -56.5t-55 -23.5q-35 0 -57.5 23.5t-22.5 56.5zM508 182q0 33 22.5 56.5t55.5 23.5t56.5 -23.5t23.5 -56.5t-25 -56.5t-55 -23.5q-33 0 -55.5 22.5t-22.5 57.5zM526 565q0 33 22.5 55.5t55.5 22.5t56.5 -22.5t23.5 -55.5q0 -35 -23.5 -57.5t-56.5 -22.5 t-55.5 22.5t-22.5 57.5zM584 1106q0 31 24.5 55.5t55.5 24.5q33 0 56 -23.5t23 -56.5t-23.5 -56.5t-55.5 -23.5q-33 0 -56.5 23.5t-23.5 56.5zM610 739q0 33 23.5 56.5t56.5 23.5t55.5 -23.5t22.5 -56.5t-23.5 -55t-54.5 -22q-33 0 -56.5 21.5t-23.5 55.5zM696 182 q0 33 23.5 56.5t56.5 23.5q35 0 56.5 -23.5t21.5 -56.5t-22.5 -56.5t-55.5 -23.5t-56.5 22.5t-23.5 57.5zM711 918q0 33 21.5 55t55.5 22q31 0 55.5 -23t24.5 -54q0 -35 -23.5 -57.5t-56.5 -22.5q-35 0 -56 22.5t-21 57.5zM776 1108q0 33 23.5 56.5t56.5 23.5t56.5 -24.5 t23.5 -55.5q0 -33 -22.5 -56.5t-57.5 -23.5q-33 0 -56.5 23.5t-23.5 56.5zM887 182q0 33 23.5 56.5t56.5 23.5t55 -23.5t22 -56.5t-23 -56.5t-54 -23.5q-33 0 -56.5 22.5t-23.5 57.5z" />
<glyph unicode="{" horiz-adv-x="759" d="M-6 430v477h174v164q0 94 36 165t92 118t124.5 69.5t134.5 22.5h225v-440h-172v-150q0 -111 -45 -188q23 -37 34 -86.5t11 -102.5v-190h172v-443h-219q-66 0 -135.5 22.5t-126.5 72t-94 125t-37 182.5v182h-174zM76 512h110q31 0 47.5 -20.5t16.5 -100.5v-143 q0 -86 29.5 -146.5t74.5 -98.5t100.5 -56.5t106.5 -18.5h137v279h-90q-41 0 -61.5 24.5t-20.5 106.5v141q0 63 -16 110.5t-57 72.5q74 68 73 194v39q0 113 21.5 152.5t68.5 39.5h82v277h-143q-53 0 -106.5 -17.5t-98.5 -54.5t-72.5 -92t-27.5 -129v-131q0 -70 -14.5 -92.5 t-49.5 -22.5h-110v-313zM102 672q0 33 24 56.5t56 23.5q35 0 56.5 -23.5t21.5 -56.5t-21.5 -55.5t-56.5 -22.5q-33 0 -56.5 22.5t-23.5 55.5zM270 532q0 33 22.5 55.5t55.5 22.5q35 0 57.5 -22.5t22.5 -55.5t-22.5 -56t-57.5 -23q-33 0 -55.5 23.5t-22.5 55.5zM270 758 q0 33 22.5 55.5t55.5 22.5q35 0 57.5 -22.5t22.5 -55.5t-22.5 -56.5t-57.5 -23.5q-33 0 -55.5 23.5t-22.5 56.5zM309 350q0 33 23.5 55.5t56.5 22.5q35 0 56.5 -22.5t21.5 -55.5t-21.5 -56.5t-56.5 -23.5q-33 0 -56.5 23.5t-23.5 56.5zM309 940q0 33 23.5 55.5t56.5 22.5 q35 0 56.5 -22.5t21.5 -55.5t-21.5 -56.5t-56.5 -23.5q-33 0 -56.5 23.5t-23.5 56.5zM342 164q0 33 23.5 55.5t56.5 22.5q35 0 56.5 -22.5t21.5 -55.5t-21.5 -56.5t-56.5 -23.5q-33 0 -56.5 23.5t-23.5 56.5zM342 1124q0 33 23.5 56.5t56.5 23.5q35 0 56.5 -23.5t21.5 -56.5 t-21.5 -55t-56.5 -22q-33 0 -56.5 22.5t-23.5 54.5zM494 66q0 33 22.5 56t54.5 23q35 0 57.5 -23t22.5 -56t-22.5 -56.5t-57.5 -23.5q-33 0 -55 23.5t-22 56.5zM494 1223q0 33 22.5 56.5t54.5 23.5q35 0 57.5 -23.5t22.5 -56.5t-22.5 -55.5t-57.5 -22.5q-33 0 -55 22.5 t-22 55.5z" />
<glyph unicode="|" horiz-adv-x="677" d="M106 -272v1833h463v-1833h-463zM188 -190h299v1669h-299v-1669zM254 -16q0 33 23.5 56t56.5 23q35 0 56.5 -23t21.5 -56t-21.5 -55.5t-56.5 -22.5q-33 0 -56.5 22.5t-23.5 55.5zM254 176q0 33 23.5 55.5t56.5 22.5q35 0 56.5 -22.5t21.5 -55.5q0 -35 -21.5 -57.5 t-56.5 -22.5q-33 0 -56.5 22.5t-23.5 57.5zM254 365q0 33 23.5 56t56.5 23q35 0 56.5 -23.5t21.5 -55.5q0 -33 -21.5 -56.5t-56.5 -23.5q-33 0 -56.5 23.5t-23.5 56.5zM254 553q0 35 23.5 57.5t56.5 22.5q35 0 56.5 -22.5t21.5 -57.5q0 -33 -21.5 -55.5t-56.5 -22.5 q-33 0 -56.5 22.5t-23.5 55.5zM254 745q0 33 23.5 55.5t56.5 22.5q35 0 56.5 -22.5t21.5 -55.5t-21.5 -56t-56.5 -23q-33 0 -56.5 23.5t-23.5 55.5zM254 934q0 35 23.5 57.5t56.5 22.5q35 0 56.5 -22.5t21.5 -57.5q0 -33 -21.5 -56.5t-56.5 -23.5q-33 0 -56.5 23.5 t-23.5 56.5zM254 1124q0 33 23.5 56.5t56.5 23.5q35 0 56.5 -23.5t21.5 -56.5q0 -35 -21.5 -56t-56.5 -21q-33 0 -56.5 21.5t-23.5 55.5zM254 1315q0 33 23.5 55.5t56.5 22.5q35 0 56.5 -22.5t21.5 -55.5t-21.5 -56.5t-56.5 -23.5q-33 0 -56.5 23.5t-23.5 56.5z" />
<glyph unicode="}" horiz-adv-x="759" d="M-20 -154v443h172v190q0 53 11 102.5t34 86.5q-45 78 -45 188v150h-172v440h225q66 0 134.5 -22.5t124.5 -69.5t92 -118t36 -165v-164h174v-477h-174v-182q0 -106 -37 -182t-94.5 -125.5t-127 -72t-134.5 -22.5h-219zM61 -72h138q51 0 106 18.5t100.5 56.5t75 98.5 t29.5 146.5v143q0 80 16.5 100.5t44.5 20.5h113v313h-113q-35 0 -48 22.5t-13 92.5v131q0 74 -27.5 129t-72.5 92t-99.5 54.5t-105.5 17.5h-144v-277h80q47 0 69.5 -39.5t22.5 -152.5v-39q0 -127 74 -194q-43 -25 -58.5 -72t-15.5 -111v-141q0 -82 -20 -106.5t-61 -24.5h-91 v-279zM109 66q0 33 21.5 56t55.5 23q33 0 56.5 -23t23.5 -56t-23.5 -56.5t-56.5 -23.5q-35 0 -56 23.5t-21 56.5zM109 1223q0 33 21.5 56.5t55.5 23.5q33 0 56.5 -23.5t23.5 -56.5t-23.5 -55.5t-56.5 -22.5q-35 0 -56 22.5t-21 55.5zM260 164q0 33 21.5 55.5t56.5 22.5 q33 0 56.5 -22.5t23.5 -55.5t-23.5 -56.5t-56.5 -23.5q-35 0 -56.5 23.5t-21.5 56.5zM260 1124q0 33 21.5 56.5t56.5 23.5q33 0 56.5 -23.5t23.5 -56.5t-23.5 -55t-56.5 -22q-35 0 -56.5 22.5t-21.5 54.5zM293 350q0 33 21.5 55.5t56.5 22.5q33 0 56.5 -22.5t23.5 -55.5 t-24 -56.5t-56 -23.5q-35 0 -56.5 23.5t-21.5 56.5zM293 940q0 33 21.5 55.5t56.5 22.5q33 0 56.5 -22.5t23.5 -55.5t-24 -56.5t-56 -23.5q-35 0 -56.5 23.5t-21.5 56.5zM332 532q0 33 22.5 55.5t57.5 22.5q33 0 55 -22.5t22 -55.5t-22 -56t-55 -23q-35 0 -57.5 23.5 t-22.5 55.5zM332 758q0 33 22.5 55.5t57.5 22.5q33 0 55 -22.5t22 -55.5t-22 -56.5t-55 -23.5q-35 0 -57.5 23.5t-22.5 56.5zM498 672q0 33 22.5 56.5t57.5 23.5q33 0 56 -23.5t23 -56.5t-23.5 -55.5t-55.5 -22.5q-35 0 -57.5 22.5t-22.5 55.5z" />
<glyph unicode="~" horiz-adv-x="1095" d="M-2 281v507q55 68 139 118t189 50q63 0 120.5 -20.5t109.5 -44t99 -44t90 -20.5q47 0 83 8.5t70 30t73 60.5t92 100l33 -16v-498q-88 -86 -171 -126t-192 -40q-57 0 -108.5 19.5t-102.5 43t-103 43t-110 19.5q-31 0 -60.5 -8t-62 -30.5t-70.5 -63.5t-83 -107zM80 403 q49 78 106.5 109t149.5 31q51 0 100 -19.5t97.5 -43t97.5 -43t102 -19.5q92 0 154.5 28.5t126.5 90.5v374q-47 -86 -108.5 -120.5t-160.5 -34.5q-49 0 -97 20.5t-99 44t-105.5 44t-117.5 20.5q-82 0 -144.5 -39t-101.5 -86v-357zM121 657q0 33 22.5 56.5t55.5 23.5 q31 0 55.5 -24.5t24.5 -55.5q0 -35 -24 -57t-56 -22q-33 0 -55.5 22.5t-22.5 56.5zM289 725q0 33 23.5 55.5t56.5 22.5q31 0 54 -23.5t23 -54.5q0 -35 -22 -57.5t-55 -22.5t-56.5 22.5t-23.5 57.5zM463 659q0 33 22.5 55.5t55.5 22.5t56.5 -23.5t23.5 -54.5q0 -35 -24 -57 t-56 -22q-33 0 -55.5 22.5t-22.5 56.5zM637 596q0 33 23.5 56.5t56.5 23.5q31 0 55.5 -23.5t24.5 -56.5q0 -35 -23.5 -56.5t-56.5 -21.5t-56.5 21.5t-23.5 56.5zM817 643q0 33 22.5 56.5t55.5 23.5t56.5 -24.5t23.5 -55.5q0 -35 -23.5 -56.5t-56.5 -21.5t-55.5 21.5 t-22.5 56.5z" />
<glyph unicode="&#xa1;" horiz-adv-x="673" d="M46 1112q0 129 78.5 205.5t203.5 76.5q61 0 114.5 -20t93.5 -57t62.5 -89.5t22.5 -115.5q0 -35 -6 -69t-12 -50v-1075h-535v1075q-23 55 -22 119zM125 1112q0 -66 36 -117t95 -74h-106v-921h371v921h-119q59 23 93 74t34 117q0 92 -56.5 146.5t-144.5 54.5 q-92 0 -147.5 -54.5t-55.5 -146.5zM248 160q0 33 23.5 56t56.5 23t55.5 -23.5t22.5 -55.5q0 -35 -22.5 -57.5t-55.5 -22.5t-56.5 22.5t-23.5 57.5zM248 358q0 33 23.5 56.5t56.5 23.5t55.5 -23.5t22.5 -56.5q0 -35 -22.5 -56.5t-55.5 -21.5t-56.5 21.5t-23.5 56.5zM248 559 q0 33 23.5 55.5t56.5 22.5t55.5 -22.5t22.5 -55.5t-22.5 -56.5t-55.5 -23.5t-56.5 23.5t-23.5 56.5zM248 758q0 35 23.5 57t56.5 22t55.5 -22.5t22.5 -56.5q0 -33 -22.5 -55.5t-55.5 -22.5t-56.5 22.5t-23.5 55.5zM248 1112q-2 33 23.5 56.5t56.5 23.5q35 0 56.5 -23.5 t21.5 -56.5q0 -35 -21.5 -56.5t-56.5 -21.5q-33 0 -56.5 21.5t-23.5 56.5z" />
<glyph unicode="&#xa2;" horiz-adv-x="1040" d="M25 641q0 86 25.5 164t71.5 143.5t109.5 115.5t141.5 79v227h368v-231q160 -66 293 -254l-340 -244l346 -233q-68 -104 -144.5 -172t-154.5 -97v-221h-368v221q-78 27 -141.5 77t-109.5 115.5t-71.5 144.5t-25.5 165zM106 641q0 -80 27 -152.5t73 -131t109.5 -99.5 t139.5 -57v-201h204v201q172 47 269 186l-232 160q-23 -35 -59.5 -55.5t-81.5 -20.5q-70 0 -119 49t-49 121t49 121t119 49q45 0 82 -20.5t59 -55.5l226 168q-47 66 -115 111t-148 65v209h-204v-207q-76 -18 -139.5 -59t-109.5 -99.5t-73 -130t-27 -151.5zM180 543 q0 33 23.5 55.5t56.5 22.5t55.5 -24t22.5 -54q0 -33 -22.5 -56.5t-55.5 -23.5t-56.5 23.5t-23.5 56.5zM180 737q0 33 23.5 55.5t56.5 22.5t55.5 -22.5t22.5 -55.5t-22.5 -56.5t-55.5 -23.5t-56.5 24t-23.5 56zM291 381q0 33 22.5 55.5t55.5 22.5t56.5 -23.5t23.5 -54.5 q0 -33 -24 -56.5t-56 -23.5q-33 0 -55.5 23.5t-22.5 56.5zM291 897q0 33 22.5 56.5t55.5 23.5t56.5 -23.5t23.5 -56.5q0 -31 -24 -54.5t-56 -23.5q-33 0 -55.5 22.5t-22.5 55.5zM469 641q0 -37 25.5 -62.5t60.5 -25.5q39 0 64.5 20.5t48.5 65.5q-23 47 -48.5 68.5 t-64.5 21.5q-35 0 -60.5 -25.5t-25.5 -62.5zM473 328q0 33 22.5 55.5t55.5 22.5t56.5 -23.5t23.5 -54.5q0 -33 -23.5 -56.5t-56.5 -23.5t-55.5 23.5t-22.5 56.5zM473 952q0 33 22.5 55.5t55.5 22.5t56.5 -22.5t23.5 -55.5t-23.5 -56.5t-56.5 -23.5t-55.5 24t-22.5 56z M649 381q0 33 23.5 55.5t56.5 22.5t56.5 -23.5t23.5 -54.5q0 -33 -23.5 -56.5t-56.5 -23.5t-56.5 23.5t-23.5 56.5zM649 897q0 33 23.5 56.5t56.5 23.5t56.5 -23.5t23.5 -56.5q0 -31 -23.5 -54.5t-56.5 -23.5t-56.5 22.5t-23.5 55.5z" />
<glyph unicode="&#xa3;" horiz-adv-x="1277" d="M14 -82v911h133q10 123 63.5 226.5t139.5 179.5t197.5 118t238.5 42q135 0 239.5 -42t203.5 -128l-357 -570v-235h400v-502h-1258zM92 0h1098v338h-545v139h146v271h-146v28q0 59 42 99t99 40q74 0 117 -55l217 344q-145 109 -334 109q-117 0 -218 -40t-177 -111.5 t-120 -170t-44 -215.5v-28h-131v-271h131v-139h-135v-338zM150 178q0 33 22.5 56.5t54.5 23.5q35 0 57.5 -23.5t22.5 -56.5t-22.5 -55.5t-57.5 -22.5q-33 0 -55 22.5t-22 55.5zM150 608q0 33 22.5 55.5t54.5 22.5q35 0 57.5 -22.5t22.5 -55.5t-22.5 -56.5t-57.5 -23.5 q-33 0 -55 23.5t-22 56.5zM346 389q0 33 23.5 55.5t56.5 22.5q35 0 56.5 -22.5t23.5 -55.5q0 -35 -22.5 -57.5t-57.5 -22.5q-33 0 -56.5 22.5t-23.5 57.5zM348 608q0 33 23.5 55.5t56.5 22.5q35 0 57.5 -22.5t22.5 -55.5t-22.5 -56.5t-57.5 -23.5q-33 0 -56.5 23.5 t-23.5 56.5zM352 178q0 33 23.5 56.5t56.5 23.5q35 0 56.5 -23.5t21.5 -56.5t-21.5 -55.5t-56.5 -22.5q-33 0 -56.5 22.5t-23.5 55.5zM362 809q0 35 24 56.5t56 21.5q35 0 56.5 -21.5t21.5 -56.5q0 -33 -21.5 -56.5t-56.5 -23.5q-33 0 -56.5 23.5t-23.5 56.5zM432 995 q0 33 23.5 55.5t56.5 22.5q35 0 57.5 -22.5t22.5 -55.5q0 -35 -22.5 -57.5t-57.5 -22.5q-33 0 -56.5 23t-23.5 57zM545 608q0 33 23.5 55.5t56.5 22.5q35 0 56 -22.5t21 -55.5t-21 -56.5t-56 -23.5q-33 0 -56.5 23.5t-23.5 56.5zM561 178q0 33 22.5 56.5t55.5 23.5 q35 0 57.5 -23.5t22.5 -56.5t-22.5 -55.5t-57.5 -22.5q-33 0 -55.5 22.5t-22.5 55.5zM590 1102q0 33 23.5 56.5t56.5 23.5q35 0 56.5 -23.5t21.5 -56.5t-21.5 -55.5t-56.5 -22.5q-33 0 -56.5 22.5t-23.5 55.5zM764 178q0 33 22.5 56.5t55.5 23.5q35 0 57.5 -23.5t22.5 -56.5 t-22.5 -55.5t-57.5 -22.5q-33 0 -55.5 22.5t-22.5 55.5zM791 1102q0 33 23.5 56.5t55.5 23.5q35 0 56.5 -23.5t21.5 -56.5t-21.5 -55.5t-56.5 -22.5q-33 0 -56 22.5t-23 55.5zM958 178q0 33 24 56.5t56 23.5q35 0 57.5 -23.5t22.5 -56.5t-22.5 -55.5t-57.5 -22.5 q-33 0 -56.5 22.5t-23.5 55.5z" />
<glyph unicode="&#xa4;" horiz-adv-x="976" d="M-6 403l117 119q-8 25 -13.5 53.5t-5.5 57.5q0 35 3 58.5t16 51.5l-115 121l244 250l135 -137q29 10 54.5 12t55.5 2q61 0 117 -14l131 139l248 -254l-117 -119q18 -49 19 -110q0 -59 -19 -111l117 -119l-248 -256l-131 138q-53 -12 -117 -13q-29 0 -58.5 4.5t-55.5 10.5 l-129 -140zM109 403l133 -137l108 115q59 -27 135 -27q80 0 140 27l108 -115l133 137l-100 103q35 59 35 127q0 66 -35 125l100 104l-133 135l-108 -114q-33 12 -67 19t-73 7q-68 0 -135 -26l-108 114l-133 -135l100 -104q-35 -59 -35 -125q0 -68 35 -127zM336 633 q0 59 43 101t106 42q66 0 110 -42t44 -101t-44 -101.5t-110 -42.5q-63 0 -106 42t-43 102z" />
<glyph unicode="&#xa5;" horiz-adv-x="1300" d="M-113 1370h629l119 -168l119 168h626l-374 -473h249v-780h-366v-199h-508v199h-367v780h250zM55 1288l377 -473h-336v-252h367v-112h-367v-252h367v-199h344v199h367v252h-367v112h367v252h-336l374 473h-415l-162 -229l-162 229h-418zM145 322q0 33 24 56t56 23 q35 0 56.5 -23.5t21.5 -55.5q0 -33 -21.5 -56.5t-56.5 -23.5q-33 0 -56.5 23.5t-23.5 56.5zM145 682q0 33 24 56.5t56 23.5q35 0 56.5 -23.5t21.5 -56.5t-21.5 -55.5t-56.5 -22.5q-33 0 -56.5 22.5t-23.5 55.5zM285 1167q0 33 23.5 55.5t56.5 22.5q35 0 56 -22.5t21 -55.5 t-21 -56.5t-56 -23.5q-33 0 -56.5 24t-23.5 56zM352 322q0 33 23.5 56t56.5 23q35 0 56.5 -23.5t21.5 -55.5q0 -33 -21.5 -56.5t-56.5 -23.5q-33 0 -56.5 23.5t-23.5 56.5zM352 682q0 33 23.5 56.5t56.5 23.5q35 0 56.5 -23.5t21.5 -56.5t-21.5 -55.5t-56.5 -22.5 q-33 0 -56.5 22.5t-23.5 55.5zM403 999q0 33 24 56.5t56 23.5q35 0 56.5 -23.5t21.5 -56.5t-21.5 -56t-56.5 -23q-33 0 -56.5 23.5t-23.5 55.5zM553 872q0 33 22.5 56.5t57.5 23.5q33 0 56.5 -23.5t23.5 -56.5t-23.5 -56t-56.5 -23q-35 0 -57.5 23.5t-22.5 55.5zM555 135 q0 33 23.5 56.5t56.5 23.5q35 0 56.5 -23.5t21.5 -56.5t-21.5 -55.5t-56.5 -22.5q-33 0 -56.5 22.5t-23.5 55.5zM555 322q0 33 23.5 56t56.5 23q35 0 56.5 -23.5t21.5 -55.5q0 -33 -21.5 -56.5t-56.5 -23.5q-33 0 -56.5 23.5t-23.5 56.5zM555 502q0 33 23.5 56.5t56.5 23.5 q35 0 56.5 -23.5t21.5 -56.5t-21.5 -55.5t-56.5 -22.5q-33 0 -56.5 22.5t-23.5 55.5zM555 682q0 33 23.5 56.5t56.5 23.5q35 0 56.5 -23.5t21.5 -56.5t-21.5 -55.5t-56.5 -22.5q-33 0 -56.5 22.5t-23.5 55.5zM700 999q0 33 21.5 56.5t56.5 23.5q33 0 56.5 -23.5t23.5 -56.5 t-23.5 -56t-56.5 -23q-35 0 -56.5 23.5t-21.5 55.5zM752 322q0 33 21.5 56t55.5 23q33 0 56.5 -23t23.5 -56t-23.5 -56.5t-56.5 -23.5q-35 0 -56 23.5t-21 56.5zM752 682q0 33 21.5 56.5t55.5 23.5q33 0 56.5 -23.5t23.5 -56.5t-23.5 -55.5t-56.5 -22.5q-35 0 -56 22.5 t-21 55.5zM819 1167q0 33 21.5 55.5t56.5 22.5q33 0 56.5 -22.5t23.5 -55.5t-23.5 -56.5t-56.5 -23.5q-35 0 -56.5 24t-21.5 56zM958 322q0 33 21.5 56t56.5 23q33 0 56.5 -23t23.5 -56t-23.5 -56.5t-56.5 -23.5q-35 0 -56.5 23.5t-21.5 56.5zM958 682q0 33 21.5 56.5 t56.5 23.5q33 0 56.5 -23.5t23.5 -56.5t-23.5 -55.5t-56.5 -22.5q-35 0 -56.5 22.5t-21.5 55.5z" />
<glyph unicode="&#xa6;" horiz-adv-x="677" d="M106 -272v1833h463v-1833h-463zM188 -190h299v714h-299v-714zM188 780h299v699h-299v-699zM254 -16q0 33 23.5 56t56.5 23q35 0 56.5 -23t21.5 -56t-21.5 -55.5t-56.5 -22.5q-33 0 -56.5 22.5t-23.5 55.5zM254 176q0 33 23.5 55.5t56.5 22.5q35 0 56.5 -22.5t21.5 -55.5 q0 -35 -21.5 -57.5t-56.5 -22.5q-33 0 -56.5 22.5t-23.5 57.5zM254 365q0 33 23.5 56t56.5 23q35 0 56.5 -23.5t21.5 -55.5q0 -33 -21.5 -56.5t-56.5 -23.5q-33 0 -56.5 23.5t-23.5 56.5zM254 934q0 35 23.5 57.5t56.5 22.5q35 0 56.5 -22.5t21.5 -57.5q0 -33 -21.5 -56.5 t-56.5 -23.5q-33 0 -56.5 23.5t-23.5 56.5zM254 1124q0 33 23.5 56.5t56.5 23.5q35 0 56.5 -23.5t21.5 -56.5q0 -35 -21.5 -56t-56.5 -21q-33 0 -56.5 21.5t-23.5 55.5zM254 1315q0 33 23.5 55.5t56.5 22.5q35 0 56.5 -22.5t21.5 -55.5t-21.5 -56.5t-56.5 -23.5 q-33 0 -56.5 23.5t-23.5 56.5z" />
<glyph unicode="&#xa7;" horiz-adv-x="1040" d="M6 993q0 193 89 285t251 92h471v-420q90 -29 133 -105.5t43 -164.5q0 -61 -8 -105.5t-35 -85.5q39 -43 54.5 -95t15.5 -99q0 -193 -89 -285t-251 -92h-471v418q-90 29 -133 105.5t-43 166.5q0 59 10 105.5t33 85.5q-41 43 -55.5 93t-14.5 101zM88 993q0 -49 22.5 -100 t86.5 -82q-82 -55 -82 -203q0 -39 11 -74.5t33.5 -64.5t57.5 -46t82 -17h264q68 0 68 -72q0 -68 -68 -68h-272v-266h389q123 0 190.5 70.5t67.5 224.5q0 49 -22.5 100t-84.5 84q80 51 80 201q0 39 -11 75t-33.5 64.5t-57.5 46t-84 17.5h-262q-66 0 -66 71q0 68 66 68h272 v266h-389q-123 0 -190.5 -70.5t-67.5 -224.5zM391 647q0 66 47 66h148q49 0 49 -72q0 -66 -49 -66h-148q-47 0 -47 72z" />
<glyph unicode="&#xa8;" horiz-adv-x="1101" d="M27 1569q0 61 21.5 113.5t58 90t89 59t113.5 21.5q78 0 141.5 -35.5t98.5 -95.5q37 59 99.5 95t142.5 36q61 0 113 -21.5t89 -60t58.5 -90t21.5 -112.5q0 -129 -76.5 -205t-205.5 -76q-80 0 -142.5 32t-99.5 91q-35 -59 -97.5 -91t-142.5 -32q-61 0 -113.5 20.5t-89 57.5 t-58 88t-21.5 115zM109 1569q0 -92 56 -145.5t144 -53.5q92 0 146.5 53.5t54.5 145.5q0 86 -56.5 144.5t-144.5 58.5t-144 -57.5t-56 -145.5zM229 1569q0 35 22.5 57.5t57.5 22.5q33 0 56.5 -22.5t23.5 -57.5q0 -33 -23.5 -56.5t-56.5 -23.5q-35 0 -57.5 23.5t-22.5 56.5z M590 1569q0 -92 56 -145.5t145 -53.5q92 0 146 53.5t54 145.5q0 86 -56 144.5t-144 58.5t-144.5 -57.5t-56.5 -145.5zM713 1569q0 35 21.5 57.5t56.5 22.5q33 0 56 -22.5t23 -57.5q0 -33 -23.5 -56.5t-55.5 -23.5q-35 0 -56.5 23.5t-21.5 56.5z" />
<glyph unicode="&#xa9;" horiz-adv-x="1548" d="M25 643q0 156 59 292t160.5 238.5t239 162t290.5 59.5q156 0 292 -59.5t238.5 -162t162 -238.5t59.5 -292q0 -154 -59.5 -291t-162 -238.5t-238.5 -160.5t-292 -59q-154 0 -291 59t-238.5 160.5t-160.5 238.5t-59 291zM106 643q0 -137 53.5 -259t143.5 -212t212 -143.5 t259 -53.5t260 53.5t213 143.5t143.5 212t53.5 259t-53.5 260t-143.5 213t-213 143.5t-260 53.5t-259 -53.5t-212 -143.5t-143.5 -213t-53.5 -260zM291 643q0 100 38 188.5t103.5 154t153.5 102t188 36.5t189.5 -36.5t154 -102t102 -154t37.5 -188.5t-37.5 -188t-102 -153.5 t-154 -103.5t-189.5 -38t-188 38t-153.5 103.5t-103.5 153.5t-38 188zM461 643q0 -63 24.5 -119.5t66.5 -98.5t98.5 -66.5t119.5 -24.5q76 0 139.5 32.5t104.5 88.5l-148 125q-16 -23 -40.5 -37.5t-55.5 -14.5q-47 0 -81 34t-34 81t34 82t81 35q61 0 96 -53l156 116 q-43 59 -108.5 94t-143.5 35q-63 0 -119.5 -24.5t-98.5 -66.5t-66.5 -98t-24.5 -120z" />
<glyph unicode="&#xaa;" horiz-adv-x="1042" d="M-4 424v29l291 917h469l295 -911v-35h-1055zM96 506h291l29 123h192l29 -123h311l-252 782h-350zM461 836l53 192l49 -192h-102z" />
<glyph unicode="&#xab;" horiz-adv-x="1417" d="M23 459v321l725 367v-328l647 328v-1053l-647 326v-326zM104 510l562 -283v314l-191 80l191 77v316l-562 -285v-219zM152 618q0 33 22.5 56.5t54.5 23.5q33 0 56.5 -23.5t23.5 -56.5q0 -35 -23.5 -56t-56.5 -21t-55 21.5t-22 55.5zM303 526q0 33 23.5 56.5t56.5 23.5 q35 0 57.5 -23.5t22.5 -56.5t-22.5 -56.5t-57.5 -23.5q-33 0 -56.5 24t-23.5 56zM303 715q0 33 24.5 55.5t55.5 22.5q35 0 57.5 -21.5t22.5 -56.5q0 -33 -22.5 -56.5t-57.5 -23.5q-33 0 -56.5 23.5t-23.5 56.5zM465 449q0 33 24.5 56t55.5 23q33 0 56.5 -23t23.5 -56 t-23.5 -55.5t-56.5 -22.5t-56.5 22.5t-23.5 55.5zM465 791q0 33 24.5 56t55.5 23q33 0 56.5 -23t23.5 -56t-23.5 -55.5t-56.5 -22.5t-56.5 22.5t-23.5 55.5zM752 510l561 -283v314l-191 80l191 77v316l-561 -285v-219zM799 618q0 33 22.5 56.5t55.5 23.5t56 -23.5t23 -56.5 q0 -35 -23.5 -56t-55.5 -21q-33 0 -55.5 21.5t-22.5 55.5zM950 526q0 33 23.5 56.5t56.5 23.5q35 0 57.5 -23.5t22.5 -56.5t-22.5 -56.5t-57.5 -23.5q-33 0 -56.5 24t-23.5 56zM950 715q0 33 24.5 55.5t55.5 22.5q35 0 57.5 -21.5t22.5 -56.5q0 -33 -22.5 -56.5t-57.5 -23.5 q-33 0 -56.5 23.5t-23.5 56.5zM1112 449q0 33 24.5 56t55.5 23q33 0 56.5 -23t23.5 -56t-23.5 -55.5t-56.5 -22.5t-56.5 22.5t-23.5 55.5zM1112 791q0 33 24.5 56t55.5 23q33 0 56.5 -23t23.5 -56t-23.5 -55.5t-56.5 -22.5t-56.5 22.5t-23.5 55.5z" />
<glyph unicode="&#xac;" horiz-adv-x="1138" d="M4 408v389h1110v-879h-397v490h-713zM86 489h713v-489h233v715h-946v-226z" />
<glyph unicode="&#xad;" horiz-adv-x="839" d="M20 379v491h799v-491h-799zM102 461h635v327h-635v-327zM164 631q0 35 23.5 57.5t56.5 22.5q31 0 55.5 -23.5t24.5 -56.5t-24 -55.5t-56 -22.5q-33 0 -56.5 22.5t-23.5 55.5zM338 631q0 35 23.5 57.5t56.5 22.5t56.5 -23.5t23.5 -56.5t-22.5 -55.5t-57.5 -22.5 q-33 0 -56.5 22.5t-23.5 55.5zM512 631q0 35 23.5 57.5t56.5 22.5t55.5 -23.5t22.5 -56.5t-21.5 -55.5t-56.5 -22.5q-33 0 -56.5 22.5t-23.5 55.5z" />
<glyph unicode="&#xae;" horiz-adv-x="1026" d="M-2 901q0 106 41 199.5t110.5 163t163 110.5t199.5 41t200.5 -41t164 -110.5t110.5 -162.5t41 -200q0 -106 -41 -200.5t-110.5 -164t-164 -110.5t-200.5 -41t-199.5 41t-163 110.5t-110.5 164t-41 200.5zM80 901q0 -90 33.5 -169t93 -138t137.5 -93t168 -34t169 34 t138.5 93t93 138t33.5 169q0 88 -33.5 167t-93 138.5t-138.5 93t-169 33.5t-168 -33.5t-137.5 -93t-93 -138.5t-33.5 -167zM199 901q0 63 24.5 120.5t67.5 99.5t99 66.5t122 24.5q63 0 120.5 -24.5t99.5 -66.5t66.5 -99t24.5 -121q0 -66 -24.5 -123t-66.5 -100t-99.5 -67.5 t-120.5 -24.5q-66 0 -122 24.5t-99 67.5t-67.5 100.5t-24.5 122.5zM365 723h124v119l43 -119h154l-59 133q27 18 43 46t16 61q0 55 -38 92t-91 37h-192v-369zM489 920v63h46q12 0 21 -8t9 -23q0 -12 -9 -22t-21 -10h-46z" />
<glyph unicode="&#xaf;" horiz-adv-x="1015" d="M20 1350v450h975v-450h-975zM102 1432h811v286h-811v-286zM164 1575q0 35 23.5 57.5t56.5 22.5q31 0 55.5 -23.5t24.5 -56.5t-24 -55.5t-56 -22.5q-33 0 -56.5 22.5t-23.5 55.5zM338 1575q0 35 23.5 57.5t56.5 22.5t56.5 -23.5t23.5 -56.5t-22.5 -55.5t-57.5 -22.5 q-33 0 -56.5 22.5t-23.5 55.5zM514 1575q0 35 23.5 57.5t56.5 22.5t55.5 -23.5t22.5 -56.5t-21.5 -55.5t-56.5 -22.5q-33 0 -56.5 22.5t-23.5 55.5zM688 1575q0 35 22.5 57.5t55.5 22.5t56.5 -23.5t23.5 -56.5t-22.5 -55.5t-57.5 -22.5q-33 0 -55.5 22.5t-22.5 55.5z" />
<glyph unicode="&#xb0;" horiz-adv-x="870" d="M31 868v142q0 184 108.5 284.5t294.5 100.5q184 0 294 -100.5t110 -284.5v-142q0 -186 -110 -285.5t-294 -99.5q-186 0 -294.5 99.5t-108.5 285.5zM113 868q0 -147 87 -225t234 -78t234.5 78t87.5 225v142q0 143 -87 223t-235 80q-147 0 -234 -80t-87 -223v-142zM197 838 q0 33 23.5 54t53.5 21q31 0 53.5 -21t22.5 -54q0 -35 -22.5 -55.5t-53.5 -20.5t-54 20.5t-23 55.5zM197 1051q0 35 23.5 56t53.5 21q31 0 53.5 -21t22.5 -56q0 -31 -22.5 -53.5t-53.5 -22.5t-54 22.5t-23 53.5zM350 700q0 31 23.5 53.5t56.5 22.5q29 0 52.5 -22.5 t23.5 -53.5q0 -33 -23.5 -55t-52.5 -22q-33 0 -56.5 22.5t-23.5 54.5zM350 1188q0 35 23.5 56.5t56.5 21.5q29 0 52.5 -21.5t23.5 -56.5q0 -29 -23.5 -52.5t-52.5 -23.5q-33 0 -56.5 23.5t-23.5 52.5zM401 864v146q0 61 33 61q31 0 31 -61v-146q0 -59 -31 -59q-33 0 -33 59z M506 838q0 33 22.5 54t55.5 21q29 0 51 -21.5t22 -53.5q0 -35 -22 -55.5t-51 -20.5q-33 0 -55.5 20.5t-22.5 55.5zM506 1051q0 35 22.5 56t55.5 21q29 0 51 -21.5t22 -55.5q0 -31 -22 -53.5t-51 -22.5q-33 0 -55.5 22.5t-22.5 53.5z" />
<glyph unicode="&#xb1;" horiz-adv-x="1128" d="M2 184h358v238h-344v434h344v342h435v-342h344v-434h-344v-238h329v-434h-1122v434zM84 102v-270h958v270h-958zM98 504h344v-344h271v344h344v270h-344v342h-271v-342h-344v-270zM135 -31q0 33 22.5 56.5t55.5 23.5t56.5 -24.5t23.5 -55.5q0 -35 -22.5 -56.5 t-57.5 -21.5q-33 0 -55.5 21.5t-22.5 56.5zM150 643q0 33 22.5 56.5t54.5 23.5q33 0 56.5 -24.5t23.5 -55.5q0 -35 -22.5 -56.5t-57.5 -21.5q-33 0 -55 21.5t-22 56.5zM309 -31q0 33 22.5 56.5t55.5 23.5t56.5 -24.5t23.5 -55.5q0 -35 -22.5 -56.5t-57.5 -21.5 q-33 0 -55.5 21.5t-22.5 56.5zM324 643q0 33 22.5 56.5t54.5 23.5q33 0 56.5 -24.5t23.5 -55.5q0 -35 -22.5 -56.5t-57.5 -21.5q-33 0 -55 21.5t-22 56.5zM483 -31q0 33 22.5 56.5t57.5 23.5q31 0 55.5 -24.5t24.5 -55.5q0 -35 -23.5 -56.5t-56.5 -21.5q-35 0 -57.5 21.5 t-22.5 56.5zM502 641q0 33 22.5 56.5t57.5 23.5q31 0 54 -24.5t23 -55.5q0 -35 -22.5 -56.5t-54.5 -21.5q-35 0 -57.5 21.5t-22.5 56.5zM504 291q0 33 22.5 56.5t57.5 23.5q33 0 55.5 -23.5t22.5 -56.5q0 -31 -20.5 -55.5t-51.5 -24.5q-35 0 -60.5 23.5t-25.5 56.5zM504 465 q0 33 22.5 55.5t57.5 22.5q33 0 55.5 -22.5t22.5 -55.5q0 -31 -23.5 -55.5t-54.5 -24.5q-35 0 -57.5 23.5t-22.5 56.5zM504 813q0 33 22.5 56.5t57.5 23.5q33 0 55.5 -23.5t22.5 -56.5t-23.5 -55.5t-54.5 -22.5q-35 0 -57.5 21.5t-22.5 56.5zM504 987q0 33 22.5 56.5 t57.5 23.5q33 0 55.5 -23.5t22.5 -56.5t-23.5 -55.5t-54.5 -22.5q-35 0 -57.5 21.5t-22.5 56.5zM657 -31q0 33 24 56.5t56 23.5q31 0 54.5 -24.5t23.5 -55.5q0 -35 -22.5 -56.5t-55.5 -21.5t-56.5 21.5t-23.5 56.5zM672 643q0 33 23.5 56.5t56.5 23.5q31 0 54 -24.5 t23 -55.5q0 -35 -22.5 -56.5t-54.5 -21.5q-33 0 -56.5 21.5t-23.5 56.5zM831 -31q0 33 24 56.5t56 23.5q31 0 54.5 -24.5t23.5 -55.5q0 -35 -22.5 -56.5t-55.5 -21.5t-56.5 21.5t-23.5 56.5zM846 643q0 33 23.5 56.5t56.5 23.5q31 0 54.5 -24.5t23.5 -55.5q0 -35 -23 -56.5 t-55 -21.5q-33 0 -56.5 21.5t-23.5 56.5z" />
<glyph unicode="&#xb4;" horiz-adv-x="626" d="M-18 1268l161 616h539l-281 -616h-419zM88 1350h262l207 452h-350zM180 1479q0 33 21.5 55t56.5 22q33 0 56.5 -22t23.5 -55q0 -35 -23.5 -57.5t-56.5 -22.5q-35 0 -56.5 22.5t-21.5 57.5zM256 1669q0 33 22.5 55.5t55.5 22.5q35 0 57.5 -22.5t22.5 -55.5t-22.5 -56.5 t-57.5 -23.5q-33 0 -55.5 23.5t-22.5 56.5z" />
<glyph unicode="&#xb5;" horiz-adv-x="964" d="M51 -330v1288h860v-991q-74 -25 -173 -49t-203 -24q-27 0 -52.5 1t-46.5 5v-230h-385zM133 -248h221v262q14 -16 54.5 -27.5t126.5 -11.5q92 0 167.5 17.5t126.5 34.5v850h-217v-697q-23 -8 -55.5 -13t-79.5 -5q-57 0 -90 25.5t-33 84.5v605h-221v-1125z" />
<glyph unicode="&#xb6;" horiz-adv-x="1218" d="M0 1061q0 66 20.5 122t65.5 98t116.5 65.5t176.5 23.5h901l-164 -305v-1147h-891v842q-119 37 -172 110.5t-53 190.5zM82 1061q0 -98 53 -155.5t172 -82.5v-823h260v1061h209v-1061h258v1085l109 203h-764q-82 0 -138.5 -17.5t-92 -48t-51 -71.5t-15.5 -90z" />
<glyph unicode="&#xb7;" horiz-adv-x="622" d="M29 633q0 61 21.5 113.5t58 90.5t89 59.5t113.5 21.5t113.5 -21.5t89.5 -60.5t58.5 -90t21.5 -113q0 -129 -77 -205.5t-206 -76.5q-61 0 -113.5 20t-89 57t-58 89.5t-21.5 115.5zM111 633q0 -92 56 -146.5t144 -54.5q92 0 146.5 54.5t54.5 146.5q0 86 -56.5 144.5 t-144.5 58.5t-144 -57.5t-56 -145.5zM231 633q0 35 22.5 56.5t57.5 21.5q33 0 55.5 -21.5t22.5 -56.5q0 -33 -22.5 -56.5t-55.5 -23.5q-35 0 -57.5 23.5t-22.5 56.5z" />
<glyph unicode="&#xb8;" horiz-adv-x="548" d="M25 -477l26 543l484 -80l-129 -512zM111 -414l233 -30l90 364l-305 51zM166 -311q0 29 20.5 50t53.5 21q29 0 51 -19.5t22 -47.5q1 -78 -75 -78q-31 0 -51.5 19.5t-20.5 54.5zM193 -156q0 31 21.5 53.5t53.5 22.5q31 0 52.5 -19.5t21.5 -47.5q0 -33 -18.5 -56.5 t-57.5 -23.5q-29 0 -51 20.5t-22 50.5z" />
<glyph unicode="&#xba;" horiz-adv-x="1034" d="M27 879q0 100 38.5 190t104.5 156.5t155 105.5t191 39q100 0 190.5 -39t157 -105.5t105.5 -156.5t39 -190q0 -102 -39 -191.5t-105.5 -155t-157 -104.5t-190.5 -39q-102 0 -191 39t-155 104.5t-104.5 154.5t-38.5 192zM109 879q0 -84 31.5 -159t87 -130t130 -87 t158.5 -32q86 0 161 32t130 87t87 130t32 159q0 86 -32 160.5t-87 130t-130 87t-161 31.5q-84 0 -158.5 -31.5t-130 -87t-87 -130t-31.5 -160.5zM365 879q0 66 44 109.5t107 43.5q66 0 110 -43.5t44 -109.5q0 -63 -44 -107.5t-110 -44.5q-63 0 -107 44t-44 108z" />
<glyph unicode="&#xbb;" horiz-adv-x="1417" d="M23 94v1053l647 -328v328l725 -367v-321l-725 -365v326zM104 227l562 283v219l-562 285v-316l189 -77l-189 -80v-314zM145 449q0 33 24 56t56 23q31 0 54.5 -23t23.5 -56t-22.5 -55.5t-55.5 -22.5t-56.5 22.5t-23.5 55.5zM145 791q0 33 24 56t56 23q31 0 54.5 -23 t23.5 -56t-22.5 -55.5t-55.5 -22.5t-56.5 22.5t-23.5 55.5zM307 526q0 33 22.5 56.5t57.5 23.5q33 0 55.5 -23.5t22.5 -56.5t-22.5 -56.5t-55.5 -23.5q-35 0 -57.5 24t-22.5 56zM307 715q0 35 22.5 56.5t57.5 21.5q31 0 54.5 -22.5t23.5 -55.5t-22.5 -56.5t-55.5 -23.5 q-35 0 -57.5 23.5t-22.5 56.5zM461 618q0 33 23.5 56.5t56.5 23.5t55 -23.5t22 -56.5q0 -35 -22.5 -56t-54.5 -21q-33 0 -56.5 21.5t-23.5 55.5zM752 227l561 283v219l-561 285v-316l188 -77l-188 -80v-314zM793 449q0 33 23.5 56t55.5 23q31 0 54.5 -23t23.5 -56 t-22.5 -55.5t-55.5 -22.5t-56 22.5t-23 55.5zM793 791q0 33 23.5 56t55.5 23q31 0 54.5 -23t23.5 -56t-22.5 -55.5t-55.5 -22.5t-56 22.5t-23 55.5zM954 526q0 33 22.5 56.5t57.5 23.5q33 0 55.5 -23.5t22.5 -56.5t-22.5 -56.5t-55.5 -23.5q-35 0 -57.5 24t-22.5 56z M954 715q0 35 22.5 56.5t57.5 21.5q31 0 54.5 -22.5t23.5 -55.5t-22.5 -56.5t-55.5 -23.5q-35 0 -57.5 23.5t-22.5 56.5zM1108 618q0 33 23.5 56.5t56.5 23.5t55.5 -23.5t22.5 -56.5q0 -35 -22.5 -56t-55.5 -21t-56.5 21.5t-23.5 55.5z" />
<glyph unicode="&#xbf;" horiz-adv-x="1005" d="M-8 348q0 68 14 120t42 96t69 85t94 86q29 25 44 50.5t15 60.5v155q-14 35 -14 94q0 61 20.5 117t57.5 95.5t90 63t116 23.5q74 0 127.5 -23.5t88 -64.5t52 -93t17.5 -111q0 -45 -16 -101v-202q0 -90 -25.5 -170t-118.5 -160l338 -154q-45 -131 -102 -214t-124 -129 t-143.5 -62.5t-162.5 -16.5q-94 0 -181 31t-154 89t-105.5 143t-38.5 192zM74 348q0 -88 32.5 -157.5t87 -117t126 -73t151.5 -25.5q74 0 137.5 12.5t118.5 45t101 92t83 153.5l-305 133q-12 -35 -31.5 -65.5t-62.5 -30.5q-55 0 -55 58q0 31 26.5 57.5t62 53t72.5 54 t58 58.5q31 47 41 98t10 105v118h-117q63 20 101 72.5t38 122.5q0 80 -49 140.5t-151 60.5q-88 0 -144.5 -56.5t-56.5 -144.5q0 -70 39 -122t102 -73h-137v-71q0 -59 -23.5 -98.5t-64.5 -73.5q-47 -39 -83 -75t-59.5 -73t-35.5 -80t-12 -98zM158 346q0 33 22.5 55.5 t54.5 22.5q35 0 57.5 -22.5t22.5 -55.5q0 -35 -22.5 -57.5t-57.5 -22.5q-33 0 -55 22.5t-22 57.5zM254 196q0 33 22.5 55.5t55.5 22.5t56 -22.5t23 -55.5t-22.5 -56t-56.5 -23q-33 0 -55.5 23t-22.5 56zM258 491q0 35 23.5 57.5t56.5 22.5q35 0 57.5 -22.5t22.5 -57.5 q0 -33 -22.5 -56.5t-57.5 -23.5q-31 0 -55.5 24.5t-24.5 55.5zM377 626q0 35 22.5 57.5t57.5 22.5q33 0 55 -22.5t22 -57.5q0 -33 -22.5 -55t-54.5 -22q-33 0 -56.5 23t-23.5 54zM428 149q0 33 22.5 56.5t57.5 23.5q31 0 55.5 -24.5t24.5 -55.5q0 -35 -24 -57.5t-56 -22.5 q-35 0 -57.5 22.5t-22.5 57.5zM471 786q0 33 22.5 55.5t55.5 22.5t56.5 -23.5t23.5 -54.5q0 -35 -23 -57.5t-57 -22.5q-33 0 -55.5 22.5t-22.5 57.5zM471 1112q0 33 22.5 56.5t55.5 23.5q35 0 57.5 -23.5t22.5 -56.5q0 -35 -23 -56.5t-57 -21.5q-37 0 -57.5 21.5t-20.5 56.5 zM602 211q0 35 22.5 57.5t57.5 22.5q31 0 55.5 -23.5t24.5 -56.5t-23.5 -55.5t-56.5 -22.5q-35 0 -57.5 22.5t-22.5 55.5z" />
<glyph unicode="&#xc0;" d="M-31 -51l492 1421h92l-231 514h536l135 -514h29l496 -1423v-29h-594l-39 135h-285l-43 -135h-588v31zM74 0h424l43 135h407l41 -135h422l-448 1288h-443zM240 145q0 33 21.5 55.5t55.5 22.5q31 0 55.5 -23.5t24.5 -54.5q0 -35 -23.5 -57t-56.5 -22q-35 0 -56 22.5 t-21 56.5zM295 307q0 35 23.5 57.5t56.5 22.5q31 0 55.5 -23.5t24.5 -56.5t-23.5 -55.5t-56.5 -22.5t-56.5 22.5t-23.5 55.5zM352 473q0 33 22.5 56.5t55.5 23.5t56.5 -24.5t23.5 -55.5q0 -33 -23.5 -56.5t-56.5 -23.5t-55.5 23.5t-22.5 56.5zM410 639q0 33 22.5 56.5 t54.5 23.5q33 0 56.5 -24.5t23.5 -55.5q0 -33 -23.5 -56.5t-56.5 -23.5t-55 23.5t-22 56.5zM446 1802l205 -452h262l-118 452h-349zM467 803q0 33 22.5 56.5t55.5 23.5t56.5 -24.5t23.5 -55.5q0 -33 -23.5 -56.5t-56.5 -23.5t-55.5 23.5t-22.5 56.5zM475 301q0 33 22.5 56.5 t55.5 23.5t56.5 -23.5t23.5 -56.5q0 -35 -23.5 -57.5t-56.5 -22.5t-55.5 23.5t-22.5 56.5zM522 969q0 33 22.5 56.5t55.5 23.5t56.5 -24.5t23.5 -55.5q0 -33 -23.5 -56.5t-56.5 -23.5t-55.5 23.5t-22.5 56.5zM575 1133q0 33 23 55t57 22q31 0 54.5 -23.5t23.5 -53.5 q0 -35 -22.5 -57.5t-55.5 -22.5q-35 0 -57.5 22.5t-22.5 57.5zM588 1669q0 33 22.5 55.5t57.5 22.5q33 0 56.5 -22.5t23.5 -55.5t-24 -56.5t-56 -23.5q-35 0 -57.5 23.5t-22.5 56.5zM633 457l108 374l111 -374h-219zM657 301q0 33 24 56.5t56 23.5q35 0 57.5 -23.5 t22.5 -56.5q0 -35 -22.5 -57.5t-57.5 -22.5q-31 0 -55.5 23.5t-24.5 56.5zM664 1479q0 33 23.5 55t55.5 22q35 0 57.5 -22t22.5 -55q0 -35 -22.5 -57.5t-57.5 -22.5q-33 0 -56 22.5t-23 57.5zM750 1133q0 33 23.5 55t55.5 22q31 0 54.5 -23.5t23.5 -53.5q0 -35 -22.5 -57.5 t-55.5 -22.5t-56 22.5t-23 57.5zM797 967q0 33 22.5 56.5t54.5 23.5q33 0 56.5 -23.5t23.5 -56.5t-23.5 -56.5t-56.5 -23.5q-35 0 -56 23.5t-21 56.5zM848 301q0 33 23.5 56.5t56.5 23.5t55.5 -23.5t22.5 -56.5q0 -35 -22.5 -57.5t-55.5 -22.5t-56.5 23.5t-23.5 56.5z M852 801q0 33 23.5 56.5t56.5 23.5t56.5 -22.5t23.5 -57.5q0 -33 -23.5 -55.5t-56.5 -22.5q-35 0 -57.5 22.5t-22.5 55.5zM909 639q0 33 23.5 55.5t56.5 22.5t55.5 -22.5t22.5 -55.5q0 -35 -22.5 -57.5t-55.5 -22.5t-56.5 22.5t-23.5 57.5zM967 473q0 33 22.5 56.5 t54.5 23.5q33 0 56.5 -24.5t23.5 -55.5q0 -33 -23.5 -56.5t-56.5 -23.5t-55 23.5t-22 56.5zM1024 307q0 35 22.5 57.5t55.5 22.5q31 0 55.5 -23.5t24.5 -56.5t-23.5 -55.5t-56.5 -22.5t-55.5 22.5t-22.5 55.5zM1077 145q0 31 24.5 54.5t55.5 23.5q35 0 57.5 -22.5 t22.5 -55.5q0 -35 -22.5 -57t-57.5 -22q-33 0 -56.5 22.5t-23.5 56.5z" />
<glyph unicode="&#xc1;" d="M-31 -51l492 1421h26l136 514h538l-233 -514h94l496 -1423v-29h-594l-39 135h-285l-43 -135h-588v31zM74 0h424l43 135h407l41 -135h422l-448 1288h-443zM240 145q0 33 21.5 55.5t55.5 22.5q31 0 55.5 -23.5t24.5 -54.5q0 -35 -23.5 -57t-56.5 -22q-35 0 -56 22.5 t-21 56.5zM295 307q0 35 23.5 57.5t56.5 22.5q31 0 55.5 -23.5t24.5 -56.5t-23.5 -55.5t-56.5 -22.5t-56.5 22.5t-23.5 55.5zM352 473q0 33 22.5 56.5t55.5 23.5t56.5 -24.5t23.5 -55.5q0 -33 -23.5 -56.5t-56.5 -23.5t-55.5 23.5t-22.5 56.5zM410 639q0 33 22.5 56.5 t54.5 23.5q33 0 56.5 -24.5t23.5 -55.5q0 -33 -23.5 -56.5t-56.5 -23.5t-55 23.5t-22 56.5zM467 803q0 33 22.5 56.5t55.5 23.5t56.5 -24.5t23.5 -55.5q0 -33 -23.5 -56.5t-56.5 -23.5t-55.5 23.5t-22.5 56.5zM475 301q0 33 22.5 56.5t55.5 23.5t56.5 -23.5t23.5 -56.5 q0 -35 -23.5 -57.5t-56.5 -22.5t-55.5 23.5t-22.5 56.5zM522 969q0 33 22.5 56.5t55.5 23.5t56.5 -24.5t23.5 -55.5q0 -33 -23.5 -56.5t-56.5 -23.5t-55.5 23.5t-22.5 56.5zM567 1350h262l207 452h-350zM575 1133q0 33 23 55t57 22q31 0 54.5 -23.5t23.5 -53.5 q0 -35 -22.5 -57.5t-55.5 -22.5q-35 0 -57.5 22.5t-22.5 57.5zM633 457l108 374l111 -374h-219zM657 301q0 33 24 56.5t56 23.5q35 0 57.5 -23.5t22.5 -56.5q0 -35 -22.5 -57.5t-57.5 -22.5q-31 0 -55.5 23.5t-24.5 56.5zM659 1479q0 33 21.5 55t56.5 22q33 0 56.5 -22 t23.5 -55q0 -35 -23.5 -57.5t-56.5 -22.5q-35 0 -56.5 22.5t-21.5 57.5zM735 1669q0 33 22.5 55.5t55.5 22.5q35 0 57.5 -22.5t22.5 -55.5t-22.5 -56.5t-57.5 -23.5q-33 0 -55.5 23.5t-22.5 56.5zM750 1133q0 33 23.5 55t55.5 22q31 0 54.5 -23.5t23.5 -53.5 q0 -35 -22.5 -57.5t-55.5 -22.5t-56 22.5t-23 57.5zM797 967q0 33 22.5 56.5t54.5 23.5q33 0 56.5 -23.5t23.5 -56.5t-23.5 -56.5t-56.5 -23.5q-35 0 -56 23.5t-21 56.5zM848 301q0 33 23.5 56.5t56.5 23.5t55.5 -23.5t22.5 -56.5q0 -35 -22.5 -57.5t-55.5 -22.5t-56.5 23.5 t-23.5 56.5zM852 801q0 33 23.5 56.5t56.5 23.5t56.5 -22.5t23.5 -57.5q0 -33 -23.5 -55.5t-56.5 -22.5q-35 0 -57.5 22.5t-22.5 55.5zM909 639q0 33 23.5 55.5t56.5 22.5t55.5 -22.5t22.5 -55.5q0 -35 -22.5 -57.5t-55.5 -22.5t-56.5 22.5t-23.5 57.5zM967 473 q0 33 22.5 56.5t54.5 23.5q33 0 56.5 -24.5t23.5 -55.5q0 -33 -23.5 -56.5t-56.5 -23.5t-55 23.5t-22 56.5zM1024 307q0 35 22.5 57.5t55.5 22.5q31 0 55.5 -23.5t24.5 -56.5t-23.5 -55.5t-56.5 -22.5t-55.5 22.5t-22.5 55.5zM1077 145q0 31 24.5 54.5t55.5 23.5 q35 0 57.5 -22.5t22.5 -55.5q0 -35 -22.5 -57t-57.5 -22q-33 0 -56.5 22.5t-23.5 56.5z" />
<glyph unicode="&#xc2;" d="M-31 -51l455 1319h-199l385 616h260l385 -616h-198l461 -1321v-29h-594l-39 135h-285l-43 -135h-588v31zM74 0h424l43 135h407l41 -135h422l-448 1288h-443zM240 145q0 33 21.5 55.5t55.5 22.5q31 0 55.5 -23.5t24.5 -54.5q0 -35 -23.5 -57t-56.5 -22q-35 0 -56 22.5 t-21 56.5zM295 307q0 35 23.5 57.5t56.5 22.5q31 0 55.5 -23.5t24.5 -56.5t-23.5 -55.5t-56.5 -22.5t-56.5 22.5t-23.5 55.5zM352 473q0 33 22.5 56.5t55.5 23.5t56.5 -24.5t23.5 -55.5q0 -33 -23.5 -56.5t-56.5 -23.5t-55.5 23.5t-22.5 56.5zM373 1350h299l67 149l66 -149 h303l-283 452h-170zM410 639q0 33 22.5 56.5t54.5 23.5q33 0 56.5 -24.5t23.5 -55.5q0 -33 -23.5 -56.5t-56.5 -23.5t-55 23.5t-22 56.5zM467 803q0 33 22.5 56.5t55.5 23.5t56.5 -24.5t23.5 -55.5q0 -33 -23.5 -56.5t-56.5 -23.5t-55.5 23.5t-22.5 56.5zM475 301 q0 33 22.5 56.5t55.5 23.5t56.5 -23.5t23.5 -56.5q0 -35 -23.5 -57.5t-56.5 -22.5t-55.5 23.5t-22.5 56.5zM518 1479q0 33 22.5 55t57.5 22q33 0 55.5 -22.5t22.5 -54.5q0 -35 -22.5 -57.5t-55.5 -22.5q-35 0 -57.5 22.5t-22.5 57.5zM522 969q0 33 22.5 56.5t55.5 23.5 t56.5 -24.5t23.5 -55.5q0 -33 -23.5 -56.5t-56.5 -23.5t-55.5 23.5t-22.5 56.5zM575 1133q0 33 23 55t57 22q31 0 54.5 -23.5t23.5 -53.5q0 -35 -22.5 -57.5t-55.5 -22.5q-35 0 -57.5 22.5t-22.5 57.5zM633 457l108 374l111 -374h-219zM657 301q0 33 24 56.5t56 23.5 q35 0 57.5 -23.5t22.5 -56.5q0 -35 -22.5 -57.5t-57.5 -22.5q-31 0 -55.5 23.5t-24.5 56.5zM659 1669q0 33 24 55.5t56 22.5q35 0 56.5 -22.5t21.5 -55.5t-21.5 -56.5t-56.5 -23.5q-33 0 -56.5 23.5t-23.5 56.5zM750 1133q0 33 23.5 55t55.5 22q31 0 54.5 -23.5t23.5 -53.5 q0 -35 -22.5 -57.5t-55.5 -22.5t-56 22.5t-23 57.5zM797 967q0 33 22.5 56.5t54.5 23.5q33 0 56.5 -23.5t23.5 -56.5t-23.5 -56.5t-56.5 -23.5q-35 0 -56 23.5t-21 56.5zM805 1479q0 33 22.5 55t55.5 22q35 0 57.5 -22t22.5 -55q0 -35 -22.5 -57.5t-57.5 -22.5 q-33 0 -55.5 22.5t-22.5 57.5zM848 301q0 33 23.5 56.5t56.5 23.5t55.5 -23.5t22.5 -56.5q0 -35 -22.5 -57.5t-55.5 -22.5t-56.5 23.5t-23.5 56.5zM852 801q0 33 23.5 56.5t56.5 23.5t56.5 -22.5t23.5 -57.5q0 -33 -23.5 -55.5t-56.5 -22.5q-35 0 -57.5 22.5t-22.5 55.5z M909 639q0 33 23.5 55.5t56.5 22.5t55.5 -22.5t22.5 -55.5q0 -35 -22.5 -57.5t-55.5 -22.5t-56.5 22.5t-23.5 57.5zM967 473q0 33 22.5 56.5t54.5 23.5q33 0 56.5 -24.5t23.5 -55.5q0 -33 -23.5 -56.5t-56.5 -23.5t-55 23.5t-22 56.5zM1024 307q0 35 22.5 57.5t55.5 22.5 q31 0 55.5 -23.5t24.5 -56.5t-23.5 -55.5t-56.5 -22.5t-55.5 22.5t-22.5 55.5zM1077 145q0 31 24.5 54.5t55.5 23.5q35 0 57.5 -22.5t22.5 -55.5q0 -35 -22.5 -57t-57.5 -22q-33 0 -56.5 22.5t-23.5 56.5z" />
<glyph unicode="&#xc3;" d="M-31 -51l492 1421h280q-41 23 -85 37t-91 14q-35 0 -65.5 -5t-59 -19.5t-57.5 -40t-61 -66.5l-52 31v369q49 55 122 97t165 42q49 0 95 -14.5t89 -33t84 -32.5t82 -14t73 5t59.5 20.5t54 44t55.5 73.5l63 -20v-398q-49 -41 -93 -67.5t-91 -42.5l490 -1403v-29h-594 l-39 135h-285l-43 -135h-588v31zM74 0h424l43 135h407l41 -135h422l-448 1288h-443zM240 145q0 33 21.5 55.5t55.5 22.5q31 0 55.5 -23.5t24.5 -54.5q0 -35 -23.5 -57t-56.5 -22q-35 0 -56 22.5t-21 56.5zM295 307q0 35 23.5 57.5t56.5 22.5q31 0 55.5 -23.5t24.5 -56.5 t-23.5 -55.5t-56.5 -22.5t-56.5 22.5t-23.5 55.5zM352 473q0 33 22.5 56.5t55.5 23.5t56.5 -24.5t23.5 -55.5q0 -33 -23.5 -56.5t-56.5 -23.5t-55.5 23.5t-22.5 56.5zM352 1405q41 55 89 76.5t124 21.5q43 0 84 -14t82 -30.5t82 -31t84 -14.5q78 0 129 20.5t104 65.5v268 q-41 -61 -92 -87.5t-131 -26.5q-43 0 -83 14t-82 32.5t-88 33t-97 14.5q-72 0 -122 -27.5t-83 -62.5v-252zM399 1606q0 33 23.5 55t56.5 22q31 0 55.5 -23t24.5 -54q0 -35 -23.5 -57.5t-56.5 -22.5t-56.5 22.5t-23.5 57.5zM410 639q0 33 22.5 56.5t54.5 23.5 q33 0 56.5 -24.5t23.5 -55.5q0 -33 -23.5 -56.5t-56.5 -23.5t-55 23.5t-22 56.5zM467 803q0 33 22.5 56.5t55.5 23.5t56.5 -24.5t23.5 -55.5q0 -33 -23.5 -56.5t-56.5 -23.5t-55.5 23.5t-22.5 56.5zM475 301q0 33 22.5 56.5t55.5 23.5t56.5 -23.5t23.5 -56.5 q0 -35 -23.5 -57.5t-56.5 -22.5t-55.5 23.5t-22.5 56.5zM522 969q0 33 22.5 56.5t55.5 23.5t56.5 -24.5t23.5 -55.5q0 -33 -23.5 -56.5t-56.5 -23.5t-55.5 23.5t-22.5 56.5zM575 1133q0 33 23 55t57 22q31 0 54.5 -23.5t23.5 -53.5q0 -35 -22.5 -57.5t-55.5 -22.5 q-35 0 -57.5 22.5t-22.5 57.5zM580 1608q0 33 22.5 55.5t54.5 22.5q31 0 55.5 -23.5t24.5 -54.5q0 -35 -23.5 -57.5t-56.5 -22.5t-55 22.5t-22 57.5zM633 457l108 374l111 -374h-219zM657 301q0 33 24 56.5t56 23.5q35 0 57.5 -23.5t22.5 -56.5q0 -35 -22.5 -57.5 t-57.5 -22.5q-31 0 -55.5 23.5t-24.5 56.5zM748 1542q0 33 23.5 56.5t55.5 23.5q31 0 54.5 -23.5t23.5 -56.5q0 -35 -22.5 -56.5t-55.5 -21.5t-56 21.5t-23 56.5zM750 1133q0 33 23.5 55t55.5 22q31 0 54.5 -23.5t23.5 -53.5q0 -35 -22.5 -57.5t-55.5 -22.5t-56 22.5 t-23 57.5zM797 967q0 33 22.5 56.5t54.5 23.5q33 0 56.5 -23.5t23.5 -56.5t-23.5 -56.5t-56.5 -23.5q-35 0 -56 23.5t-21 56.5zM848 301q0 33 23.5 56.5t56.5 23.5t55.5 -23.5t22.5 -56.5q0 -35 -22.5 -57.5t-55.5 -22.5t-56.5 23.5t-23.5 56.5zM852 801q0 33 23.5 56.5 t56.5 23.5t56.5 -22.5t23.5 -57.5q0 -33 -23.5 -55.5t-56.5 -22.5q-35 0 -57.5 22.5t-22.5 55.5zM909 639q0 33 23.5 55.5t56.5 22.5t55.5 -22.5t22.5 -55.5q0 -35 -22.5 -57.5t-55.5 -22.5t-56.5 22.5t-23.5 57.5zM924 1556q0 33 23.5 56.5t56.5 23.5q31 0 55 -24.5 t24 -55.5q0 -35 -23.5 -56t-55.5 -21q-33 0 -56.5 21.5t-23.5 55.5zM967 473q0 33 22.5 56.5t54.5 23.5q33 0 56.5 -24.5t23.5 -55.5q0 -33 -23.5 -56.5t-56.5 -23.5t-55 23.5t-22 56.5zM1024 307q0 35 22.5 57.5t55.5 22.5q31 0 55.5 -23.5t24.5 -56.5t-23.5 -55.5 t-56.5 -22.5t-55.5 22.5t-22.5 55.5zM1077 145q0 31 24.5 54.5t55.5 23.5q35 0 57.5 -22.5t22.5 -55.5q0 -35 -22.5 -57t-57.5 -22q-33 0 -56.5 22.5t-23.5 56.5z" />
<glyph unicode="&#xc4;" d="M-31 -51l465 1345q-98 18 -157.5 91t-59.5 184q0 61 21.5 113.5t58.5 90t89 59t114 21.5q78 0 141.5 -35.5t97.5 -95.5q37 59 99.5 95t142.5 36q61 0 113.5 -21.5t89.5 -60t58.5 -90t21.5 -112.5q0 -111 -58.5 -182.5t-156.5 -92.5l469 -1347v-29h-594l-39 135h-285 l-43 -135h-588v31zM74 0h424l43 135h407l41 -135h422l-448 1288h-443zM240 145q0 33 21.5 55.5t55.5 22.5q31 0 55.5 -23.5t24.5 -54.5q0 -35 -23.5 -57t-56.5 -22q-35 0 -56 22.5t-21 56.5zM295 307q0 35 23.5 57.5t56.5 22.5q31 0 55.5 -23.5t24.5 -56.5t-23.5 -55.5 t-56.5 -22.5t-56.5 22.5t-23.5 55.5zM299 1569q0 -92 56.5 -145.5t144.5 -53.5q92 0 146 53.5t54 145.5q0 86 -56 144.5t-144 58.5t-144.5 -57.5t-56.5 -145.5zM352 473q0 33 22.5 56.5t55.5 23.5t56.5 -24.5t23.5 -55.5q0 -33 -23.5 -56.5t-56.5 -23.5t-55.5 23.5 t-22.5 56.5zM410 639q0 33 22.5 56.5t54.5 23.5q33 0 56.5 -24.5t23.5 -55.5q0 -33 -23.5 -56.5t-56.5 -23.5t-55 23.5t-22 56.5zM420 1569q0 35 22.5 57.5t57.5 22.5q33 0 56.5 -22.5t23.5 -57.5q0 -33 -24 -56.5t-56 -23.5q-35 0 -57.5 23.5t-22.5 56.5zM467 803 q0 33 22.5 56.5t55.5 23.5t56.5 -24.5t23.5 -55.5q0 -33 -23.5 -56.5t-56.5 -23.5t-55.5 23.5t-22.5 56.5zM475 301q0 33 22.5 56.5t55.5 23.5t56.5 -23.5t23.5 -56.5q0 -35 -23.5 -57.5t-56.5 -22.5t-55.5 23.5t-22.5 56.5zM522 969q0 33 22.5 56.5t55.5 23.5t56.5 -24.5 t23.5 -55.5q0 -33 -23.5 -56.5t-56.5 -23.5t-55.5 23.5t-22.5 56.5zM575 1133q0 33 23 55t57 22q31 0 54.5 -23.5t23.5 -53.5q0 -35 -22.5 -57.5t-55.5 -22.5q-35 0 -57.5 22.5t-22.5 57.5zM633 457l108 374l111 -374h-219zM657 301q0 33 24 56.5t56 23.5q35 0 57.5 -23.5 t22.5 -56.5q0 -35 -22.5 -57.5t-57.5 -22.5q-31 0 -55.5 23.5t-24.5 56.5zM750 1133q0 33 23.5 55t55.5 22q31 0 54.5 -23.5t23.5 -53.5q0 -35 -22.5 -57.5t-55.5 -22.5t-56 22.5t-23 57.5zM780 1569q0 -92 56.5 -145.5t144.5 -53.5q92 0 146.5 53.5t54.5 145.5 q0 86 -56.5 144.5t-144.5 58.5t-144.5 -57.5t-56.5 -145.5zM797 967q0 33 22.5 56.5t54.5 23.5q33 0 56.5 -23.5t23.5 -56.5t-23.5 -56.5t-56.5 -23.5q-35 0 -56 23.5t-21 56.5zM848 301q0 33 23.5 56.5t56.5 23.5t55.5 -23.5t22.5 -56.5q0 -35 -22.5 -57.5t-55.5 -22.5 t-56.5 23.5t-23.5 56.5zM852 801q0 33 23.5 56.5t56.5 23.5t56.5 -22.5t23.5 -57.5q0 -33 -23.5 -55.5t-56.5 -22.5q-35 0 -57.5 22.5t-22.5 55.5zM903 1569q0 35 21.5 57.5t56.5 22.5q33 0 56.5 -22.5t23.5 -57.5q0 -33 -23.5 -56.5t-56.5 -23.5q-35 0 -56.5 23.5 t-21.5 56.5zM909 639q0 33 23.5 55.5t56.5 22.5t55.5 -22.5t22.5 -55.5q0 -35 -22.5 -57.5t-55.5 -22.5t-56.5 22.5t-23.5 57.5zM967 473q0 33 22.5 56.5t54.5 23.5q33 0 56.5 -24.5t23.5 -55.5q0 -33 -23.5 -56.5t-56.5 -23.5t-55 23.5t-22 56.5zM1024 307q0 35 22.5 57.5 t55.5 22.5q31 0 55.5 -23.5t24.5 -56.5t-23.5 -55.5t-56.5 -22.5t-55.5 22.5t-22.5 55.5zM1077 145q0 31 24.5 54.5t55.5 23.5q35 0 57.5 -22.5t22.5 -55.5q0 -35 -22.5 -57t-57.5 -22q-33 0 -56.5 22.5t-23.5 56.5z" />
<glyph unicode="&#xc5;" d="M-31 -51l490 1415q-59 84 -60 190q0 72 26 132.5t71 104.5t108.5 68.5t136.5 24.5q74 0 137.5 -24.5t108.5 -69.5t70.5 -105.5t25.5 -130.5q0 -109 -59 -192l494 -1415v-29h-594l-39 135h-285l-43 -135h-588v31zM74 0h424l43 135h407l41 -135h422l-448 1288h-443z M240 145q0 33 21.5 55.5t55.5 22.5q31 0 55.5 -23.5t24.5 -54.5q0 -35 -23.5 -57t-56.5 -22q-35 0 -56 22.5t-21 56.5zM295 307q0 35 23.5 57.5t56.5 22.5q31 0 55.5 -23.5t24.5 -56.5t-23.5 -55.5t-56.5 -22.5t-56.5 22.5t-23.5 55.5zM352 473q0 33 22.5 56.5t55.5 23.5 t56.5 -24.5t23.5 -55.5q0 -33 -23.5 -56.5t-56.5 -23.5t-55.5 23.5t-22.5 56.5zM410 639q0 33 22.5 56.5t54.5 23.5q33 0 56.5 -24.5t23.5 -55.5q0 -33 -23.5 -56.5t-56.5 -23.5t-55 23.5t-22 56.5zM467 803q0 33 22.5 56.5t55.5 23.5t56.5 -24.5t23.5 -55.5 q0 -33 -23.5 -56.5t-56.5 -23.5t-55.5 23.5t-22.5 56.5zM475 301q0 33 22.5 56.5t55.5 23.5t56.5 -23.5t23.5 -56.5q0 -35 -23.5 -57.5t-56.5 -22.5t-55.5 23.5t-22.5 56.5zM481 1554q0 -106 72 -173.5t188 -67.5q117 0 188.5 67.5t71.5 173.5q0 53 -19 98.5t-54 79t-82 52 t-105 18.5q-117 0 -188.5 -68.5t-71.5 -179.5zM522 969q0 33 22.5 56.5t55.5 23.5t56.5 -24.5t23.5 -55.5q0 -33 -23.5 -56.5t-56.5 -23.5t-55.5 23.5t-22.5 56.5zM539 1559q0 76 75 75q29 0 51.5 -20.5t22.5 -54.5q0 -31 -22.5 -53.5t-51.5 -22.5q-35 0 -55 22.5t-20 53.5z M575 1133q0 33 23 55t57 22q31 0 54.5 -23.5t23.5 -53.5q0 -35 -22.5 -57.5t-55.5 -22.5q-35 0 -57.5 22.5t-22.5 57.5zM633 457l108 374l111 -374h-219zM657 301q0 33 24 56.5t56 23.5q35 0 57.5 -23.5t22.5 -56.5q0 -35 -22.5 -57.5t-57.5 -22.5q-31 0 -55.5 23.5 t-24.5 56.5zM659 1425q0 33 21.5 53.5t54.5 20.5q31 0 53.5 -20.5t22.5 -53.5q0 -31 -22.5 -53t-53.5 -22q-33 0 -54.5 22.5t-21.5 52.5zM659 1694q0 33 21.5 54t54.5 21q31 0 53.5 -21t22.5 -54q0 -31 -22.5 -53.5t-53.5 -22.5q-33 0 -54.5 22.5t-21.5 53.5zM750 1133 q0 33 23.5 55t55.5 22q31 0 54.5 -23.5t23.5 -53.5q0 -35 -22.5 -57.5t-55.5 -22.5t-56 22.5t-23 57.5zM788 1559q0 35 21.5 55t54.5 20q31 0 53.5 -20t22.5 -55q0 -31 -22.5 -53.5t-53.5 -22.5q-33 0 -54.5 22.5t-21.5 53.5zM797 967q0 33 22.5 56.5t54.5 23.5 q33 0 56.5 -23.5t23.5 -56.5t-23.5 -56.5t-56.5 -23.5q-35 0 -56 23.5t-21 56.5zM848 301q0 33 23.5 56.5t56.5 23.5t55.5 -23.5t22.5 -56.5q0 -35 -22.5 -57.5t-55.5 -22.5t-56.5 23.5t-23.5 56.5zM852 801q0 33 23.5 56.5t56.5 23.5t56.5 -22.5t23.5 -57.5 q0 -33 -23.5 -55.5t-56.5 -22.5q-35 0 -57.5 22.5t-22.5 55.5zM909 639q0 33 23.5 55.5t56.5 22.5t55.5 -22.5t22.5 -55.5q0 -35 -22.5 -57.5t-55.5 -22.5t-56.5 22.5t-23.5 57.5zM967 473q0 33 22.5 56.5t54.5 23.5q33 0 56.5 -24.5t23.5 -55.5q0 -33 -23.5 -56.5 t-56.5 -23.5t-55 23.5t-22 56.5zM1024 307q0 35 22.5 57.5t55.5 22.5q31 0 55.5 -23.5t24.5 -56.5t-23.5 -55.5t-56.5 -22.5t-55.5 22.5t-22.5 55.5zM1077 145q0 31 24.5 54.5t55.5 23.5q35 0 57.5 -22.5t22.5 -55.5q0 -35 -22.5 -57t-57.5 -22q-33 0 -56.5 22.5t-23.5 56.5 z" />
<glyph unicode="&#xc6;" horiz-adv-x="1708" d="M-41 -82l498 1452h1208v-1452h-913v139h-156l-41 -139h-596zM74 0h418l40 139h302v-139h749v338h-369v151h369v322h-369v150h369v327h-1067zM238 147q0 33 21.5 55.5t53.5 22.5q33 0 55.5 -22.5t22.5 -55.5q0 -35 -22.5 -56t-55.5 -21t-54 21.5t-21 55.5zM293 309 q0 33 22.5 56.5t53.5 23.5q35 0 56 -22.5t21 -57.5q0 -33 -21 -55.5t-56 -22.5q-33 0 -54.5 22.5t-21.5 55.5zM346 473q0 33 22.5 56.5t57.5 23.5q33 0 56.5 -23.5t23.5 -56.5t-23.5 -56.5t-56.5 -23.5t-56.5 24.5t-23.5 55.5zM406 639q0 33 21.5 55.5t55.5 22.5 q33 0 55.5 -22.5t22.5 -55.5q0 -35 -22.5 -57.5t-55.5 -22.5q-35 0 -56 22.5t-21 57.5zM465 825q0 25 24.5 40.5t47.5 15.5q33 0 56 -22.5t23 -57.5q0 -33 -22 -55.5t-55 -22.5q-74 0 -74 102zM506 305q0 33 21.5 55.5t56.5 22.5q33 0 55.5 -23.5t22.5 -54.5 q0 -35 -22.5 -57.5t-55.5 -22.5q-35 2 -56.5 22.5t-21.5 57.5zM520 991q0 51 72 51q33 0 56.5 -22t23.5 -57q0 -33 -22.5 -54.5t-55.5 -21.5q-74 0 -74 104zM569 1128q0 33 22.5 56.5t55.5 23.5t55.5 -24.5t22.5 -55.5q0 -33 -21.5 -56t-56.5 -23q-33 0 -55.5 23.5 t-22.5 55.5zM627 459l137 471h70v-471h-207zM725 305q0 33 22.5 55.5t55.5 22.5t55.5 -22.5t22.5 -55.5q0 -35 -22.5 -57.5t-55.5 -22.5t-55.5 22.5t-22.5 57.5zM756 1128q0 33 22.5 56.5t55.5 23.5t55 -24.5t22 -55.5q0 -33 -21 -56t-56 -23q-33 0 -55.5 23.5t-22.5 55.5z M938 178q0 33 21.5 55.5t54.5 22.5t55.5 -22.5t22.5 -55.5t-22.5 -55.5t-55.5 -22.5t-54.5 22.5t-21.5 55.5zM938 367q0 35 21.5 57t54.5 22t55.5 -22.5t22.5 -56.5q0 -33 -22.5 -56.5t-55.5 -23.5t-54.5 23.5t-21.5 56.5zM938 555q0 33 21.5 56.5t54.5 23.5t55.5 -23.5 t22.5 -56.5t-22.5 -55.5t-55.5 -22.5t-54.5 22.5t-21.5 55.5zM938 743q0 35 21.5 57.5t54.5 22.5t55.5 -22.5t22.5 -57.5q0 -33 -22.5 -55t-55.5 -22t-54.5 22.5t-21.5 54.5zM938 932q0 33 21.5 56.5t54.5 23.5t55.5 -23.5t22.5 -56.5t-22.5 -55.5t-55.5 -22.5t-54.5 22.5 t-21.5 55.5zM938 1122q0 35 21.5 55.5t54.5 20.5t55.5 -20.5t22.5 -55.5q0 -33 -22.5 -56.5t-55.5 -23.5t-54.5 24t-21.5 56zM1124 178q0 33 22.5 55.5t55.5 22.5t56.5 -22.5t23.5 -55.5t-23.5 -55.5t-56.5 -22.5t-55.5 22.5t-22.5 55.5zM1124 651q0 33 22.5 54.5t55.5 21.5 t56.5 -21.5t23.5 -54.5t-23.5 -56.5t-56.5 -23.5t-55.5 23.5t-22.5 56.5zM1124 1122q0 35 22.5 55.5t55.5 20.5t56.5 -20.5t23.5 -55.5q0 -33 -23.5 -56.5t-56.5 -23.5t-55.5 24t-22.5 56zM1313 178q0 33 21.5 55.5t54.5 22.5q35 0 56 -22.5t21 -55.5t-21.5 -55.5 t-55.5 -22.5q-33 0 -54.5 22.5t-21.5 55.5zM1313 651q0 33 21.5 54.5t54.5 21.5q35 0 56 -21.5t21 -54.5t-21 -56.5t-56 -23.5q-33 0 -54.5 23.5t-21.5 56.5zM1313 1122q0 35 21.5 55.5t54.5 20.5q35 0 56 -20.5t21 -55.5q0 -33 -21 -56.5t-56 -23.5q-33 0 -54.5 24 t-21.5 56z" />
<glyph unicode="&#xc7;" horiz-adv-x="1433" d="M29 643q0 166 55 303t155.5 237.5t236.5 156t300 55.5q236 0 392.5 -98.5t261.5 -284.5l-408 -361q-12 61 -39 102.5t-60.5 67t-69.5 36.5t-67 11q-92 0 -149 -63.5t-57 -161.5q0 -94 54 -158.5t152 -64.5q76 0 135.5 58.5t98.5 150.5l440 -295q-78 -147 -188.5 -253 t-263.5 -153l-115 -454l-381 49l18 407q-113 35 -205 101.5t-158.5 159t-102 207t-35.5 245.5zM111 643q0 -145 49 -268t138 -212t211 -138.5t267 -49.5q111 0 201 26t161.5 70t125 105.5t92.5 134.5l-291 209q-29 -78 -98.5 -130t-180.5 -52q-66 0 -119 23.5t-90.5 64.5 t-58 96.5t-20.5 120.5q0 66 20.5 122t59 97t91 64.5t117.5 23.5q182 0 263 -182l278 258q-78 141 -209 214t-342 73q-145 0 -267 -49.5t-211 -138.5t-138 -211.5t-49 -270.5zM227 647q0 35 21.5 56.5t56.5 21.5q33 0 56.5 -21.5t23.5 -56.5q0 -33 -23.5 -56.5t-56.5 -23.5 q-35 0 -56.5 23.5t-21.5 56.5zM258 461q0 35 22.5 57.5t55.5 22.5t56.5 -22.5t23.5 -57.5q0 -33 -23.5 -56.5t-56.5 -23.5q-31 0 -54.5 24.5t-23.5 55.5zM258 825q0 35 22.5 57.5t55.5 22.5t56.5 -22.5t23.5 -57.5q0 -33 -23.5 -55t-56.5 -22q-31 0 -54.5 23.5t-23.5 53.5z M356 977q0 33 23.5 56.5t56.5 23.5t56.5 -23.5t23.5 -56.5t-24.5 -56.5t-55.5 -23.5q-33 0 -56.5 23.5t-23.5 56.5zM360 305q0 33 24 55.5t56 22.5q33 0 55.5 -22.5t22.5 -55.5q0 -31 -23.5 -55.5t-54.5 -24.5q-33 0 -56.5 23.5t-23.5 56.5zM508 1090q0 33 21.5 55t56.5 22 q33 0 56.5 -22t23.5 -55q0 -31 -25 -55.5t-55 -24.5q-35 0 -56.5 23.5t-21.5 56.5zM510 199q0 33 22.5 56.5t57.5 23.5q33 0 56.5 -23.5t23.5 -56.5t-24.5 -55.5t-55.5 -22.5q-35 0 -57.5 22.5t-22.5 55.5zM598 -414l233 -30l91 364l-306 51zM653 -311q0 29 20.5 50t53.5 21 q29 0 51.5 -19.5t22.5 -47.5q0 -78 -76 -78q-31 0 -51.5 19.5t-20.5 54.5zM680 -156q0 31 21.5 53.5t54.5 22.5q31 0 52 -19.5t21 -47.5q0 -33 -18 -56.5t-57 -23.5q-29 0 -51.5 20.5t-22.5 50.5zM690 156q0 33 23.5 55t56.5 22q35 0 57.5 -22t22.5 -55t-22.5 -56.5 t-57.5 -23.5q-33 0 -56.5 23.5t-23.5 56.5zM690 1135q0 31 24.5 54t55.5 23q35 0 57.5 -22t22.5 -55q0 -35 -22.5 -57.5t-57.5 -22.5q-33 0 -56.5 22.5t-23.5 57.5zM874 1100q0 33 24 55.5t56 22.5q35 0 57.5 -22.5t22.5 -55.5q0 -31 -23.5 -55.5t-56.5 -24.5t-56.5 23.5 t-23.5 56.5zM879 193q0 33 23.5 56t55.5 23q35 0 56.5 -23.5t21.5 -55.5q0 -33 -22.5 -56.5t-55.5 -23.5t-56 23.5t-23 56.5zM1032 995q0 33 22.5 55.5t55.5 22.5t56.5 -22.5t23.5 -55.5t-23.5 -56.5t-56.5 -23.5t-55.5 24t-22.5 56zM1036 301q0 33 23.5 56.5t56.5 23.5 t56.5 -23.5t23.5 -56.5q0 -31 -24.5 -55.5t-55.5 -24.5q-33 0 -56.5 23.5t-23.5 56.5z" />
<glyph unicode="&#xc8;" horiz-adv-x="1032" d="M55 -82v1452h289l-231 514h536l135 -514h207v-1452h-936zM137 0h772v338h-372v149h372v326h-372v150h372v325h-772v-1288zM238 1802l204 -452h263l-119 452h-348zM254 176q0 33 23.5 55.5t56.5 22.5q35 0 56.5 -22.5t21.5 -55.5t-21.5 -56.5t-56.5 -23.5 q-33 0 -56.5 23.5t-23.5 56.5zM254 367q0 33 23.5 56t56.5 23q35 0 56.5 -23.5t21.5 -55.5q0 -35 -21.5 -57.5t-56.5 -22.5q-33 0 -56.5 22.5t-23.5 57.5zM254 555q0 33 23.5 56.5t56.5 23.5q35 0 56.5 -23.5t21.5 -56.5t-21.5 -55.5t-56.5 -22.5q-33 0 -56.5 22.5 t-23.5 55.5zM254 745q0 35 23.5 56.5t56.5 21.5q35 0 56.5 -21.5t21.5 -56.5q0 -33 -21.5 -56t-56.5 -23q-33 0 -56.5 23.5t-23.5 55.5zM254 936q0 33 23.5 56.5t56.5 23.5q35 0 56.5 -23.5t21.5 -56.5q0 -35 -21.5 -57.5t-56.5 -22.5q-33 0 -56.5 22.5t-23.5 57.5z M254 1124q0 33 23.5 56.5t56.5 23.5q35 0 56.5 -23.5t21.5 -56.5t-21.5 -55t-56.5 -22q-33 0 -56.5 22.5t-23.5 54.5zM379 1669q0 33 22.5 55.5t57.5 22.5q33 0 56.5 -22.5t23.5 -55.5t-23.5 -56.5t-56.5 -23.5q-35 0 -57.5 23.5t-22.5 56.5zM444 176q0 33 22.5 55.5 t57.5 22.5q33 0 56.5 -22.5t23.5 -55.5t-23.5 -56.5t-56.5 -23.5q-35 0 -57.5 23.5t-22.5 56.5zM444 651q0 33 22.5 55.5t57.5 22.5q33 0 56.5 -22.5t23.5 -55.5t-23.5 -56.5t-56.5 -23.5q-35 0 -57.5 23.5t-22.5 56.5zM444 1124q0 33 22.5 56.5t57.5 23.5q33 0 56.5 -23.5 t23.5 -56.5t-23.5 -55t-56.5 -22q-35 0 -57.5 22.5t-22.5 54.5zM455 1479q0 33 23.5 55t56.5 22q35 0 57 -22t22 -55q0 -35 -22.5 -57.5t-56.5 -22.5q-33 0 -56.5 22.5t-23.5 57.5zM635 176q0 33 22.5 55.5t55.5 22.5t56.5 -22.5t23.5 -55.5t-24 -56.5t-56 -23.5 q-33 0 -55.5 23.5t-22.5 56.5zM635 651q0 33 22.5 55.5t55.5 22.5t56.5 -22.5t23.5 -55.5t-24 -56.5t-56 -23.5q-33 0 -55.5 23.5t-22.5 56.5zM635 1124q0 33 22.5 56.5t55.5 23.5t56.5 -23.5t23.5 -56.5t-24 -55t-56 -22q-33 0 -55.5 22.5t-22.5 54.5z" />
</font>
</defs>
</svg>
